<?xml version="1.0" encoding="iso-8859-1"?>
<!-- Generator: Adobe Illustrator 19.0.0, SVG Export Plug-In . SVG Version: 6.00 Build 0)  -->
<svg version="1.1" xmlns="http://www.w3.org/2000/svg" xmlns:xlink="http://www.w3.org/1999/xlink" x="0px" y="0px"
	 viewBox="0 0 341.119 397.873" style="enable-background:new 0 0 341.119 397.873;" xml:space="preserve">
<g id="Layer_1">
	<g id="XMLID_59_">
		<path id="XMLID_78_" style="fill:#D6E3EE;" d="M293.673,191.517H55.064c-2.534,0-4.589-1.966-4.589-4.5
			c0-2.534,2.055-4.5,4.589-4.5h238.609c2.534,0,4.589,1.966,4.589,4.5C298.262,189.552,296.207,191.517,293.673,191.517"/>
		<path id="XMLID_77_" style="fill:#D6E3EE;" d="M293.673,243.517H55.064c-2.534,0-4.589-2.466-4.589-5c0-2.534,2.055-5,4.589-5
			h238.609c2.534,0,4.589,2.466,4.589,5C298.262,241.052,296.207,243.517,293.673,243.517"/>
		<path id="XMLID_76_" style="fill:#D6E3EE;" d="M293.673,148.517H55.064c-2.534,0-4.589-2.466-4.589-5c0-2.534,2.055-5,4.589-5
			h238.609c2.534,0,4.589,2.466,4.589,5C298.262,146.052,296.207,148.517,293.673,148.517"/>
		<path id="XMLID_281_" style="fill:#D6E3EE;" d="M317.985,384.649H23.869c-12.755,0-23.134-10.376-23.134-23.132V36.354
			c0-12.755,10.379-23.131,23.134-23.131h294.116c12.756,0,23.134,10.376,23.134,23.131v325.163
			C341.119,374.273,330.741,384.649,317.985,384.649 M23.869,22.4c-7.696,0-13.956,6.26-13.956,13.954v325.163
			c0,7.695,6.26,13.955,13.956,13.955h294.116c7.696,0,13.956-6.26,13.956-13.955V36.354c0-7.694-6.26-13.954-13.956-13.954H23.869z
			"/>
		<path id="XMLID_73_" style="fill:#D6E3EE;" d="M330.382,59.517H4.589c-2.534,0-4.589-2.466-4.589-5c0-2.534,2.055-5,4.589-5
			h325.793c2.534,0,4.589,2.466,4.589,5C334.971,57.052,332.916,59.517,330.382,59.517"/>
		<path id="XMLID_72_" style="fill:#D6E3EE;" d="M33.721,35.923c0,2.501-2.027,4.528-4.528,4.528c-2.501,0-4.528-2.027-4.528-4.528
			c0-2.501,2.027-4.528,4.528-4.528C31.694,31.395,33.721,33.422,33.721,35.923"/>
		<path id="XMLID_71_" style="fill:#D6E3EE;" d="M79.002,35.923c0,2.501-2.027,4.528-4.528,4.528s-4.528-2.027-4.528-4.528
			c0-2.501,2.027-4.528,4.528-4.528S79.002,33.422,79.002,35.923"/>
		<path id="XMLID_70_" style="fill:#D6E3EE;" d="M56.361,35.923c0,2.501-2.027,4.528-4.528,4.528c-2.501,0-4.528-2.027-4.528-4.528
			c0-2.501,2.027-4.528,4.528-4.528C54.334,31.395,56.361,33.422,56.361,35.923"/>
		<path id="XMLID_69_" style="fill:#D6E3EE;" d="M293.968,325.543H182.264c-0.78,0-1.417-0.638-1.417-1.417v-45.844
			c0-0.78,0.637-1.418,1.417-1.418h111.704c0.779,0,1.417,0.638,1.417,1.418v45.844
			C295.385,324.906,294.747,325.543,293.968,325.543"/>
		<path id="XMLID_273_" style="fill:#4F8CC6;" d="M220.741,296.3c0,2.581-0.807,4.558-2.422,5.924
			c-1.614,1.369-3.908,2.053-6.886,2.053h-2.182v8.534h-5.088v-23.996h7.665c2.91,0,5.124,0.627,6.638,1.88
			C219.983,291.947,220.741,293.816,220.741,296.3 M209.251,300.106h1.674c1.564,0,2.735-0.309,3.513-0.927
			c0.775-0.619,1.165-1.517,1.165-2.7c0-1.192-0.325-2.073-0.977-2.642c-0.65-0.569-1.671-0.854-3.06-0.854h-2.315V300.106z"/>
		<path id="XMLID_270_" style="fill:#4F8CC6;" d="M243.321,312.81l-1.739-5.711h-8.749l-1.739,5.711h-5.482l8.469-24.094h6.22
			l8.503,24.094H243.321z M240.368,302.831c-1.609-5.176-2.516-8.102-2.718-8.781c-0.201-0.679-0.347-1.214-0.434-1.608
			c-0.361,1.4-1.394,4.864-3.101,10.389H240.368z"/>
		<polygon id="XMLID_64_" style="fill:#4F8CC6;" points="262.653,298.695 267.66,288.814 273.14,288.814 265.182,303.472 
			265.182,312.81 260.125,312.81 260.125,303.635 252.164,288.814 257.68,288.814 		"/>
		<path id="XMLID_265_" style="fill:#D6E3EE;" d="M86.118,307.509c0,3.24-1.215,5.913-3.644,8.021
			c-2.43,2.108-5.824,3.437-10.183,3.984v8.289h-4.61v-7.967c-2.668,0-5.252-0.208-7.753-0.626c-2.501-0.415-4.55-0.994-6.146-1.733
			v-5.574c1.977,0.882,4.258,1.603,6.843,2.162c2.584,0.56,4.936,0.84,7.056,0.84v-15.722c-4.883-1.547-8.307-3.345-10.272-5.395
			c-1.965-2.048-2.948-4.692-2.948-7.932c0-3.12,1.209-5.681,3.627-7.682c2.417-2.001,5.615-3.215,9.593-3.644v-6.503h4.61v6.431
			c4.382,0.12,8.611,1.001,12.684,2.644l-1.858,4.681c-3.55-1.405-7.158-2.238-10.826-2.501v15.507
			c3.739,1.192,6.538,2.353,8.396,3.483c1.858,1.132,3.227,2.43,4.109,3.895C85.677,303.632,86.118,305.413,86.118,307.509
			 M60.5,285.785c0,1.811,0.536,3.264,1.607,4.359c1.072,1.096,2.93,2.132,5.574,3.108v-13.827
			c-2.358,0.381-4.144,1.125-5.359,2.233C61.107,282.765,60.5,284.141,60.5,285.785 M80.044,307.973c0-1.715-0.53-3.102-1.59-4.162
			c-1.061-1.059-3.115-2.113-6.163-3.162v13.898C77.459,313.833,80.044,311.642,80.044,307.973"/>
	</g>
</g>
<g id="Layer_2">
</g>
<g id="Layer_3">
</g>
<g id="Layer_4">
</g>
</svg>
