<?xml version="1.0" encoding="iso-8859-1"?>
<!-- Generator: Adobe Illustrator 19.0.0, SVG Export Plug-In . SVG Version: 6.00 Build 0)  -->
<svg version="1.1" xmlns="http://www.w3.org/2000/svg" xmlns:xlink="http://www.w3.org/1999/xlink" x="0px" y="0px"
	 viewBox="0 0 412.846 397.873" style="enable-background:new 0 0 412.846 397.873;" xml:space="preserve">
<g id="Layer_1">
	<g id="XMLID_60_">
		<path id="XMLID_40_" style="fill:#D6E3EE;" d="M146.623,128.421c0,3.881-1.455,7.084-4.366,9.61
			c-2.911,2.525-6.978,4.117-12.2,4.773v9.931h-5.522v-9.546c-3.197,0-6.293-0.249-9.289-0.749
			c-2.997-0.498-5.451-1.191-7.363-2.076v-6.678c2.368,1.057,5.101,1.92,8.198,2.59c3.095,0.671,5.914,1.006,8.454,1.006v-18.835
			c-5.851-1.855-9.953-4.009-12.307-6.464c-2.354-2.454-3.532-5.621-3.532-9.503c0-3.738,1.448-6.806,4.345-9.204
			c2.897-2.397,6.728-3.852,11.494-4.366v-7.79h5.522v7.705c5.251,0.144,10.316,1.198,15.196,3.167l-2.226,5.608
			c-4.252-1.683-8.576-2.682-12.97-2.997v18.579c4.48,1.428,7.834,2.819,10.06,4.173c2.225,1.356,3.866,2.911,4.922,4.666
			C146.095,123.776,146.623,125.911,146.623,128.421 M115.931,102.395c0,2.17,0.642,3.911,1.926,5.223
			c1.284,1.313,3.51,2.554,6.678,3.724V94.775c-2.825,0.457-4.966,1.348-6.421,2.675
			C116.659,98.777,115.931,100.425,115.931,102.395 M139.346,128.977c0-2.055-0.635-3.716-1.905-4.987
			c-1.27-1.268-3.732-2.531-7.384-3.788v16.651C136.249,135.999,139.346,133.374,139.346,128.977"/>
		<path id="XMLID_39_" style="fill:#D6E3EE;" d="M204.44,201.66H48.427c-2.535,0-4.589-1.966-4.589-4.5c0-2.534,2.054-4.5,4.589-4.5
			H204.44c2.534,0,4.589,1.966,4.589,4.5C209.029,199.694,206.974,201.66,204.44,201.66"/>
		<path id="XMLID_38_" style="fill:#D6E3EE;" d="M204.44,235.66H48.427c-2.535,0-4.589-2.466-4.589-5c0-2.534,2.054-5,4.589-5
			H204.44c2.534,0,4.589,2.466,4.589,5C209.029,233.194,206.974,235.66,204.44,235.66"/>
		<path id="XMLID_37_" style="fill:#D6E3EE;" d="M204.44,265.66H48.427c-2.535,0-4.589-2.466-4.589-5c0-2.534,2.054-5,4.589-5
			H204.44c2.534,0,4.589,2.466,4.589,5C209.029,263.194,206.974,265.66,204.44,265.66"/>
		<path id="XMLID_34_" style="fill:#D6E3EE;" d="M402.293,224.089H233.67c-5.819,0-10.553-4.734-10.553-10.553V106.503
			c0-5.82,4.734-10.553,10.553-10.553h168.623c5.819,0,10.553,4.733,10.553,10.553v107.033
			C412.846,219.355,408.112,224.089,402.293,224.089 M233.67,102.985c-1.941,0-3.518,1.579-3.518,3.518v107.033
			c0,1.939,1.577,3.517,3.518,3.517h168.623c1.941,0,3.518-1.578,3.518-3.517V106.503c0-1.939-1.577-3.518-3.518-3.518H233.67z"/>
		<path id="XMLID_31_" style="fill:#D6E3EE;" d="M317.47,193.386h-0.004c-2.817,0-5.458-1.108-7.433-3.121l-81.88-83.303
			c-3.315-3.375-2.611-6.278-2.15-7.37c0.457-1.093,2.033-3.631,6.763-3.631h169.407c4.73,0,6.307,2.538,6.764,3.631
			c0.46,1.092,1.164,3.995-2.151,7.368l-81.876,83.307C322.932,192.28,320.29,193.386,317.47,193.386 M234.12,102.996l80.928,82.338
			c0.646,0.656,1.504,1.017,2.422,1.017c0.917,0,1.779-0.361,2.425-1.017l80.924-82.338H234.12z"/>
		<path id="XMLID_28_" style="fill:#D6E3EE;" d="M338.502,135.532c0,2.473-0.392,4.737-1.182,6.787
			c-0.79,2.055-1.91,3.664-3.353,4.832c-1.442,1.168-3.112,1.752-5.022,1.752c-1.271,0-2.398-0.304-3.373-0.916
			c-0.983-0.608-1.683-1.411-2.116-2.407h-0.412c-1.855,2.215-4.212,3.323-7.084,3.323c-3.036,0-5.434-0.916-7.186-2.743
			c-1.752-1.831-2.631-4.333-2.631-7.511c0-3.624,1.154-6.544,3.456-8.759c2.301-2.216,5.303-3.324,9.013-3.324
			c1.477,0,3.106,0.141,4.885,0.426c1.779,0.282,3.243,0.622,4.39,1.017l-0.591,12.598c0,2.388,0.653,3.582,1.958,3.582
			c1.1,0,1.979-0.803,2.632-2.409c0.652-1.606,0.975-3.706,0.975-6.3c0-2.765-0.577-5.207-1.724-7.33
			c-1.154-2.12-2.769-3.739-4.857-4.856c-2.089-1.116-4.473-1.674-7.152-1.674c-3.47,0-6.479,0.713-9.042,2.138
			c-2.555,1.426-4.52,3.483-5.888,6.171c-1.36,2.688-2.047,5.792-2.047,9.313c0,4.74,1.271,8.378,3.8,10.909
			c2.535,2.536,6.203,3.802,11.013,3.802c1.82,0,3.826-0.201,6.004-0.607c2.185-0.402,4.328-0.99,6.444-1.763v4.946
			c-3.675,1.563-7.756,2.345-12.242,2.345c-6.527,0-11.611-1.718-15.259-5.153c-3.655-3.435-5.476-8.21-5.476-14.324
			c0-4.243,0.928-8.094,2.796-11.557c1.862-3.459,4.514-6.172,7.956-8.141c3.449-1.965,7.406-2.949,11.893-2.949
			c3.778,0,7.151,0.773,10.126,2.319c2.968,1.546,5.263,3.744,6.877,6.596C337.698,128.516,338.502,131.805,338.502,135.532
			 M312.12,138.751c0,3.624,1.477,5.437,4.431,5.437c1.546,0,2.728-0.545,3.532-1.636c0.81-1.091,1.298-2.865,1.47-5.321
			l0.337-5.693c-0.88-0.189-1.869-0.284-2.968-0.284c-2.144,0-3.813,0.67-5.009,2.01C312.718,134.604,312.12,136.434,312.12,138.751
			"/>
		<path id="XMLID_27_" style="fill:#D6E3EE;" d="M291.749,305.57c0,2.971-1.067,5.318-3.21,7.029
			c-2.143,1.712-5.12,2.571-8.929,2.571c-3.515,0-6.633-0.661-9.335-1.986v-6.487c2.224,0.991,4.104,1.687,5.647,2.093
			c1.534,0.406,2.946,0.61,4.226,0.61c1.534,0,2.702-0.295,3.525-0.879s1.229-1.458,1.229-2.616c0-0.645-0.182-1.219-0.538-1.722
			c-0.366-0.503-0.894-0.985-1.595-1.452c-0.701-0.468-2.123-1.209-4.266-2.23c-2.012-0.95-3.525-1.859-4.531-2.727
			c-1.006-0.874-1.808-1.885-2.407-3.043c-0.6-1.158-0.905-2.509-0.905-4.058c0-2.91,0.986-5.201,2.967-6.872
			c1.97-1.666,4.703-2.499,8.187-2.499c1.717,0,3.342,0.203,4.897,0.609c1.554,0.402,3.189,0.976,4.886,1.712l-2.255,5.43
			c-1.758-0.721-3.21-1.224-4.358-1.509c-1.148-0.284-2.286-0.432-3.393-0.432c-1.321,0-2.337,0.311-3.048,0.925
			c-0.701,0.619-1.056,1.422-1.056,2.412c0,0.615,0.142,1.153,0.427,1.611c0.284,0.457,0.741,0.904,1.361,1.33
			c0.63,0.427,2.103,1.199,4.429,2.311c3.078,1.473,5.191,2.946,6.338,4.424C291.18,301.608,291.749,303.422,291.749,305.57"/>
		<path id="XMLID_26_" style="fill:#D6E3EE;" d="M313.975,314.718l-7.923-25.848h-0.204c0.285,5.263,0.427,8.767,0.427,10.524
			v15.324h-6.247v-32.943h9.508l7.801,25.193h0.133l8.268-25.193h9.508v32.943h-6.511v-15.593c0-0.736,0.01-1.585,0.041-2.545
			c0.02-0.965,0.121-3.514,0.304-7.664h-0.203l-8.502,25.802H313.975z"/>
		<path id="XMLID_25_" style="fill:#D6E3EE;" d="M365.294,305.57c0,2.971-1.067,5.318-3.21,7.029
			c-2.143,1.712-5.12,2.571-8.929,2.571c-3.515,0-6.633-0.661-9.335-1.986v-6.487c2.224,0.991,4.103,1.687,5.647,2.093
			c1.534,0.406,2.946,0.61,4.226,0.61c1.534,0,2.702-0.295,3.525-0.879s1.229-1.458,1.229-2.616c0-0.645-0.183-1.219-0.538-1.722
			c-0.366-0.503-0.894-0.985-1.595-1.452c-0.701-0.468-2.123-1.209-4.266-2.23c-2.012-0.95-3.525-1.859-4.531-2.727
			c-1.006-0.874-1.808-1.885-2.407-3.043c-0.6-1.158-0.905-2.509-0.905-4.058c0-2.91,0.986-5.201,2.967-6.872
			c1.97-1.666,4.703-2.499,8.187-2.499c1.717,0,3.342,0.203,4.897,0.609c1.554,0.402,3.189,0.976,4.886,1.712l-2.255,5.43
			c-1.758-0.721-3.211-1.224-4.358-1.509c-1.148-0.284-2.286-0.432-3.393-0.432c-1.321,0-2.337,0.311-3.048,0.925
			c-0.701,0.619-1.056,1.422-1.056,2.412c0,0.615,0.142,1.153,0.426,1.611c0.285,0.457,0.742,0.904,1.362,1.33
			c0.63,0.427,2.102,1.199,4.429,2.311c3.078,1.473,5.191,2.946,6.338,4.424C364.725,301.608,365.294,303.422,365.294,305.57"/>
		<path id="XMLID_22_" style="fill:#D6E3EE;" d="M255.662,397.873c-0.45,0-0.904-0.086-1.337-0.265
			c-1.319-0.541-2.181-1.826-2.181-3.253v-30.452h-17.756c-6.214,0-11.271-5.057-11.271-11.271V247.036
			c0-6.216,5.057-11.272,11.271-11.272h167.187c6.214,0,11.271,5.056,11.271,11.272v105.596c0,6.214-5.057,11.271-11.271,11.271
			H290.69l-32.528,32.923C257.489,397.51,256.582,397.873,255.662,397.873 M234.388,242.798c-2.336,0-4.236,1.901-4.236,4.237
			v105.596c0,2.336,1.9,4.235,4.236,4.235h21.274c1.944,0,3.517,1.576,3.517,3.518v25.405l27.54-27.876
			c0.659-0.67,1.559-1.047,2.5-1.047h112.356c2.336,0,4.236-1.899,4.236-4.235V247.036c0-2.336-1.9-4.237-4.236-4.237H234.388z"/>
		<g id="XMLID_1_">
			<path id="XMLID_2_" style="fill:#D6E3EE;" d="M150.859,304.433c-0.361,1.401-1.394,4.587-3.101,10.587h6.253
				c-1.609-6-2.516-8.2-2.718-8.879C151.092,305.462,150.946,304.828,150.859,304.433z"/>
			<path id="XMLID_8_" style="fill:#D6E3EE;" d="M125.209,305.02H123v7h1.568c1.564,0,2.735-0.368,3.513-0.987
				c0.775-0.618,1.165-1.546,1.165-2.729c0-1.192-0.325-1.967-0.977-2.536C127.619,305.199,126.598,305.02,125.209,305.02z"/>
			<path id="XMLID_17_" style="fill:#D6E3EE;" d="M209,290.438c0-0.783-0.634-1.418-1.417-1.418H95.417
				c-0.783,0-1.417,0.635-1.417,1.418v46.164c0,0.783,0.634,1.418,1.417,1.418h112.166c0.783,0,1.417-0.635,1.417-1.418V290.438z
				 M131.962,313.992c-1.614,1.369-3.908,2.028-6.886,2.028H123v9h-5v-24h7.471c2.91,0,5.124,0.422,6.638,1.674
				c1.517,1.253,2.275,3.005,2.275,5.49C134.384,310.765,133.577,312.625,131.962,313.992z M156.964,325.02l-1.739-6h-8.749
				l-1.739,6h-5.482l8.469-25h6.22l8.503,25H156.964z M179,315.267v9.753h-5v-9.59l-8.193-14.41h5.516l4.972,9.881l5.008-9.881h5.48
				L179,315.267z"/>
		</g>
		<rect id="XMLID_4_" x="240" y="221.02" style="fill:#D6E3EE;" width="9" height="18"/>
		<polygon id="XMLID_6_" style="fill:#D6E3EE;" points="235.375,364.02 0,364.02 0,0 25.251,25.763 48.162,4.768 67.999,24.936 
			88.111,4.488 107.835,25.983 127.049,4.487 147.533,24.808 165.583,4.455 186.659,25.585 207.019,4.372 225.415,25.275 
			249,-0.596 249,100.02 240,100.02 240,22.636 225.296,38.765 206.731,17.668 186.783,38.455 165.968,17.585 147.951,37.899 
			127.441,17.553 107.923,39.39 87.885,17.552 67.999,37.771 47.837,17.272 24.915,38.277 9,22.04 9,355.02 226,355.02 		"/>
	</g>
</g>
<g id="Layer_2">
</g>
<g id="Layer_3">
</g>
<g id="Layer_4">
</g>
</svg>
