<?xml version="1.0" encoding="iso-8859-1"?>
<!-- Generator: Adobe Illustrator 19.0.0, SVG Export Plug-In . SVG Version: 6.00 Build 0)  -->
<svg version="1.1" xmlns="http://www.w3.org/2000/svg" xmlns:xlink="http://www.w3.org/1999/xlink" x="0px" y="0px"
	 viewBox="0 0 522.1 397.873" style="enable-background:new 0 0 522.1 397.873;" xml:space="preserve">
<g id="Layer_1">
	<g id="XMLID_92_">
		<g id="XMLID_116_" style="opacity:0.7;">
			<g id="XMLID_117_">
				<defs>
					<rect id="XMLID_120_" x="194.136" y="68.401" width="323.55" height="213.33"/>
				</defs>
				<clipPath id="XMLID_199_">
					<use xlink:href="#XMLID_120_"  style="overflow:visible;"/>
				</clipPath>
				<path id="XMLID_121_" style="clip-path:url(#XMLID_199_);fill:#D6E3EE;" d="M499.69,281.731H194.134V68.398H499.69
					c9.941,0,18,8.059,18,18v177.333C517.69,273.672,509.63,281.731,499.69,281.731"/>
			</g>
		</g>
		<path id="XMLID_113_" style="fill:#D6E3EE;" d="M496.585,286.812H25.515C11.444,286.812,0,278.096,0,267.382V84.428
			c0-10.714,11.444-19.43,25.515-19.43h471.07c14.071,0,25.515,8.716,25.515,19.43v182.954
			C522.1,278.096,510.656,286.812,496.585,286.812 M25.515,72.338c-9.849,0-18.175,5.536-18.175,12.09v182.954
			c0,6.553,8.326,12.09,18.175,12.09h471.07c9.849,0,18.175-5.537,18.175-12.09V84.428c0-6.554-8.326-12.09-18.175-12.09H25.515z"/>
		<path id="XMLID_110_" style="fill:#4F8CC6;" d="M320.242,160.945c0,6.017-2.053,10.645-6.16,13.885
			c-4.106,3.239-9.981,4.858-17.625,4.858h-6.993v23.378h-6.912v-59.442h15.409C312.815,143.624,320.242,149.398,320.242,160.945
			 M289.464,173.752h6.221c6.125,0,10.557-0.989,13.295-2.968c2.737-1.979,4.106-5.15,4.106-9.514c0-3.93-1.287-6.858-3.862-8.782
			c-2.575-1.925-6.587-2.887-12.035-2.887h-7.725V173.752z"/>
		<path id="XMLID_107_" style="fill:#4F8CC6;" d="M374.211,203.067l-7.4-18.906h-23.826l-7.318,18.906h-6.993l23.5-59.686h5.814
			l23.378,59.686H374.211z M364.656,177.94l-6.912-18.418c-0.894-2.331-1.816-5.191-2.765-8.579
			c-0.596,2.602-1.45,5.462-2.561,8.579l-6.993,18.418H364.656z"/>
		<polygon id="XMLID_106_" style="fill:#4F8CC6;" points="408.828,173.346 424.685,143.625 432.166,143.625 412.325,180.014 
			412.325,203.067 405.331,203.067 405.331,180.339 385.531,143.625 393.093,143.625 		"/>
		<path id="XMLID_105_" style="fill:#D6E3EE;" d="M194.134,286.85c-2.048,0-3.71-1.66-3.71-3.708V68.668
			c0-2.048,1.662-3.708,3.71-3.708c2.048,0,3.71,1.66,3.71,3.708v214.474C197.844,285.19,196.182,286.85,194.134,286.85"/>
		<path id="XMLID_97_" style="fill:#D6E3EE;" d="M116.768,207.035H81.072c2.516,1.382,3.99,3.071,4.288,5.496
			c0.294,2.389-0.397,4.475-2.264,6.072c-2.784,2.38-7.058,2.083-9.436-0.631c-2.851-3.253-2.073-7.113,2.346-10.969
			c-1.695,0-3.231,0.036-4.765-0.009c-1.919-0.056-3.022-1.14-2.986-2.846c0.036-1.705,1.147-2.674,3.118-2.675
			c16.664-0.004,33.328-0.002,49.992-0.003c0.43,0,0.86,0.008,1.29-0.002c1.982-0.044,3.237-1.162,3.189-2.835
			c-0.048-1.655-1.203-2.641-3.166-2.643c-8.709-0.008-17.417,0.039-26.125-0.015c-8.157-0.051-16.313-0.19-24.469-0.317
			c-4.126-0.064-7.826-3.331-8.862-7.827c-2.086-9.045-4.164-18.091-6.193-27.149c-0.312-1.394-0.619-2.884-0.452-4.272
			c0.435-3.635,3.193-5.901,6.868-5.902c19.943-0.006,39.886-0.003,59.829-0.003c2.742,0,5.484-0.048,8.224,0.024
			c1.06,0.029,1.482-0.319,1.731-1.353c0.513-2.136,1.204-4.229,1.817-6.342c1.273-4.393,4.963-7.163,9.558-7.167
			c3.01-0.002,6.02-0.001,9.03,0c2.332,0.001,3.598,0.945,3.628,2.702c0.031,1.799-1.277,2.781-3.708,2.782
			c-2.796,0-5.591-0.019-8.386,0.006c-2.804,0.024-4.305,1.116-5.009,3.826c-3.658,14.065-7.264,28.143-10.927,42.207
			c-0.401,1.539-1.048,3.013-1.648,4.706c3.239,2.415,4.698,5.828,3.114,9.969c-1.485,3.885-4.628,5.45-8.417,5.105
			c1.016,1.193,2.518,2.335,3.115,3.837c0.583,1.468,0.614,3.396,0.225,4.958c-0.699,2.805-3.396,4.444-6.39,4.414
			c-2.92-0.028-5.435-1.885-6.294-4.646C111.953,212.372,113.074,209.77,116.768,207.035 M69.96,155.995
			c0.621,0.661,1,1.086,1.402,1.488c10.262,10.267,20.553,20.504,30.757,30.826c1.356,1.372,2.666,2,4.609,1.918
			c3.729-0.159,7.469-0.046,11.255-0.046c-0.072-0.278-0.066-0.404-0.126-0.465c-11.089-11.108-22.18-22.213-33.283-33.307
			c-0.208-0.207-0.55-0.395-0.83-0.396C79.255,155.988,74.766,155.995,69.96,155.995 M99.649,190.178l0.317-0.487
			c-0.47-0.352-0.992-0.653-1.404-1.065c-10.3-10.281-20.626-20.537-30.829-30.913c-1.237-1.258-2.301-1.968-4.036-1.733
			c-1.545,0.211-1.985,0.69-1.649,2.218c0.611,2.775,1.301,5.533,1.874,8.316c0.319,1.554,0.971,2.753,2.159,3.91
			c6.348,6.181,12.565,12.497,18.848,18.744c0.427,0.425,1.019,0.957,1.543,0.966C90.863,190.211,95.257,190.178,99.649,190.178
			 M88.255,155.99c11.338,11.283,22.41,22.3,33.752,33.586c0.581-0.993,1.364-1.946,1.728-3.037
			c0.659-1.979,1.038-4.048,1.594-6.063c0.239-0.864,0.097-1.46-0.57-2.123c-7.242-7.189-14.443-14.42-21.675-21.62
			c-0.345-0.343-0.874-0.706-1.322-0.711C97.372,155.969,92.982,155.99,88.255,155.99 M126.485,175.763
			c0.888-3.502,1.796-6.966,2.606-10.453c0.088-0.377-0.288-0.978-0.614-1.315c-1.943-2.007-4.039-3.874-5.875-5.971
			c-1.397-1.595-2.909-2.189-5.025-2.085c-3.613,0.179-7.241,0.05-10.851,0.05C113.332,162.599,119.843,169.116,126.485,175.763
			 M81.279,190.153c-5.185-5.189-10.406-10.415-15.464-15.477c0.89,3.862,1.827,8.035,2.821,12.193
			c0.445,1.863,1.963,3.192,3.914,3.257C75.537,190.226,78.529,190.153,81.279,190.153 M130.175,161.193
			c0.398-1.625,0.819-3.347,1.253-5.121h-6.394C126.723,157.755,128.433,159.457,130.175,161.193"/>
		<path id="XMLID_96_" style="fill:#4F8CC6;" d="M389.178,357.472c-1.788-0.63-2.913-1.194-3.598-2.149
			c-0.628-0.876-1.13-1.743-1.492-2.581c-2.662-6.108-5.293-12.218-7.923-18.327l-5.247-12.117c0,0-4.401,3.757-4.638,3.979
			l-3.639,3.421c-2.411,2.27-4.822,4.54-7.264,6.776c-1.358,1.245-3.042,1.931-4.741,1.931c-2.666,0-4.893-1.595-5.807-4.158
			c-0.256-0.717-0.395-1.605-0.395-2.51c-0.067-29.358-0.098-58.707-0.121-88.058c-0.004-3.672,1.551-5.823,4.885-6.775
			c0.381-0.108,0.775-0.177,1.165-0.251l0.314-0.063l1.299,0.26c1.183,0.267,2.281,0.885,3.348,1.887l64.083,60.028
			c2.017,1.889,2.649,3.946,1.99,6.471c-0.641,2.48-2.115,3.937-4.503,4.461c-1.685,0.37-3.496,0.506-5.414,0.652
			c-0.779,0.058-1.559,0.119-2.339,0.193c-2.545,0.246-15.464,1.416-15.464,1.416l2.631,5.991l11.283,24.693
			c1.738,3.811,0.533,5.933-0.713,7.358c-0.64,0.73-1.671,1.449-2.836,1.978c-3.177,1.445-6.395,2.785-9.617,4.125l-3.266,1.369
			H389.178z"/>
		<path id="XMLID_93_" style="fill:#D6E3EE;" d="M350.672,240.093c0.182,0.036,0.364,0.073,0.543,0.113
			c0.365,0.082,0.945,0.281,1.761,1.045l21.362,20.01l42.714,40.016c1.237,1.158,1.312,1.953,1.014,3.096
			c-0.358,1.376-0.947,1.75-1.908,1.962c-1.445,0.317-3.131,0.445-4.915,0.58c-0.814,0.062-1.627,0.125-2.433,0.202
			c-2.392,0.231-4.786,0.447-7.24,0.669l-3.449,0.312l-9.523,0.871l3.849,8.753l0.249,0.571l0.482,1.09l3.657,8.001l7.624,16.688
			c1.039,2.277,0.395,3.013-0.172,3.66c-0.237,0.271-0.817,0.725-1.673,1.115c-3.13,1.423-6.41,2.789-9.583,4.11l-2.564,1.074
			h-0.682c-0.993-0.376-1.323-0.593-1.41-0.715c-0.477-0.665-0.871-1.342-1.14-1.957c-2.688-6.172-5.35-12.355-8.011-18.537
			l-2.687-6.239l-0.411-0.939l-0.209-0.474l-3.743-8.522l-7.051,6.076l-0.318,0.271c-0.32,0.269-0.601,0.51-0.878,0.768l-3.553,3.34
			c-2.43,2.289-4.861,4.579-7.323,6.834c-0.925,0.848-1.825,1.025-2.417,1.025c-0.57,0-1.961-0.181-2.563-1.871
			c-0.123-0.343-0.196-0.854-0.197-1.368c-0.066-29.349-0.097-58.698-0.12-88.046c-0.002-2.366,0.769-3.001,2.395-3.465
			C350.321,240.163,350.496,240.127,350.672,240.093 M350.92,233.133h-0.499c-0.723,0.151-1.458,0.259-2.166,0.462
			c-4.802,1.369-7.388,4.872-7.384,10.088c0.023,29.351,0.054,58.703,0.12,88.055c0.002,1.225,0.187,2.514,0.596,3.662
			c1.477,4.149,5.162,6.445,9.047,6.445c2.443,0,4.965-0.907,7.067-2.833c3.678-3.37,7.287-6.814,10.93-10.223
			c0.288-0.269,0.596-0.516,0.985-0.851c0.235,0.536,0.419,0.948,0.597,1.362c3.566,8.271,7.115,16.55,10.712,24.808
			c0.493,1.129,1.137,2.217,1.857,3.219c1.426,1.989,3.603,2.841,5.823,3.586h3.244c4.545-1.919,9.125-3.759,13.614-5.8
			c1.471-0.669,2.951-1.644,4.005-2.848c2.904-3.321,3.046-7.119,1.253-11.049c-3.755-8.234-7.521-16.463-11.282-24.693
			c-0.215-0.472-0.418-0.949-0.691-1.571c3.699-0.338,7.213-0.645,10.722-0.984c2.728-0.264,5.503-0.327,8.163-0.91
			c3.694-0.811,6.137-3.269,7.094-6.952c0.996-3.831-0.091-7.155-2.968-9.851c-21.354-20.015-42.719-40.019-64.078-60.028
			c-1.422-1.332-3.038-2.304-4.953-2.735C352.129,233.357,351.523,233.252,350.92,233.133"/>
	</g>
</g>
<g id="Layer_2">
</g>
<g id="Layer_3">
</g>
<g id="Layer_4">
</g>
</svg>
