<svg xmlns="http://www.w3.org/2000/svg" width="72" height="72" viewBox="0 0 72 72"><title>01.Web.Icon.Pack</title><g id="Frames"><g id="lines"><path d="M32,58H13a3,3,0,0,1-3-3V13a3,3,0,0,1,3-3H53a3,3,0,0,1,3,3V33" fill="none" stroke="#003a52" stroke-linejoin="round" stroke-width="2"/><path d="M10,45v3a3,3,0,0,0,3,3H32" fill="none" stroke="#003a52" stroke-linejoin="round" stroke-width="2"/><line x1="22" y1="18" x2="22" y2="43" fill="none" stroke="#003a52" stroke-linejoin="round" stroke-width="2"/><line x1="33" y1="18" x2="33" y2="43" fill="none" stroke="#003a52" stroke-linejoin="round" stroke-width="2"/><line x1="44" y1="18" x2="44" y2="34" fill="none" stroke="#003a52" stroke-linejoin="round" stroke-width="2"/><line x1="18" y1="25" x2="26" y2="25" fill="none" stroke="#003a52" stroke-linejoin="round" stroke-width="2"/><line x1="29" y1="34" x2="37" y2="34" fill="none" stroke="#003a52" stroke-linejoin="round" stroke-width="2"/><line x1="40" y1="22" x2="48" y2="22" fill="none" stroke="#003a52" stroke-linejoin="round" stroke-width="2"/><circle cx="51" cy="51" r="10.5" fill="none" stroke="#003a52" stroke-linejoin="round" stroke-width="2"/><line x1="51" y1="36" x2="51" y2="40.5" fill="none" stroke="#003a52" stroke-linejoin="round" stroke-width="2"/><line x1="61.5" y1="51" x2="66" y2="51" fill="none" stroke="#003a52" stroke-linejoin="round" stroke-width="2"/><line x1="51" y1="61.5" x2="51" y2="66" fill="none" stroke="#003a52" stroke-linejoin="round" stroke-width="2"/><line x1="40.5" y1="51" x2="36" y2="51" fill="none" stroke="#003a52" stroke-linejoin="round" stroke-width="2"/><line x1="61.61" y1="40.39" x2="58.42" y2="43.58" fill="none" stroke="#003a52" stroke-linejoin="round" stroke-width="2"/><line x1="58.42" y1="58.42" x2="61.61" y2="61.61" fill="none" stroke="#003a52" stroke-linejoin="round" stroke-width="2"/><line x1="43.58" y1="58.42" x2="40.39" y2="61.61" fill="none" stroke="#003a52" stroke-linejoin="round" stroke-width="2"/><line x1="43.58" y1="43.58" x2="40.39" y2="40.39" fill="none" stroke="#003a52" stroke-linejoin="round" stroke-width="2"/><circle cx="51" cy="51" r="3" fill="#003a52"/></g></g><g id="Boxes"><rect width="72" height="72" fill="none"/></g></svg>
