<svg xmlns="http://www.w3.org/2000/svg" width="72" height="72" viewBox="0 0 72 72"><title>01.Web.Icon.Pack</title><g id="Merchant"><g id="lines"><path d="M58,29.88V59a3,3,0,0,1-2.94,3H16.94A3,3,0,0,1,14,59V30" fill="none" stroke="#003a52" stroke-linecap="round" stroke-linejoin="round" stroke-width="2"/><line x1="22" y1="22.24" x2="22" y2="29.88" fill="none" stroke="#003a52" stroke-linecap="round" stroke-linejoin="round" stroke-width="2"/><line x1="36" y1="11.28" x2="36" y2="29.19" fill="none" stroke="#003a52" stroke-linecap="round" stroke-linejoin="round" stroke-width="2"/><line x1="50" y1="22" x2="50" y2="30" fill="none" stroke="#003a52" stroke-linecap="round" stroke-linejoin="round" stroke-width="2"/><path d="M62,22v5a3,3,0,0,1-3,3H13a3,3,0,0,1-3-3V22l5.28-10.36A3,3,0,0,1,18,10H54a3,3,0,0,1,2.68,1.64Z" fill="none" stroke="#003a52" stroke-linecap="round" stroke-linejoin="round" stroke-width="2"/><line x1="22" y1="22" x2="26" y2="10" fill="none" stroke="#003a52" stroke-linecap="round" stroke-linejoin="round" stroke-width="2"/><line x1="50" y1="22" x2="46" y2="10" fill="none" stroke="#003a52" stroke-linecap="round" stroke-linejoin="round" stroke-width="2"/><line x1="10" y1="22" x2="62" y2="22" fill="none" stroke="#003a52" stroke-linecap="round" stroke-linejoin="round" stroke-width="2"/><line x1="14" y1="51" x2="58" y2="51" fill="none" stroke="#003a52" stroke-linecap="round" stroke-linejoin="round" stroke-width="2"/></g></g><g id="Boxes"><rect width="72" height="72" fill="none"/></g></svg>
