<svg xmlns="http://www.w3.org/2000/svg" width="72" height="72" viewBox="0 0 72 72"><title>01.Web.Icon.Pack</title><g id="Mobile_SDK" data-name="Mobile SDK"><g id="lines"><path d="M40,58H10a3,3,0,0,1-3-3.07V17.07A3,3,0,0,1,10,14H62a3,3,0,0,1,3,3.07V54.93A3,3,0,0,1,62,58H60" fill="none" stroke="#003a52" stroke-linecap="round" stroke-linejoin="round" stroke-width="2"/><line x1="53" y1="61" x2="47" y2="61" fill="none" stroke="#003a52" stroke-linejoin="round" stroke-width="2"/><line x1="54" y1="37" x2="46" y2="37" fill="none" stroke="#003a52" stroke-linejoin="round" stroke-width="2"/><line x1="40.58" y1="24.16" x2="31.42" y2="48.58" fill="none" stroke="#003a52" stroke-linejoin="round" stroke-width="2"/><polyline points="27 29 19 37 27 45" fill="none" stroke="#003a52" stroke-linejoin="round" stroke-width="2"/><polyline points="54 34 50 34 45 29" fill="none" stroke="#003a52" stroke-linejoin="round" stroke-width="2"/><path d="M44,34H55.91a3,3,0,0,1,3,3.1V61.9a3,3,0,0,1-3,3.1H44a3,3,0,0,1-3-3.1V37.1A3,3,0,0,1,44,34Z" fill="none" stroke="#003a52" stroke-linejoin="round" stroke-width="2"/></g></g><g id="Boxes"><rect width="72" height="72" fill="none"/></g></svg>
