<?xml version="1.0" encoding="UTF-8" standalone="no"?>
<!-- Generator: Adobe Illustrator 19.0.0, SVG Export Plug-In . SVG Version: 6.00 Build 0)  -->

<svg
   xmlns:dc="http://purl.org/dc/elements/1.1/"
   xmlns:cc="http://creativecommons.org/ns#"
   xmlns:rdf="http://www.w3.org/1999/02/22-rdf-syntax-ns#"
   xmlns:svg="http://www.w3.org/2000/svg"
   xmlns="http://www.w3.org/2000/svg"
   xmlns:xlink="http://www.w3.org/1999/xlink"
   xmlns:sodipodi="http://sodipodi.sourceforge.net/DTD/sodipodi-0.dtd"
   xmlns:inkscape="http://www.inkscape.org/namespaces/inkscape"
   version="1.1"
   x="0px"
   y="0px"
   viewBox="0 0 459.4 397.873"
   style="enable-background:new 0 0 459.4 397.873;"
   xml:space="preserve"
   id="svg2"
   inkscape:version="0.91 r13725"
   sodipodi:docname="icon-masspayments2.svg"><metadata
     id="metadata74"><rdf:RDF><cc:Work
         rdf:about=""><dc:format>image/svg+xml</dc:format><dc:type
           rdf:resource="http://purl.org/dc/dcmitype/StillImage" /><dc:title /></cc:Work></rdf:RDF></metadata><defs
     id="defs72"><defs
       id="defs54"><polygon
         points="55.302,70.637 0,197.282 459.4,197.282 404.097,70.637 "
         id="XMLID_208_" /></defs><clipPath
       id="XMLID_263_"><use
         height="100%"
         width="100%"
         y="0"
         x="0"
         id="use58"
         style="overflow:visible"
         xlink:href="#XMLID_208_" /></clipPath><defs
       id="defs45"><polygon
         points="55.307,96.99 -0.008,223.666 459.409,223.666 404.093,96.99 "
         id="XMLID_219_" /></defs><clipPath
       id="XMLID_262_"><use
         height="100%"
         width="100%"
         y="0"
         x="0"
         id="use49"
         style="overflow:visible"
         xlink:href="#XMLID_219_" /></clipPath><defs
       id="defs34"><polygon
         points="55.302,121.476 0,248.123 459.4,248.123 404.097,121.476 "
         id="XMLID_225_" /></defs><clipPath
       id="XMLID_261_"><use
         height="100%"
         width="100%"
         y="0"
         x="0"
         id="use38"
         style="overflow:visible"
         xlink:href="#XMLID_225_" /></clipPath><defs
       id="defs25"><polygon
         points="55.307,147.829 -0.008,274.506 459.409,274.506 404.093,147.829 "
         id="XMLID_242_" /></defs><clipPath
       id="XMLID_260_"><use
         height="100%"
         width="100%"
         y="0"
         x="0"
         id="use29"
         style="overflow:visible"
         xlink:href="#XMLID_242_" /></clipPath><defs
       id="defs16"><polygon
         points="55.307,174.218 -0.008,300.895 459.409,300.895 404.093,174.218 "
         id="XMLID_248_" /></defs><clipPath
       id="XMLID_259_"><use
         height="100%"
         width="100%"
         y="0"
         x="0"
         id="use20"
         style="overflow:visible"
         xlink:href="#XMLID_248_" /></clipPath><defs
       id="defs7"><polygon
         points="55.307,200.558 -0.008,327.235 459.409,327.235 404.093,200.558 "
         id="XMLID_254_" /></defs><clipPath
       id="XMLID_121_"><use
         height="100%"
         width="100%"
         y="0"
         x="0"
         id="use11"
         style="overflow:visible"
         xlink:href="#XMLID_254_" /></clipPath></defs><sodipodi:namedview
     pagecolor="#ffffff"
     bordercolor="#666666"
     borderopacity="1"
     objecttolerance="10"
     gridtolerance="10"
     guidetolerance="10"
     inkscape:pageopacity="0"
     inkscape:pageshadow="2"
     inkscape:window-width="2560"
     inkscape:window-height="1390"
     id="namedview70"
     showgrid="false"
     inkscape:zoom="1.0840227"
     inkscape:cx="5.7242386"
     inkscape:cy="234.03577"
     inkscape:window-x="0"
     inkscape:window-y="0"
     inkscape:window-maximized="1"
     inkscape:current-layer="svg2" /><path
     inkscape:connector-curvature="0"
     clip-path="url(#XMLID_121_)"
     d="m 26.368,319.155 c -1.557,0 -2.953,-0.215 -4.144,-0.606 -1.188,-0.389 -2.171,-0.952 -2.903,-1.647 -0.73,-0.692 -1.211,-1.514 -1.401,-2.424 -0.189,-0.907 -0.089,-1.901 0.342,-2.941 L 60.275,210.13 c 0.276,-0.666 0.785,-1.297 1.469,-1.869 0.682,-0.571 1.539,-1.083 2.512,-1.512 0.972,-0.429 2.06,-0.774 3.209,-1.013 1.148,-0.238 2.357,-0.37 3.571,-0.37 l 317.328,0 c 1.214,0 2.423,0.132 3.571,0.37 1.148,0.239 2.237,0.584 3.208,1.013 0.974,0.429 1.83,0.941 2.513,1.512 0.684,0.572 1.193,1.203 1.469,1.869 l 42.013,101.407 c 0.431,1.04 0.531,2.034 0.342,2.941 -0.19,0.91 -0.671,1.732 -1.401,2.424 -0.733,0.695 -1.715,1.258 -2.904,1.647 -1.19,0.391 -2.586,0.606 -4.143,0.606 l -406.664,0 m 360.108,-118.597 -313.552,0 c -2.432,0 -4.855,0.262 -7.159,0.738 -2.309,0.476 -4.503,1.167 -6.467,2.024 -1.974,0.86 -3.719,1.889 -5.118,3.036 -1.407,1.153 -2.465,2.428 -3.053,3.774 L 6.846,311.537 c -0.922,2.111 -1.172,4.139 -0.828,5.997 0.346,1.871 1.294,3.569 2.762,5.003 1.476,1.442 3.474,2.615 5.905,3.428 2.44,0.817 5.308,1.269 8.511,1.269 l 413.008,0 c 3.203,0 6.071,-0.452 8.51,-1.269 2.432,-0.813 4.43,-1.986 5.906,-3.428 1.467,-1.434 2.415,-3.132 2.762,-5.003 0.343,-1.858 0.093,-3.886 -0.828,-5.997 L 408.272,210.13 c -0.587,-1.346 -1.646,-2.621 -3.053,-3.774 -1.399,-1.147 -3.144,-2.176 -5.117,-3.036 -1.965,-0.857 -4.159,-1.548 -6.468,-2.024 -2.303,-0.476 -4.726,-0.738 -7.158,-0.738"
     style="fill:#d6e3ee"
     id="XMLID_255_" /><path
     inkscape:connector-curvature="0"
     clip-path="url(#XMLID_259_)"
     d="m 26.382,292.778 c -1.556,0 -2.952,-0.216 -4.143,-0.605 -1.189,-0.389 -2.172,-0.951 -2.905,-1.643 -0.731,-0.69 -1.214,-1.508 -1.405,-2.413 -0.191,-0.902 -0.094,-1.889 0.333,-2.92 L 60.285,183.766 c 0.275,-0.665 0.784,-1.296 1.469,-1.868 0.682,-0.571 1.538,-1.083 2.512,-1.512 0.971,-0.428 2.059,-0.774 3.208,-1.012 1.148,-0.239 2.357,-0.37 3.571,-0.37 l 317.31,0 c 1.214,0 2.423,0.131 3.57,0.37 1.149,0.238 2.238,0.584 3.209,1.012 0.973,0.429 1.83,0.941 2.512,1.512 0.684,0.572 1.194,1.203 1.469,1.868 l 42.023,101.431 c 0.427,1.031 0.524,2.018 0.333,2.92 -0.192,0.905 -0.674,1.723 -1.405,2.413 -0.734,0.692 -1.716,1.254 -2.905,1.643 -1.191,0.389 -2.587,0.605 -4.143,0.605 l -406.636,0 m 360.094,-118.56 -313.552,0 c -2.432,0 -4.854,0.261 -7.157,0.734 -2.308,0.475 -4.501,1.163 -6.465,2.017 -1.972,0.857 -3.715,1.883 -5.113,3.028 -1.406,1.151 -2.464,2.424 -3.052,3.769 L 6.846,285.197 c -0.918,2.102 -1.166,4.125 -0.821,5.981 0.347,1.87 1.294,3.568 2.761,5.005 1.475,1.444 3.471,2.62 5.902,3.437 2.438,0.819 5.305,1.274 8.508,1.274 l 413.008,0 c 3.203,0 6.07,-0.455 8.508,-1.274 2.431,-0.817 4.427,-1.993 5.902,-3.437 1.466,-1.437 2.414,-3.135 2.761,-5.005 0.344,-1.856 0.096,-3.879 -0.821,-5.981 L 408.262,183.766 c -0.587,-1.345 -1.645,-2.618 -3.051,-3.769 -1.398,-1.145 -3.142,-2.171 -5.114,-3.028 -1.963,-0.854 -4.156,-1.542 -6.464,-2.017 -2.303,-0.473 -4.725,-0.734 -7.157,-0.734"
     style="fill:#d6e3ee"
     id="XMLID_249_" /><path
     inkscape:connector-curvature="0"
     clip-path="url(#XMLID_260_)"
     d="m 26.368,266.428 c -1.557,0 -2.953,-0.216 -4.144,-0.607 -1.188,-0.389 -2.171,-0.952 -2.903,-1.646 -0.73,-0.693 -1.211,-1.515 -1.401,-2.425 -0.189,-0.907 -0.089,-1.901 0.342,-2.941 l 42.023,-101.43 c 0.273,-0.66 0.781,-1.288 1.465,-1.859 0.681,-0.57 1.538,-1.083 2.512,-1.513 0.972,-0.43 2.061,-0.778 3.211,-1.018 1.148,-0.24 2.358,-0.373 3.572,-0.373 l 317.31,0 c 1.214,0 2.424,0.133 3.572,0.373 1.149,0.24 2.239,0.588 3.21,1.018 0.974,0.43 1.831,0.943 2.513,1.513 0.684,0.571 1.192,1.199 1.465,1.859 l 42.023,101.43 c 0.431,1.04 0.531,2.034 0.342,2.941 -0.19,0.91 -0.671,1.732 -1.401,2.425 -0.733,0.694 -1.715,1.257 -2.904,1.646 -1.19,0.391 -2.586,0.607 -4.143,0.607 l -406.664,0 m 360.108,-118.598 -313.552,0 c -2.432,0 -4.855,0.263 -7.158,0.738 -2.309,0.476 -4.503,1.166 -6.467,2.021 -1.973,0.859 -3.717,1.886 -5.115,3.029 -1.405,1.151 -2.462,2.421 -3.047,3.761 L 6.846,258.809 c -0.922,2.111 -1.172,4.139 -0.828,5.997 0.346,1.871 1.294,3.569 2.762,5.003 1.476,1.442 3.474,2.615 5.905,3.429 2.44,0.816 5.308,1.268 8.511,1.268 l 413.008,0 c 3.203,0 6.071,-0.452 8.51,-1.268 2.432,-0.814 4.43,-1.987 5.906,-3.429 1.467,-1.434 2.415,-3.132 2.762,-5.003 0.343,-1.858 0.093,-3.886 -0.828,-5.997 l -44.292,-101.43 c -0.585,-1.34 -1.641,-2.61 -3.047,-3.761 -1.397,-1.143 -3.142,-2.17 -5.114,-3.029 -1.964,-0.855 -4.158,-1.545 -6.467,-2.021 -2.303,-0.475 -4.726,-0.738 -7.158,-0.738"
     style="fill:#d6e3ee"
     id="XMLID_243_" /><path
     inkscape:connector-curvature="0"
     clip-path="url(#XMLID_261_)"
     d="m 26.375,240.045 c -1.557,0 -2.953,-0.216 -4.144,-0.606 -1.188,-0.39 -2.17,-0.953 -2.903,-1.647 -0.73,-0.692 -1.211,-1.514 -1.401,-2.425 -0.189,-0.906 -0.088,-1.9 0.342,-2.94 L 60.28,131.026 c 0.275,-0.665 0.784,-1.296 1.469,-1.869 0.682,-0.57 1.538,-1.083 2.512,-1.512 0.971,-0.428 2.06,-0.774 3.208,-1.012 1.148,-0.239 2.357,-0.37 3.571,-0.37 l 317.319,0 c 1.214,0 2.423,0.131 3.571,0.37 1.149,0.238 2.237,0.584 3.208,1.012 0.974,0.429 1.83,0.942 2.513,1.512 0.684,0.573 1.193,1.204 1.469,1.869 l 42.01,101.401 c 0.431,1.04 0.531,2.034 0.342,2.94 -0.19,0.911 -0.671,1.733 -1.401,2.425 -0.732,0.694 -1.715,1.257 -2.903,1.647 -1.191,0.39 -2.587,0.606 -4.143,0.606 l -406.65,0 m 360.106,-118.568 -313.562,0 c -2.431,0 -4.854,0.261 -7.157,0.734 -2.308,0.475 -4.501,1.163 -6.465,2.017 -1.972,0.857 -3.716,1.883 -5.114,3.028 -1.406,1.151 -2.463,2.425 -3.051,3.77 L 6.854,232.427 c -0.921,2.111 -1.171,4.138 -0.827,5.996 0.346,1.872 1.294,3.569 2.762,5.003 1.476,1.442 3.473,2.615 5.905,3.428 2.439,0.816 5.308,1.269 8.511,1.269 l 412.992,0 c 3.203,0 6.071,-0.453 8.51,-1.269 2.432,-0.813 4.43,-1.986 5.905,-3.428 1.468,-1.434 2.416,-3.131 2.762,-5.003 0.344,-1.858 0.094,-3.885 -0.827,-5.996 L 408.268,131.026 c -0.588,-1.345 -1.645,-2.619 -3.051,-3.77 -1.398,-1.145 -3.142,-2.171 -5.114,-3.028 -1.964,-0.854 -4.157,-1.542 -6.465,-2.017 -2.304,-0.473 -4.726,-0.734 -7.157,-0.734"
     style="fill:#d6e3ee"
     id="XMLID_235_" /><path
     inkscape:connector-curvature="0"
     clip-path="url(#XMLID_262_)"
     d="m 26.368,215.587 c -1.557,0 -2.953,-0.216 -4.144,-0.606 -1.188,-0.389 -2.171,-0.952 -2.903,-1.647 -0.73,-0.692 -1.211,-1.514 -1.401,-2.424 -0.189,-0.907 -0.089,-1.901 0.342,-2.941 L 60.285,106.538 c 0.273,-0.659 0.781,-1.287 1.465,-1.858 0.681,-0.57 1.538,-1.083 2.512,-1.513 0.972,-0.43 2.061,-0.778 3.211,-1.018 1.148,-0.24 2.358,-0.373 3.572,-0.373 l 317.31,0 c 1.214,0 2.424,0.133 3.572,0.373 1.149,0.24 2.239,0.588 3.21,1.018 0.974,0.43 1.831,0.943 2.513,1.513 0.684,0.571 1.192,1.199 1.465,1.858 l 42.023,101.431 c 0.431,1.04 0.531,2.034 0.342,2.941 -0.19,0.91 -0.671,1.732 -1.401,2.424 -0.733,0.695 -1.715,1.258 -2.904,1.647 -1.19,0.39 -2.586,0.606 -4.143,0.606 l -406.664,0 M 386.476,96.99 l -313.552,0 c -2.432,0 -4.855,0.262 -7.158,0.738 -2.309,0.475 -4.503,1.166 -6.467,2.021 -1.973,0.859 -3.717,1.885 -5.115,3.029 -1.405,1.15 -2.462,2.421 -3.047,3.76 L 6.846,207.969 c -0.922,2.111 -1.172,4.138 -0.828,5.997 0.346,1.871 1.294,3.569 2.762,5.003 1.476,1.442 3.474,2.615 5.905,3.428 2.44,0.817 5.308,1.269 8.511,1.269 l 413.008,0 c 3.203,0 6.071,-0.452 8.51,-1.269 2.432,-0.813 4.43,-1.986 5.906,-3.428 1.467,-1.434 2.415,-3.132 2.762,-5.003 0.343,-1.859 0.093,-3.886 -0.828,-5.997 L 408.262,106.538 c -0.585,-1.339 -1.641,-2.61 -3.047,-3.76 -1.397,-1.144 -3.142,-2.17 -5.114,-3.029 -1.964,-0.855 -4.158,-1.546 -6.467,-2.021 -2.303,-0.476 -4.726,-0.738 -7.158,-0.738"
     style="fill:#d6e3ee"
     id="XMLID_220_" /><path
     inkscape:connector-curvature="0"
     clip-path="url(#XMLID_263_)"
     d="m 26.375,189.205 c -1.557,0 -2.953,-0.216 -4.144,-0.606 -1.188,-0.39 -2.17,-0.953 -2.903,-1.647 -0.73,-0.692 -1.211,-1.514 -1.401,-2.424 -0.189,-0.907 -0.088,-1.901 0.342,-2.941 L 60.281,80.186 c 0.275,-0.665 0.784,-1.296 1.469,-1.869 0.682,-0.57 1.538,-1.083 2.512,-1.512 0.971,-0.428 2.06,-0.774 3.208,-1.012 1.148,-0.239 2.357,-0.37 3.571,-0.37 l 317.319,0 c 1.214,0 2.423,0.131 3.571,0.37 1.149,0.238 2.237,0.584 3.208,1.012 0.974,0.429 1.83,0.942 2.513,1.512 0.684,0.573 1.193,1.204 1.469,1.869 l 42.01,101.401 c 0.431,1.04 0.531,2.034 0.342,2.941 -0.19,0.91 -0.671,1.732 -1.401,2.424 -0.732,0.694 -1.715,1.257 -2.903,1.647 -1.191,0.39 -2.587,0.606 -4.143,0.606 l -406.651,0 m 360.106,-118.568 -313.562,0 c -2.431,0 -4.854,0.261 -7.157,0.734 -2.308,0.475 -4.501,1.163 -6.465,2.017 -1.972,0.857 -3.716,1.883 -5.114,3.028 -1.406,1.151 -2.463,2.425 -3.051,3.77 L 6.854,181.587 c -0.921,2.111 -1.171,4.138 -0.827,5.996 0.346,1.872 1.294,3.569 2.762,5.003 1.476,1.442 3.473,2.615 5.905,3.428 2.439,0.817 5.308,1.269 8.511,1.269 l 412.992,0 c 3.203,0 6.071,-0.452 8.51,-1.269 2.432,-0.813 4.43,-1.986 5.905,-3.428 1.468,-1.434 2.416,-3.131 2.762,-5.003 0.344,-1.858 0.094,-3.885 -0.827,-5.996 L 408.268,80.186 c -0.588,-1.345 -1.645,-2.619 -3.051,-3.77 -1.398,-1.145 -3.142,-2.171 -5.114,-3.028 -1.964,-0.854 -4.157,-1.542 -6.465,-2.017 -2.304,-0.473 -4.726,-0.734 -7.157,-0.734"
     style="fill:#d6e3ee"
     id="XMLID_214_" /><path
     inkscape:connector-curvature="0"
     clip-path="url(#XMLID_263_)"
     d="m 227.477,125.708 0.011,7.978 c 1.232,-0.104 2.31,-0.261 3.232,-0.472 0.921,-0.211 1.687,-0.476 2.298,-0.795 0.61,-0.318 1.065,-0.69 1.365,-1.117 0.299,-0.425 0.444,-0.904 0.434,-1.436 -0.004,-0.24 -0.041,-0.471 -0.11,-0.692 -0.068,-0.22 -0.169,-0.431 -0.301,-0.63 -0.132,-0.199 -0.294,-0.387 -0.487,-0.563 -0.193,-0.176 -0.416,-0.34 -0.669,-0.492 -0.252,-0.151 -0.561,-0.301 -0.927,-0.449 -0.366,-0.149 -0.788,-0.296 -1.269,-0.443 -0.48,-0.147 -1.018,-0.295 -1.614,-0.443 -0.596,-0.147 -1.25,-0.296 -1.963,-0.446 m -4.228,-11.681 c -0.544,0.054 -1.054,0.118 -1.53,0.194 -0.476,0.076 -0.919,0.162 -1.329,0.261 -0.41,0.099 -0.786,0.209 -1.131,0.333 -0.345,0.123 -0.658,0.26 -0.939,0.41 -0.281,0.15 -0.528,0.309 -0.741,0.477 -0.212,0.168 -0.391,0.346 -0.534,0.532 -0.144,0.187 -0.253,0.384 -0.328,0.591 -0.074,0.206 -0.114,0.423 -0.119,0.651 -0.006,0.241 0.021,0.473 0.079,0.693 0.059,0.221 0.149,0.43 0.27,0.628 0.122,0.198 0.274,0.384 0.457,0.556 0.183,0.174 0.397,0.334 0.64,0.48 0.243,0.153 0.534,0.305 0.871,0.455 0.336,0.15 0.72,0.297 1.149,0.442 0.43,0.146 0.905,0.288 1.426,0.428 0.521,0.14 1.087,0.277 1.698,0.41 l 0.061,-7.541 m -0.161,19.866 0.073,-9.013 c -1.147,-0.221 -2.205,-0.449 -3.174,-0.684 -0.968,-0.235 -1.848,-0.477 -2.64,-0.727 -0.792,-0.249 -1.498,-0.507 -2.118,-0.772 -0.62,-0.265 -1.154,-0.538 -1.606,-0.819 -0.45,-0.289 -0.841,-0.596 -1.172,-0.922 -0.331,-0.326 -0.603,-0.671 -0.816,-1.036 -0.213,-0.364 -0.368,-0.747 -0.466,-1.15 -0.098,-0.403 -0.138,-0.825 -0.123,-1.267 0.015,-0.427 0.1,-0.833 0.252,-1.218 0.152,-0.385 0.372,-0.749 0.659,-1.094 0.287,-0.345 0.641,-0.67 1.061,-0.977 0.42,-0.306 0.905,-0.594 1.456,-0.865 0.562,-0.264 1.165,-0.502 1.812,-0.715 0.645,-0.212 1.334,-0.399 2.066,-0.561 0.731,-0.162 1.506,-0.298 2.326,-0.409 0.819,-0.11 1.683,-0.196 2.592,-0.256 l 0.028,-3.41 4.154,0 0.005,3.383 c 0.989,0.013 1.973,0.053 2.95,0.12 0.977,0.066 1.947,0.158 2.91,0.276 0.963,0.117 1.919,0.261 2.865,0.428 0.948,0.167 1.886,0.36 2.815,0.576 l -1.648,2.526 c -0.816,-0.191 -1.635,-0.363 -2.455,-0.516 -0.819,-0.153 -1.641,-0.287 -2.465,-0.401 -0.823,-0.114 -1.649,-0.208 -2.477,-0.282 -0.828,-0.075 -1.659,-0.129 -2.492,-0.163 l 0.012,8.468 c 0.873,0.169 1.691,0.337 2.453,0.503 0.763,0.166 1.47,0.33 2.121,0.493 0.653,0.163 1.249,0.324 1.789,0.484 0.541,0.159 1.026,0.318 1.455,0.474 0.441,0.157 0.854,0.32 1.237,0.491 0.384,0.17 0.739,0.348 1.067,0.532 0.328,0.184 0.628,0.374 0.901,0.571 0.273,0.196 0.519,0.399 0.739,0.607 0.208,0.208 0.393,0.428 0.553,0.658 0.161,0.23 0.298,0.472 0.41,0.725 0.111,0.253 0.198,0.517 0.26,0.792 0.061,0.276 0.096,0.563 0.105,0.861 0.014,0.466 -0.044,0.913 -0.176,1.341 -0.132,0.429 -0.336,0.838 -0.614,1.228 -0.278,0.39 -0.63,0.761 -1.055,1.111 -0.427,0.352 -0.926,0.683 -1.5,0.995 -0.574,0.305 -1.207,0.584 -1.899,0.836 -0.693,0.252 -1.444,0.477 -2.255,0.673 -0.811,0.196 -1.68,0.364 -2.609,0.501 -0.929,0.137 -1.916,0.244 -2.962,0.319 l 0.007,4.973 -4.473,0 0.038,-4.763 c -0.644,0 -1.283,-0.008 -1.915,-0.023 -0.633,-0.016 -1.259,-0.039 -1.879,-0.071 -0.62,-0.032 -1.233,-0.072 -1.84,-0.121 -0.607,-0.05 -1.208,-0.108 -1.802,-0.175 -0.606,-0.06 -1.182,-0.126 -1.728,-0.197 -0.547,-0.072 -1.064,-0.15 -1.553,-0.234 -0.489,-0.084 -0.95,-0.175 -1.386,-0.272 -0.435,-0.098 -0.843,-0.202 -1.228,-0.314 l 0.121,-3.261 c 0.465,0.126 0.948,0.247 1.451,0.364 0.502,0.117 1.023,0.229 1.562,0.337 0.54,0.106 1.098,0.208 1.675,0.303 0.577,0.095 1.173,0.184 1.786,0.265 0.615,0.082 1.217,0.152 1.807,0.212 0.591,0.06 1.168,0.109 1.733,0.147 0.564,0.039 1.115,0.068 1.652,0.087 0.537,0.019 1.06,0.028 1.568,0.028 m 3.77,-41.417 c -7.529,0 -14.733,0.854 -21.35,2.408 -6.667,1.565 -12.783,3.851 -18.054,6.708 -5.343,2.897 -9.847,6.396 -13.182,10.349 -3.395,4.024 -5.592,8.534 -6.217,13.367 -0.639,4.937 0.42,9.741 2.929,14.198 2.558,4.543 6.613,8.71 11.877,12.267 5.344,3.61 11.905,6.571 19.347,8.638 7.506,2.085 15.852,3.245 24.654,3.245 8.788,0 17.124,-1.16 24.623,-3.245 7.435,-2.067 13.991,-5.028 19.332,-8.638 5.261,-3.557 9.314,-7.724 11.871,-12.267 2.509,-4.457 3.568,-9.261 2.929,-14.198 -0.626,-4.833 -2.822,-9.343 -6.217,-13.367 -3.334,-3.953 -7.836,-7.452 -13.176,-10.349 -5.269,-2.857 -11.381,-5.143 -18.041,-6.708 -6.611,-1.554 -13.807,-2.408 -21.325,-2.408"
     style="fill:#d6e3ee"
     id="XMLID_209_" /><path
     id="XMLID_206_"
     style="fill:#d6e3ee"
     d="m 307.086,292.732 -160.5,0 c -0.779,0 -1.417,-0.638 -1.417,-1.417 l 0,-66.582 c 0,-0.779 0.638,-1.417 1.417,-1.417 l 160.499,0 c 0.78,0 1.417,0.638 1.417,1.417 l 0,66.582 c 10e-4,0.779 -0.637,1.417 -1.416,1.417"
     inkscape:connector-curvature="0" /><path
     id="XMLID_203_"
     style="fill:#4f8cc6"
     d="m 202.058,251.03 c 0,3.68 -1.15,6.498 -3.454,8.447 -2.3,1.952 -5.572,2.927 -9.818,2.927 l -3.112,0 0,12.17 -7.256,0 0,-34.219 10.93,0 c 4.151,0 7.307,0.895 9.467,2.681 2.163,1.786 3.243,4.45 3.243,7.994 m -16.384,5.428 2.387,0 c 2.23,0 3.901,-0.441 5.009,-1.323 1.106,-0.882 1.662,-2.163 1.662,-3.85 0,-1.7 -0.463,-2.955 -1.393,-3.767 -0.927,-0.811 -2.384,-1.217 -4.365,-1.217 l -3.3,0 0,10.157 z"
     inkscape:connector-curvature="0" /><path
     id="XMLID_200_"
     style="fill:#4f8cc6"
     d="m 234.258,274.575 -2.479,-8.144 -12.477,0 -2.479,8.144 -7.819,0 12.078,-34.36 8.869,0 12.125,34.36 -7.818,0 z m -4.211,-14.232 c -2.294,-7.38 -3.588,-11.553 -3.876,-12.521 -0.287,-0.968 -0.495,-1.732 -0.619,-2.294 -0.515,1.997 -1.988,6.936 -4.422,14.815 l 8.917,0 z"
     inkscape:connector-curvature="0" /><polygon
     id="XMLID_199_"
     style="fill:#4f8cc6"
     points="265.432,274.575 258.221,274.575 258.221,261.491 246.869,240.356 254.735,240.356 261.825,254.445 268.966,240.356 276.781,240.356 265.432,261.257 " /><g
     id="Layer_2" /><g
     id="Layer_3" /><g
     id="Layer_4" /></svg>