<?xml version="1.0" encoding="iso-8859-1"?>
<!-- Generator: Adobe Illustrator 19.0.0, SVG Export Plug-In . SVG Version: 6.00 Build 0)  -->
<svg version="1.1" xmlns="http://www.w3.org/2000/svg" xmlns:xlink="http://www.w3.org/1999/xlink" x="0px" y="0px"
	 viewBox="0 0 459.4 397.873" style="enable-background:new 0 0 459.4 397.873;" xml:space="preserve">
<g id="Layer_1">
	<g id="XMLID_198_">
		<g id="XMLID_253_">
			<defs>
				<polygon id="XMLID_254_" points="55.307,200.558 -0.008,327.235 459.409,327.235 404.093,200.558 				"/>
			</defs>
			<clipPath id="XMLID_121_">
				<use xlink:href="#XMLID_254_"  style="overflow:visible;"/>
			</clipPath>
			<path id="XMLID_258_" style="clip-path:url(#XMLID_121_);fill:#4F8CC6;" d="M388.364,205.367H71.037
				c-1.215,0-2.424,0.132-3.571,0.37c-1.149,0.238-2.238,0.584-3.209,1.013c-0.974,0.429-1.83,0.941-2.512,1.512
				c-0.685,0.572-1.194,1.203-1.469,1.868L18.263,311.538c-0.431,1.04-0.532,2.034-0.343,2.941c0.19,0.91,0.671,1.732,1.401,2.424
				c0.733,0.694,1.715,1.257,2.904,1.647c1.19,0.39,2.586,0.606,4.143,0.606h406.665c1.556,0,2.952-0.216,4.143-0.606
				c1.189-0.39,2.171-0.953,2.903-1.647c0.731-0.692,1.212-1.514,1.401-2.424c0.189-0.907,0.089-1.901-0.342-2.941L399.125,210.13
				c-0.275-0.665-0.785-1.296-1.469-1.868c-0.682-0.571-1.539-1.083-2.512-1.512c-0.972-0.429-2.06-0.775-3.209-1.013
				C390.788,205.499,389.579,205.367,388.364,205.367"/>
			<path id="XMLID_255_" style="clip-path:url(#XMLID_121_);fill:#D6E3EE;" d="M26.368,319.155c-1.557,0-2.953-0.215-4.144-0.606
				c-1.188-0.389-2.171-0.952-2.903-1.647c-0.73-0.692-1.211-1.514-1.401-2.424c-0.189-0.907-0.089-1.901,0.342-2.941L60.275,210.13
				c0.276-0.666,0.785-1.297,1.469-1.869c0.682-0.571,1.539-1.083,2.512-1.512c0.972-0.429,2.06-0.774,3.209-1.013
				c1.148-0.238,2.357-0.37,3.571-0.37h317.328c1.214,0,2.423,0.132,3.571,0.37c1.148,0.239,2.237,0.584,3.208,1.013
				c0.974,0.429,1.83,0.941,2.513,1.512c0.684,0.572,1.193,1.203,1.469,1.869l42.013,101.407c0.431,1.04,0.531,2.034,0.342,2.941
				c-0.19,0.91-0.671,1.732-1.401,2.424c-0.733,0.695-1.715,1.258-2.904,1.647c-1.19,0.391-2.586,0.606-4.143,0.606H26.368
				 M386.476,200.558H72.924c-2.432,0-4.855,0.262-7.159,0.738c-2.309,0.476-4.503,1.167-6.467,2.024
				c-1.974,0.86-3.719,1.889-5.118,3.036c-1.407,1.153-2.465,2.428-3.053,3.774L6.846,311.537c-0.922,2.111-1.172,4.139-0.828,5.997
				c0.346,1.871,1.294,3.569,2.762,5.003c1.476,1.442,3.474,2.615,5.905,3.428c2.44,0.817,5.308,1.269,8.511,1.269h413.008
				c3.203,0,6.071-0.452,8.51-1.269c2.432-0.813,4.43-1.986,5.906-3.428c1.467-1.434,2.415-3.132,2.762-5.003
				c0.343-1.858,0.093-3.886-0.828-5.997L408.272,210.13c-0.587-1.346-1.646-2.621-3.053-3.774
				c-1.399-1.147-3.144-2.176-5.117-3.036c-1.965-0.857-4.159-1.548-6.468-2.024C391.331,200.82,388.908,200.558,386.476,200.558"/>
		</g>
		<g id="XMLID_247_">
			<defs>
				<polygon id="XMLID_248_" points="55.307,174.218 -0.008,300.895 459.409,300.895 404.093,174.218 				"/>
			</defs>
			<clipPath id="XMLID_259_">
				<use xlink:href="#XMLID_248_"  style="overflow:visible;"/>
			</clipPath>
			<path id="XMLID_252_" style="clip-path:url(#XMLID_259_);fill:#4F8CC6;" d="M388.355,179.004H71.046
				c-1.215,0-2.424,0.132-3.571,0.37c-1.149,0.238-2.238,0.584-3.209,1.012c-0.973,0.43-1.83,0.942-2.512,1.512
				c-0.684,0.573-1.193,1.204-1.469,1.869L18.262,285.198c-0.426,1.03-0.524,2.017-0.333,2.919c0.192,0.905,0.674,1.724,1.405,2.414
				c0.734,0.691,1.716,1.253,2.905,1.642c1.191,0.39,2.587,0.606,4.144,0.606h406.635c1.556,0,2.952-0.216,4.143-0.606
				c1.189-0.389,2.172-0.951,2.905-1.642c0.731-0.69,1.214-1.509,1.406-2.414c0.191-0.902,0.093-1.889-0.334-2.919l-42.023-101.431
				c-0.275-0.665-0.784-1.296-1.468-1.869c-0.683-0.57-1.539-1.082-2.513-1.512c-0.971-0.428-2.059-0.774-3.208-1.012
				C390.778,179.136,389.569,179.004,388.355,179.004"/>
			<path id="XMLID_249_" style="clip-path:url(#XMLID_259_);fill:#D6E3EE;" d="M26.382,292.778c-1.556,0-2.952-0.216-4.143-0.605
				c-1.189-0.389-2.172-0.951-2.905-1.643c-0.731-0.69-1.214-1.508-1.405-2.413c-0.191-0.902-0.094-1.889,0.333-2.92l42.023-101.431
				c0.275-0.665,0.784-1.296,1.469-1.868c0.682-0.571,1.538-1.083,2.512-1.512c0.971-0.428,2.059-0.774,3.208-1.012
				c1.148-0.239,2.357-0.37,3.571-0.37h317.31c1.214,0,2.423,0.131,3.57,0.37c1.149,0.238,2.238,0.584,3.209,1.012
				c0.973,0.429,1.83,0.941,2.512,1.512c0.684,0.572,1.194,1.203,1.469,1.868l42.023,101.431c0.427,1.031,0.524,2.018,0.333,2.92
				c-0.192,0.905-0.674,1.723-1.405,2.413c-0.734,0.692-1.716,1.254-2.905,1.643c-1.191,0.389-2.587,0.605-4.143,0.605H26.382
				 M386.476,174.218H72.924c-2.432,0-4.854,0.261-7.157,0.734c-2.308,0.475-4.501,1.163-6.465,2.017
				c-1.972,0.857-3.715,1.883-5.113,3.028c-1.406,1.151-2.464,2.424-3.052,3.769L6.846,285.197
				c-0.918,2.102-1.166,4.125-0.821,5.981c0.347,1.87,1.294,3.568,2.761,5.005c1.475,1.444,3.471,2.62,5.902,3.437
				c2.438,0.819,5.305,1.274,8.508,1.274h413.008c3.203,0,6.07-0.455,8.508-1.274c2.431-0.817,4.427-1.993,5.902-3.437
				c1.466-1.437,2.414-3.135,2.761-5.005c0.344-1.856,0.096-3.879-0.821-5.981l-44.292-101.431
				c-0.587-1.345-1.645-2.618-3.051-3.769c-1.398-1.145-3.142-2.171-5.114-3.028c-1.963-0.854-4.156-1.542-6.464-2.017
				C391.33,174.479,388.908,174.218,386.476,174.218"/>
		</g>
		<g id="XMLID_241_">
			<defs>
				<polygon id="XMLID_242_" points="55.307,147.829 -0.008,274.506 459.409,274.506 404.093,147.829 				"/>
			</defs>
			<clipPath id="XMLID_260_">
				<use xlink:href="#XMLID_242_"  style="overflow:visible;"/>
			</clipPath>
			<path id="XMLID_246_" style="clip-path:url(#XMLID_260_);fill:#4F8CC6;" d="M388.355,152.616H71.046
				c-1.215,0-2.425,0.133-3.573,0.373c-1.149,0.24-2.238,0.588-3.21,1.018c-0.974,0.43-1.831,0.943-2.513,1.513
				c-0.684,0.571-1.192,1.2-1.465,1.859L18.262,258.81c-0.43,1.039-0.531,2.033-0.342,2.94c0.19,0.91,0.671,1.732,1.401,2.425
				c0.733,0.694,1.715,1.257,2.904,1.647c1.19,0.39,2.586,0.606,4.143,0.606h406.665c1.556,0,2.952-0.216,4.143-0.606
				c1.189-0.39,2.171-0.953,2.903-1.647c0.731-0.693,1.212-1.515,1.401-2.425c0.189-0.907,0.089-1.901-0.342-2.94l-42.023-101.431
				c-0.273-0.659-0.781-1.288-1.464-1.859c-0.682-0.57-1.539-1.083-2.513-1.513c-0.972-0.43-2.061-0.778-3.211-1.018
				C390.779,152.749,389.569,152.616,388.355,152.616"/>
			<path id="XMLID_243_" style="clip-path:url(#XMLID_260_);fill:#D6E3EE;" d="M26.368,266.428c-1.557,0-2.953-0.216-4.144-0.607
				c-1.188-0.389-2.171-0.952-2.903-1.646c-0.73-0.693-1.211-1.515-1.401-2.425c-0.189-0.907-0.089-1.901,0.342-2.941l42.023-101.43
				c0.273-0.66,0.781-1.288,1.465-1.859c0.681-0.57,1.538-1.083,2.512-1.513c0.972-0.43,2.061-0.778,3.211-1.018
				c1.148-0.24,2.358-0.373,3.572-0.373h317.31c1.214,0,2.424,0.133,3.572,0.373c1.149,0.24,2.239,0.588,3.21,1.018
				c0.974,0.43,1.831,0.943,2.513,1.513c0.684,0.571,1.192,1.199,1.465,1.859l42.023,101.43c0.431,1.04,0.531,2.034,0.342,2.941
				c-0.19,0.91-0.671,1.732-1.401,2.425c-0.733,0.694-1.715,1.257-2.904,1.646c-1.19,0.391-2.586,0.607-4.143,0.607H26.368
				 M386.476,147.83H72.924c-2.432,0-4.855,0.263-7.158,0.738c-2.309,0.476-4.503,1.166-6.467,2.021
				c-1.973,0.859-3.717,1.886-5.115,3.029c-1.405,1.151-2.462,2.421-3.047,3.761L6.846,258.809
				c-0.922,2.111-1.172,4.139-0.828,5.997c0.346,1.871,1.294,3.569,2.762,5.003c1.476,1.442,3.474,2.615,5.905,3.429
				c2.44,0.816,5.308,1.268,8.511,1.268h413.008c3.203,0,6.071-0.452,8.51-1.268c2.432-0.814,4.43-1.987,5.906-3.429
				c1.467-1.434,2.415-3.132,2.762-5.003c0.343-1.858,0.093-3.886-0.828-5.997l-44.292-101.43c-0.585-1.34-1.641-2.61-3.047-3.761
				c-1.397-1.143-3.142-2.17-5.114-3.029c-1.964-0.855-4.158-1.545-6.467-2.021C391.331,148.093,388.908,147.83,386.476,147.83"/>
		</g>
		<g id="XMLID_224_">
			<defs>
				<polygon id="XMLID_225_" points="55.302,121.476 0,248.123 459.4,248.123 404.097,121.476 				"/>
			</defs>
			<clipPath id="XMLID_261_">
				<use xlink:href="#XMLID_225_"  style="overflow:visible;"/>
			</clipPath>
			<path id="XMLID_238_" style="clip-path:url(#XMLID_261_);fill:#4F8CC6;" d="M229.726,214.497c-8.802,0-17.148-1.16-24.653-3.245
				c-7.443-2.068-14.004-5.029-19.348-8.638c-5.264-3.557-9.319-7.724-11.877-12.267c-2.509-4.457-3.568-9.261-2.929-14.199
				c0.625-4.832,2.822-9.342,6.217-13.366c3.335-3.953,7.839-7.453,13.182-10.349c5.271-2.858,11.387-5.143,18.053-6.708
				c6.618-1.554,13.822-2.409,21.351-2.409c7.518,0,14.714,0.855,21.325,2.409c6.66,1.565,12.772,3.85,18.041,6.708
				c5.34,2.896,9.842,6.396,13.176,10.349c3.395,4.024,5.591,8.534,6.217,13.366c0.639,4.938-0.421,9.742-2.929,14.199
				c-2.557,4.543-6.61,8.71-11.871,12.267c-5.341,3.609-11.897,6.57-19.332,8.638C246.85,213.337,238.514,214.497,229.726,214.497
				 M388.359,126.263H71.041c-1.215,0-2.424,0.132-3.571,0.37c-1.149,0.238-2.238,0.584-3.209,1.012
				c-0.973,0.43-1.83,0.942-2.512,1.513c-0.684,0.572-1.194,1.203-1.469,1.868L18.27,232.427c-0.431,1.04-0.532,2.034-0.343,2.94
				c0.19,0.911,0.671,1.733,1.401,2.425c0.733,0.694,1.715,1.257,2.904,1.647c1.19,0.39,2.586,0.606,4.143,0.606h406.65
				c1.556,0,2.952-0.216,4.143-0.606c1.189-0.39,2.171-0.953,2.903-1.647c0.731-0.692,1.212-1.514,1.401-2.425
				c0.189-0.906,0.089-1.9-0.342-2.94l-42.01-101.401c-0.276-0.665-0.785-1.296-1.469-1.868c-0.682-0.571-1.539-1.083-2.512-1.513
				c-0.972-0.428-2.06-0.774-3.209-1.012C390.783,126.395,389.574,126.263,388.359,126.263"/>
			<path id="XMLID_235_" style="clip-path:url(#XMLID_261_);fill:#D6E3EE;" d="M26.375,240.045c-1.557,0-2.953-0.216-4.144-0.606
				c-1.188-0.39-2.17-0.953-2.903-1.647c-0.73-0.692-1.211-1.514-1.401-2.425c-0.189-0.906-0.088-1.9,0.342-2.94l42.011-101.401
				c0.275-0.665,0.784-1.296,1.469-1.869c0.682-0.57,1.538-1.083,2.512-1.512c0.971-0.428,2.06-0.774,3.208-1.012
				c1.148-0.239,2.357-0.37,3.571-0.37h317.319c1.214,0,2.423,0.131,3.571,0.37c1.149,0.238,2.237,0.584,3.208,1.012
				c0.974,0.429,1.83,0.942,2.513,1.512c0.684,0.573,1.193,1.204,1.469,1.869l42.01,101.401c0.431,1.04,0.531,2.034,0.342,2.94
				c-0.19,0.911-0.671,1.733-1.401,2.425c-0.732,0.694-1.715,1.257-2.903,1.647c-1.191,0.39-2.587,0.606-4.143,0.606H26.375
				 M386.481,121.477H72.919c-2.431,0-4.854,0.261-7.157,0.734c-2.308,0.475-4.501,1.163-6.465,2.017
				c-1.972,0.857-3.716,1.883-5.114,3.028c-1.406,1.151-2.463,2.425-3.051,3.77L6.854,232.427c-0.921,2.111-1.171,4.138-0.827,5.996
				c0.346,1.872,1.294,3.569,2.762,5.003c1.476,1.442,3.473,2.615,5.905,3.428c2.439,0.816,5.308,1.269,8.511,1.269h412.992
				c3.203,0,6.071-0.453,8.51-1.269c2.432-0.813,4.43-1.986,5.905-3.428c1.468-1.434,2.416-3.131,2.762-5.003
				c0.344-1.858,0.094-3.885-0.827-5.996l-44.279-101.401c-0.588-1.345-1.645-2.619-3.051-3.77
				c-1.398-1.145-3.142-2.171-5.114-3.028c-1.964-0.854-4.157-1.542-6.465-2.017C391.334,121.738,388.912,121.477,386.481,121.477"
				/>
			<path id="XMLID_230_" style="clip-path:url(#XMLID_261_);fill:#4F8BC5;" d="M230.341,176.549l0.011,7.978
				c1.233-0.104,2.31-0.261,3.232-0.472c0.921-0.211,1.687-0.476,2.298-0.795c0.61-0.318,1.065-0.69,1.365-1.116
				c0.299-0.426,0.444-0.904,0.434-1.437c-0.004-0.24-0.041-0.471-0.11-0.692c-0.068-0.22-0.169-0.431-0.301-0.63
				c-0.131-0.199-0.294-0.387-0.487-0.563s-0.416-0.34-0.669-0.492c-0.252-0.151-0.561-0.301-0.927-0.449
				c-0.366-0.148-0.788-0.296-1.269-0.443c-0.48-0.147-1.018-0.294-1.614-0.442C231.708,176.848,231.054,176.699,230.341,176.549
				 M226.113,164.868c-0.544,0.054-1.054,0.119-1.53,0.194c-0.476,0.076-0.919,0.163-1.329,0.261
				c-0.409,0.099-0.786,0.21-1.131,0.333c-0.345,0.124-0.658,0.26-0.939,0.41c-0.281,0.15-0.528,0.309-0.741,0.477
				c-0.212,0.169-0.39,0.346-0.534,0.533c-0.144,0.187-0.253,0.383-0.328,0.59c-0.074,0.207-0.114,0.423-0.119,0.651
				c-0.006,0.241,0.021,0.473,0.079,0.693c0.059,0.221,0.149,0.431,0.27,0.628c0.122,0.198,0.274,0.384,0.457,0.557
				c0.183,0.173,0.397,0.333,0.64,0.479c0.243,0.153,0.534,0.305,0.871,0.455c0.337,0.15,0.72,0.298,1.149,0.443
				c0.43,0.145,0.905,0.288,1.426,0.427c0.521,0.14,1.087,0.277,1.698,0.411L226.113,164.868 M225.952,184.734l0.073-9.013
				c-1.147-0.221-2.205-0.449-3.174-0.684c-0.968-0.235-1.848-0.477-2.64-0.727c-0.792-0.249-1.498-0.506-2.118-0.772
				c-0.62-0.265-1.154-0.538-1.606-0.819c-0.45-0.288-0.841-0.596-1.172-0.922c-0.331-0.326-0.603-0.671-0.816-1.036
				c-0.213-0.364-0.368-0.747-0.466-1.15c-0.098-0.403-0.138-0.825-0.123-1.266c0.015-0.428,0.1-0.833,0.252-1.219
				c0.152-0.384,0.372-0.749,0.66-1.094c0.286-0.344,0.64-0.67,1.06-0.976c0.42-0.307,0.905-0.595,1.456-0.866
				c0.562-0.264,1.165-0.502,1.812-0.715c0.645-0.212,1.334-0.399,2.066-0.561c0.731-0.161,1.506-0.298,2.326-0.409
				c0.819-0.11,1.683-0.196,2.592-0.256l0.028-3.41h4.154l0.005,3.383c0.989,0.013,1.973,0.053,2.95,0.12
				c0.977,0.066,1.947,0.158,2.91,0.276c0.963,0.118,1.919,0.261,2.865,0.428c0.948,0.168,1.886,0.36,2.815,0.576l-1.648,2.526
				c-0.816-0.191-1.634-0.363-2.455-0.516c-0.819-0.153-1.641-0.287-2.465-0.4c-0.823-0.114-1.649-0.209-2.477-0.283
				s-1.658-0.129-2.492-0.163l0.012,8.468c0.873,0.169,1.691,0.337,2.453,0.503c0.763,0.166,1.47,0.33,2.122,0.493
				s1.248,0.324,1.788,0.484c0.541,0.16,1.026,0.318,1.455,0.474c0.442,0.157,0.854,0.32,1.237,0.491
				c0.384,0.17,0.739,0.348,1.067,0.532c0.328,0.184,0.628,0.374,0.901,0.571c0.273,0.196,0.519,0.399,0.739,0.607
				c0.208,0.209,0.393,0.428,0.553,0.658c0.161,0.231,0.298,0.472,0.41,0.725c0.111,0.253,0.198,0.517,0.26,0.793
				c0.061,0.275,0.096,0.562,0.105,0.86c0.014,0.466-0.044,0.914-0.176,1.341c-0.131,0.429-0.336,0.838-0.614,1.228
				c-0.278,0.39-0.63,0.761-1.055,1.112c-0.426,0.351-0.926,0.683-1.5,0.994c-0.574,0.305-1.207,0.584-1.899,0.836
				c-0.693,0.252-1.444,0.477-2.255,0.673c-0.811,0.196-1.68,0.364-2.609,0.501c-0.929,0.137-1.916,0.244-2.962,0.319l0.007,4.973
				h-4.473l0.038-4.763c-0.644,0-1.283-0.008-1.915-0.023c-0.633-0.015-1.259-0.039-1.879-0.071s-1.233-0.072-1.84-0.121
				c-0.607-0.049-1.208-0.107-1.802-0.175c-0.606-0.06-1.182-0.126-1.728-0.197c-0.547-0.072-1.063-0.149-1.553-0.234
				c-0.489-0.084-0.95-0.174-1.386-0.272c-0.435-0.098-0.843-0.202-1.227-0.314l0.12-3.26c0.465,0.125,0.949,0.246,1.451,0.363
				c0.502,0.117,1.023,0.23,1.563,0.337c0.539,0.107,1.097,0.208,1.674,0.303c0.577,0.095,1.173,0.184,1.787,0.266
				c0.614,0.081,1.216,0.151,1.806,0.211c0.591,0.06,1.168,0.109,1.733,0.148c0.564,0.039,1.116,0.067,1.652,0.086
				C224.922,184.725,225.444,184.734,225.952,184.734 M229.722,143.317c-7.529,0-14.733,0.854-21.35,2.408
				c-6.667,1.565-12.783,3.851-18.054,6.709c-5.343,2.896-9.847,6.396-13.182,10.348c-3.395,4.025-5.591,8.534-6.217,13.367
				c-0.639,4.937,0.42,9.741,2.929,14.198c2.558,4.544,6.613,8.711,11.877,12.267c5.344,3.61,11.905,6.571,19.348,8.638
				c7.505,2.085,15.851,3.246,24.653,3.246c8.788,0,17.125-1.161,24.623-3.246c7.435-2.067,13.991-5.028,19.332-8.638
				c5.261-3.556,9.314-7.723,11.871-12.267c2.509-4.457,3.568-9.261,2.929-14.198c-0.626-4.833-2.822-9.342-6.217-13.367
				c-3.334-3.952-7.836-7.452-13.176-10.348c-5.269-2.858-11.381-5.144-18.041-6.709
				C244.436,144.171,237.24,143.317,229.722,143.317"/>
			<path id="XMLID_226_" style="clip-path:url(#XMLID_261_);fill:#FFFFFF;" d="M230.352,184.526l-0.011-7.977
				c0.713,0.15,1.367,0.299,1.963,0.446c0.596,0.148,1.134,0.295,1.614,0.442c0.481,0.148,0.903,0.295,1.269,0.444
				c0.366,0.148,0.675,0.297,0.927,0.449c0.253,0.151,0.476,0.315,0.669,0.491s0.355,0.365,0.487,0.564
				c0.132,0.199,0.233,0.409,0.301,0.63c0.069,0.22,0.106,0.451,0.11,0.692c0.01,0.532-0.135,1.011-0.434,1.436
				c-0.3,0.426-0.755,0.798-1.365,1.117c-0.611,0.319-1.377,0.583-2.298,0.794C232.662,184.266,231.584,184.423,230.352,184.526
				 M226.052,172.409c-0.611-0.133-1.177-0.27-1.698-0.41c-0.521-0.14-0.996-0.283-1.426-0.428c-0.429-0.145-0.813-0.293-1.15-0.442
				c-0.336-0.15-0.627-0.302-0.87-0.455c-0.243-0.147-0.457-0.307-0.64-0.48c-0.183-0.173-0.335-0.358-0.457-0.556
				c-0.121-0.198-0.211-0.408-0.27-0.628c-0.058-0.221-0.085-0.452-0.079-0.693c0.005-0.228,0.045-0.445,0.119-0.652
				c0.075-0.206,0.184-0.403,0.328-0.59c0.143-0.187,0.322-0.364,0.534-0.532c0.213-0.168,0.46-0.327,0.741-0.477
				c0.281-0.15,0.594-0.287,0.939-0.41c0.345-0.124,0.721-0.234,1.131-0.333c0.41-0.099,0.852-0.186,1.329-0.261
				c0.476-0.076,0.986-0.14,1.53-0.195L226.052,172.409 M230.316,158.839h-4.154l-0.028,3.409c-0.909,0.061-1.773,0.146-2.592,0.257
				c-0.82,0.111-1.595,0.247-2.326,0.409c-0.732,0.161-1.421,0.348-2.067,0.561c-0.646,0.212-1.249,0.45-1.811,0.714
				c-0.551,0.271-1.036,0.56-1.456,0.866c-0.42,0.307-0.774,0.632-1.061,0.977c-0.287,0.345-0.507,0.709-0.659,1.094
				c-0.153,0.385-0.237,0.791-0.252,1.218c-0.015,0.442,0.025,0.864,0.123,1.266c0.098,0.404,0.253,0.787,0.466,1.151
				c0.213,0.365,0.485,0.71,0.816,1.036c0.331,0.326,0.722,0.633,1.172,0.921c0.452,0.282,0.986,0.555,1.606,0.82
				c0.62,0.265,1.325,0.522,2.117,0.772c0.793,0.25,1.673,0.492,2.641,0.727c0.969,0.235,2.027,0.462,3.174,0.683l-0.073,9.014
				c-0.508,0-1.031-0.009-1.568-0.028c-0.537-0.019-1.088-0.048-1.652-0.087c-0.565-0.039-1.142-0.088-1.733-0.147
				c-0.59-0.06-1.192-0.131-1.807-0.212c-0.614-0.081-1.209-0.17-1.786-0.265c-0.577-0.095-1.135-0.197-1.675-0.304
				c-0.539-0.107-1.06-0.219-1.562-0.336c-0.503-0.117-0.986-0.239-1.451-0.364l-0.121,3.26c0.385,0.112,0.793,0.217,1.228,0.315
				c0.435,0.097,0.897,0.188,1.386,0.272s1.006,0.162,1.553,0.233c0.546,0.072,1.122,0.138,1.728,0.197
				c0.594,0.068,1.195,0.126,1.802,0.175c0.607,0.05,1.22,0.09,1.84,0.122s1.246,0.055,1.878,0.071
				c0.633,0.015,1.272,0.023,1.916,0.023l-0.038,4.763h4.473l-0.007-4.974c1.046-0.075,2.033-0.181,2.962-0.318
				c0.928-0.138,1.798-0.305,2.609-0.501c0.811-0.196,1.562-0.421,2.255-0.674c0.692-0.251,1.325-0.53,1.899-0.835
				c0.574-0.312,1.074-0.643,1.499-0.995c0.426-0.351,0.778-0.722,1.056-1.112c0.278-0.39,0.482-0.799,0.614-1.227
				c0.132-0.428,0.19-0.875,0.176-1.341c-0.009-0.298-0.044-0.585-0.105-0.861c-0.062-0.275-0.149-0.539-0.26-0.792
				c-0.112-0.253-0.249-0.495-0.41-0.725c-0.16-0.231-0.345-0.45-0.553-0.658c-0.22-0.208-0.466-0.411-0.739-0.608
				c-0.273-0.196-0.573-0.387-0.901-0.57c-0.328-0.184-0.683-0.362-1.067-0.533c-0.384-0.17-0.796-0.334-1.237-0.49
				c-0.429-0.157-0.914-0.315-1.455-0.474c-0.54-0.16-1.137-0.321-1.789-0.484c-0.651-0.163-1.358-0.328-2.121-0.494
				c-0.762-0.166-1.58-0.333-2.453-0.503l-0.012-8.467c0.833,0.034,1.664,0.088,2.492,0.162c0.828,0.075,1.654,0.169,2.477,0.283
				c0.824,0.114,1.646,0.247,2.465,0.4c0.82,0.153,1.639,0.325,2.455,0.517l1.648-2.527c-0.929-0.216-1.867-0.408-2.815-0.575
				c-0.946-0.168-1.902-0.311-2.865-0.428c-0.963-0.118-1.933-0.21-2.911-0.277c-0.976-0.066-1.96-0.106-2.949-0.12L230.316,158.839
				"/>
		</g>
		<g id="XMLID_218_">
			<defs>
				<polygon id="XMLID_219_" points="55.307,96.99 -0.008,223.666 459.409,223.666 404.093,96.99 				"/>
			</defs>
			<clipPath id="XMLID_262_">
				<use xlink:href="#XMLID_219_"  style="overflow:visible;"/>
			</clipPath>
			<path id="XMLID_223_" style="clip-path:url(#XMLID_262_);fill:#4F8CC6;" d="M388.355,101.775H71.046
				c-1.215,0-2.425,0.133-3.573,0.373c-1.149,0.24-2.238,0.588-3.21,1.018c-0.974,0.431-1.831,0.943-2.513,1.513
				c-0.684,0.571-1.192,1.2-1.465,1.859L18.262,207.969c-0.43,1.039-0.531,2.033-0.342,2.94c0.19,0.91,0.671,1.732,1.401,2.425
				c0.733,0.694,1.715,1.257,2.904,1.647c1.19,0.39,2.586,0.606,4.143,0.606h406.665c1.556,0,2.952-0.216,4.143-0.606
				c1.189-0.39,2.171-0.953,2.903-1.647c0.731-0.693,1.212-1.515,1.401-2.425c0.189-0.907,0.089-1.901-0.342-2.94l-42.023-101.431
				c-0.273-0.659-0.781-1.288-1.464-1.859c-0.682-0.57-1.539-1.082-2.513-1.513c-0.972-0.43-2.061-0.778-3.211-1.018
				C390.779,101.908,389.569,101.775,388.355,101.775"/>
			<path id="XMLID_220_" style="clip-path:url(#XMLID_262_);fill:#D6E3EE;" d="M26.368,215.587c-1.557,0-2.953-0.216-4.144-0.606
				c-1.188-0.389-2.171-0.952-2.903-1.647c-0.73-0.692-1.211-1.514-1.401-2.424c-0.189-0.907-0.089-1.901,0.342-2.941
				l42.023-101.431c0.273-0.659,0.781-1.287,1.465-1.858c0.681-0.57,1.538-1.083,2.512-1.513c0.972-0.43,2.061-0.778,3.211-1.018
				c1.148-0.24,2.358-0.373,3.572-0.373h317.31c1.214,0,2.424,0.133,3.572,0.373c1.149,0.24,2.239,0.588,3.21,1.018
				c0.974,0.43,1.831,0.943,2.513,1.513c0.684,0.571,1.192,1.199,1.465,1.858l42.023,101.431c0.431,1.04,0.531,2.034,0.342,2.941
				c-0.19,0.91-0.671,1.732-1.401,2.424c-0.733,0.695-1.715,1.258-2.904,1.647c-1.19,0.39-2.586,0.606-4.143,0.606H26.368
				 M386.476,96.99H72.924c-2.432,0-4.855,0.262-7.158,0.738c-2.309,0.475-4.503,1.166-6.467,2.021
				c-1.973,0.859-3.717,1.885-5.115,3.029c-1.405,1.15-2.462,2.421-3.047,3.76L6.846,207.969c-0.922,2.111-1.172,4.138-0.828,5.997
				c0.346,1.871,1.294,3.569,2.762,5.003c1.476,1.442,3.474,2.615,5.905,3.428c2.44,0.817,5.308,1.269,8.511,1.269h413.008
				c3.203,0,6.071-0.452,8.51-1.269c2.432-0.813,4.43-1.986,5.906-3.428c1.467-1.434,2.415-3.132,2.762-5.003
				c0.343-1.859,0.093-3.886-0.828-5.997l-44.292-101.431c-0.585-1.339-1.641-2.61-3.047-3.76c-1.397-1.144-3.142-2.17-5.114-3.029
				c-1.964-0.855-4.158-1.546-6.467-2.021C391.331,97.252,388.908,96.99,386.476,96.99"/>
		</g>
		<g id="XMLID_207_">
			<defs>
				<polygon id="XMLID_208_" points="55.302,70.637 0,197.282 459.4,197.282 404.097,70.637 				"/>
			</defs>
			<clipPath id="XMLID_263_">
				<use xlink:href="#XMLID_208_"  style="overflow:visible;"/>
			</clipPath>
			<path id="XMLID_217_" style="clip-path:url(#XMLID_263_);fill:#4F8CC6;" d="M388.359,75.422H71.041
				c-1.215,0-2.424,0.132-3.571,0.37c-1.149,0.238-2.238,0.584-3.209,1.013c-0.973,0.429-1.83,0.941-2.512,1.512
				c-0.684,0.572-1.194,1.203-1.469,1.868L18.27,181.588c-0.431,1.039-0.532,2.033-0.343,2.94c0.19,0.91,0.671,1.732,1.401,2.424
				c0.733,0.694,1.715,1.257,2.904,1.647c1.19,0.39,2.586,0.606,4.143,0.606h406.65c1.556,0,2.952-0.216,4.143-0.606
				c1.189-0.39,2.171-0.953,2.903-1.647c0.731-0.692,1.212-1.514,1.401-2.424c0.189-0.907,0.089-1.901-0.342-2.94L399.12,80.186
				c-0.276-0.665-0.785-1.296-1.469-1.868c-0.682-0.571-1.539-1.083-2.512-1.512c-0.972-0.429-2.06-0.775-3.209-1.013
				C390.783,75.555,389.574,75.422,388.359,75.422"/>
			<path id="XMLID_214_" style="clip-path:url(#XMLID_263_);fill:#D6E3EE;" d="M26.375,189.205c-1.557,0-2.953-0.216-4.144-0.606
				c-1.188-0.39-2.17-0.953-2.903-1.647c-0.73-0.692-1.211-1.514-1.401-2.424c-0.189-0.907-0.088-1.901,0.342-2.941L60.281,80.186
				c0.275-0.665,0.784-1.296,1.469-1.869c0.682-0.57,1.538-1.083,2.512-1.512c0.971-0.428,2.06-0.774,3.208-1.012
				c1.148-0.239,2.357-0.37,3.571-0.37h317.319c1.214,0,2.423,0.131,3.571,0.37c1.149,0.238,2.237,0.584,3.208,1.012
				c0.974,0.429,1.83,0.942,2.513,1.512c0.684,0.573,1.193,1.204,1.469,1.869l42.01,101.401c0.431,1.04,0.531,2.034,0.342,2.941
				c-0.19,0.91-0.671,1.732-1.401,2.424c-0.732,0.694-1.715,1.257-2.903,1.647c-1.191,0.39-2.587,0.606-4.143,0.606H26.375
				 M386.481,70.637H72.919c-2.431,0-4.854,0.261-7.157,0.734c-2.308,0.475-4.501,1.163-6.465,2.017
				c-1.972,0.857-3.716,1.883-5.114,3.028c-1.406,1.151-2.463,2.425-3.051,3.77L6.854,181.587c-0.921,2.111-1.171,4.138-0.827,5.996
				c0.346,1.872,1.294,3.569,2.762,5.003c1.476,1.442,3.473,2.615,5.905,3.428c2.439,0.817,5.308,1.269,8.511,1.269h412.992
				c3.203,0,6.071-0.452,8.51-1.269c2.432-0.813,4.43-1.986,5.905-3.428c1.468-1.434,2.416-3.131,2.762-5.003
				c0.344-1.858,0.094-3.885-0.827-5.996L408.268,80.186c-0.588-1.345-1.645-2.619-3.051-3.77c-1.398-1.145-3.142-2.171-5.114-3.028
				c-1.964-0.854-4.157-1.542-6.465-2.017C391.334,70.898,388.912,70.637,386.481,70.637"/>
			<path id="XMLID_209_" style="clip-path:url(#XMLID_263_);fill:#D6E3EE;" d="M227.477,125.708l0.011,7.978
				c1.232-0.104,2.31-0.261,3.232-0.472c0.921-0.211,1.687-0.476,2.298-0.795c0.61-0.318,1.065-0.69,1.365-1.117
				c0.299-0.425,0.444-0.904,0.434-1.436c-0.004-0.24-0.041-0.471-0.11-0.692c-0.068-0.22-0.169-0.431-0.301-0.63
				c-0.132-0.199-0.294-0.387-0.487-0.563s-0.416-0.34-0.669-0.492c-0.252-0.151-0.561-0.301-0.927-0.449
				c-0.366-0.149-0.788-0.296-1.269-0.443c-0.48-0.147-1.018-0.295-1.614-0.443C228.844,126.007,228.19,125.858,227.477,125.708
				 M223.249,114.027c-0.544,0.054-1.054,0.118-1.53,0.194c-0.476,0.076-0.919,0.162-1.329,0.261
				c-0.41,0.099-0.786,0.209-1.131,0.333c-0.345,0.123-0.658,0.26-0.939,0.41c-0.281,0.15-0.528,0.309-0.741,0.477
				c-0.212,0.168-0.391,0.346-0.534,0.532c-0.144,0.187-0.253,0.384-0.328,0.591c-0.074,0.206-0.114,0.423-0.119,0.651
				c-0.006,0.241,0.021,0.473,0.079,0.693c0.059,0.221,0.149,0.43,0.27,0.628c0.122,0.198,0.274,0.384,0.457,0.556
				c0.183,0.174,0.397,0.334,0.64,0.48c0.243,0.153,0.534,0.305,0.871,0.455c0.336,0.15,0.72,0.297,1.149,0.442
				c0.43,0.146,0.905,0.288,1.426,0.428s1.087,0.277,1.698,0.41L223.249,114.027 M223.088,133.893l0.073-9.013
				c-1.147-0.221-2.205-0.449-3.174-0.684c-0.968-0.235-1.848-0.477-2.64-0.727c-0.792-0.249-1.498-0.507-2.118-0.772
				c-0.62-0.265-1.154-0.538-1.606-0.819c-0.45-0.289-0.841-0.596-1.172-0.922c-0.331-0.326-0.603-0.671-0.816-1.036
				c-0.213-0.364-0.368-0.747-0.466-1.15c-0.098-0.403-0.138-0.825-0.123-1.267c0.015-0.427,0.1-0.833,0.252-1.218
				s0.372-0.749,0.659-1.094c0.287-0.345,0.641-0.67,1.061-0.977c0.42-0.306,0.905-0.594,1.456-0.865
				c0.562-0.264,1.165-0.502,1.812-0.715c0.645-0.212,1.334-0.399,2.066-0.561c0.731-0.162,1.506-0.298,2.326-0.409
				c0.819-0.11,1.683-0.196,2.592-0.256l0.028-3.41h4.154l0.005,3.383c0.989,0.013,1.973,0.053,2.95,0.12
				c0.977,0.066,1.947,0.158,2.91,0.276c0.963,0.117,1.919,0.261,2.865,0.428c0.948,0.167,1.886,0.36,2.815,0.576l-1.648,2.526
				c-0.816-0.191-1.635-0.363-2.455-0.516c-0.819-0.153-1.641-0.287-2.465-0.401c-0.823-0.114-1.649-0.208-2.477-0.282
				c-0.828-0.075-1.659-0.129-2.492-0.163l0.012,8.468c0.873,0.169,1.691,0.337,2.453,0.503c0.763,0.166,1.47,0.33,2.121,0.493
				c0.653,0.163,1.249,0.324,1.789,0.484c0.541,0.159,1.026,0.318,1.455,0.474c0.441,0.157,0.854,0.32,1.237,0.491
				c0.384,0.17,0.739,0.348,1.067,0.532c0.328,0.184,0.628,0.374,0.901,0.571c0.273,0.196,0.519,0.399,0.739,0.607
				c0.208,0.208,0.393,0.428,0.553,0.658c0.161,0.23,0.298,0.472,0.41,0.725c0.111,0.253,0.198,0.517,0.26,0.792
				c0.061,0.276,0.096,0.563,0.105,0.861c0.014,0.466-0.044,0.913-0.176,1.341c-0.132,0.429-0.336,0.838-0.614,1.228
				c-0.278,0.39-0.63,0.761-1.055,1.111c-0.427,0.352-0.926,0.683-1.5,0.995c-0.574,0.305-1.207,0.584-1.899,0.836
				c-0.693,0.252-1.444,0.477-2.255,0.673c-0.811,0.196-1.68,0.364-2.609,0.501c-0.929,0.137-1.916,0.244-2.962,0.319l0.007,4.973
				h-4.473l0.038-4.763c-0.644,0-1.283-0.008-1.915-0.023c-0.633-0.016-1.259-0.039-1.879-0.071s-1.233-0.072-1.84-0.121
				c-0.607-0.05-1.208-0.108-1.802-0.175c-0.606-0.06-1.182-0.126-1.728-0.197c-0.547-0.072-1.064-0.15-1.553-0.234
				c-0.489-0.084-0.95-0.175-1.386-0.272c-0.435-0.098-0.843-0.202-1.228-0.314l0.121-3.261c0.465,0.126,0.948,0.247,1.451,0.364
				c0.502,0.117,1.023,0.229,1.562,0.337c0.54,0.106,1.098,0.208,1.675,0.303c0.577,0.095,1.173,0.184,1.786,0.265
				c0.615,0.082,1.217,0.152,1.807,0.212c0.591,0.06,1.168,0.109,1.733,0.147c0.564,0.039,1.115,0.068,1.652,0.087
				S222.58,133.893,223.088,133.893 M226.858,92.476c-7.529,0-14.733,0.854-21.35,2.408c-6.667,1.565-12.783,3.851-18.054,6.708
				c-5.343,2.897-9.847,6.396-13.182,10.349c-3.395,4.024-5.592,8.534-6.217,13.367c-0.639,4.937,0.42,9.741,2.929,14.198
				c2.558,4.543,6.613,8.71,11.877,12.267c5.344,3.61,11.905,6.571,19.347,8.638c7.506,2.085,15.852,3.245,24.654,3.245
				c8.788,0,17.124-1.16,24.623-3.245c7.435-2.067,13.991-5.028,19.332-8.638c5.261-3.557,9.314-7.724,11.871-12.267
				c2.509-4.457,3.568-9.261,2.929-14.198c-0.626-4.833-2.822-9.343-6.217-13.367c-3.334-3.953-7.836-7.452-13.176-10.349
				c-5.269-2.857-11.381-5.143-18.041-6.708C241.572,93.33,234.376,92.476,226.858,92.476"/>
		</g>
		<path id="XMLID_206_" style="fill:#D6E3EE;" d="M307.086,292.732H146.586c-0.779,0-1.417-0.638-1.417-1.417v-66.582
			c0-0.779,0.638-1.417,1.417-1.417h160.499c0.78,0,1.417,0.638,1.417,1.417v66.582
			C308.503,292.094,307.865,292.732,307.086,292.732"/>
		<path id="XMLID_203_" style="fill:#4F8CC6;" d="M202.058,251.03c0,3.68-1.15,6.498-3.454,8.447
			c-2.3,1.952-5.572,2.927-9.818,2.927h-3.112v12.17h-7.256v-34.219h10.93c4.151,0,7.307,0.895,9.467,2.681
			C200.978,244.822,202.058,247.486,202.058,251.03 M185.674,256.458h2.387c2.23,0,3.901-0.441,5.009-1.323
			c1.106-0.882,1.662-2.163,1.662-3.85c0-1.7-0.463-2.955-1.393-3.767c-0.927-0.811-2.384-1.217-4.365-1.217h-3.3V256.458z"/>
		<path id="XMLID_200_" style="fill:#4F8CC6;" d="M234.258,274.575l-2.479-8.144h-12.477l-2.479,8.144h-7.819l12.078-34.36h8.869
			l12.125,34.36H234.258z M230.047,260.343c-2.294-7.38-3.588-11.553-3.876-12.521c-0.287-0.968-0.495-1.732-0.619-2.294
			c-0.515,1.997-1.988,6.936-4.422,14.815H230.047z"/>
		<polygon id="XMLID_199_" style="fill:#4F8CC6;" points="261.825,254.445 268.966,240.356 276.781,240.356 265.432,261.257 
			265.432,274.575 258.221,274.575 258.221,261.491 246.869,240.356 254.735,240.356 		"/>
	</g>
</g>
<g id="Layer_2">
</g>
<g id="Layer_3">
</g>
<g id="Layer_4">
</g>
</svg>
