<?xml version="1.0" encoding="utf-8"?>
<!-- Generator: Adobe Illustrator 20.1.0, SVG Export Plug-In . SVG Version: 6.00 Build 0)  -->
<!DOCTYPE svg PUBLIC "-//W3C//DTD SVG 1.1//EN" "http://www.w3.org/Graphics/SVG/1.1/DTD/svg11.dtd">
<svg version="1.1" id="artwork" xmlns="http://www.w3.org/2000/svg" xmlns:xlink="http://www.w3.org/1999/xlink" x="0px" y="0px"
	 width="502px" height="282px" viewBox="0 0 502 282" enable-background="new 0 0 502 282" xml:space="preserve">
<path opacity="0.4" fill="#EAEDF3" d="M344.1,243c11.7-18.9,18.5-41.3,18.5-65.2c0-68.4-55.4-123.8-123.8-123.8S115,109.4,115,177.8
	c0,23.9,6.8,46.2,18.5,65.2H344.1z"/>
<linearGradient id="SVGID_1_" gradientUnits="userSpaceOnUse" x1="96" y1="244" x2="394" y2="244">
	<stop  offset="0" style="stop-color:#EAEDF3"/>
	<stop  offset="1" style="stop-color:#EAEDF3"/>
</linearGradient>
<path fill="url(#SVGID_1_)" d="M393,245H97c-0.6,0-1-0.4-1-1s0.4-1,1-1h296c0.6,0,1,0.4,1,1S393.6,245,393,245z"/>
<g>
	<path fill="#FFFFFF" d="M324,235H154V135c0-2.2,1.8-4,4-4h162c2.2,0,4,1.8,4,4V235z"/>
	<path fill="#C9D3E0" d="M325,236H153V135c0-2.8,2.2-5,5-5h162c2.8,0,5,2.2,5,5V236z M155,234h168v-99c0-1.7-1.3-3-3-3H158
		c-1.7,0-3,1.3-3,3V234z"/>
</g>
<g>
	<path fill="#FFFFFF" d="M332,235H146v5c0,2.2,1.8,4,4,4h178c2.2,0,4-1.8,4-4V235z"/>
	<path fill="#C9D3E0" d="M328,245H150c-2.8,0-5-2.2-5-5v-6h188v6C333,242.8,330.8,245,328,245z M147,236v4c0,1.7,1.3,3,3,3h178
		c1.7,0,3-1.3,3-3v-4H147z"/>
</g>
<path fill="#C9D3E0" d="M317,138v96H161v-96H317 M318,137H160v98h158V137L318,137z"/>
<path fill="#C9D3E0" d="M249,236L249,236c0,1.1-0.9,2-2,2h-16c-1.1,0-2-0.9-2-2v0H249 M249,235h-20h-1v1c0,1.7,1.3,3,3,3h16
	c1.7,0,3-1.3,3-3v-1L249,235L249,235z"/>
<rect x="147" y="240" fill="#C9D3E0" width="184" height="1"/>
<path fill="#FFFFFF" d="M263,161.1V150h-36.4L211,165.6V217h10.5c-0.4-0.6-0.7-1.3-1-2H213v-48h14c0.6,0,1-0.4,1-1v-14h33v9h-24
	c-2.2,0-4,1.8-4,4v10c0,2.2,1.8,4,4,4h24v36h-6.9c-0.3,0.7-0.7,1.4-1,2h9.9v-38.1c1.7-0.4,3-2,3-3.9v-10
	C266,163.1,264.7,161.6,263,161.1z M226,165h-11.6l11.6-11.6V165z M264,175c0,1.1-0.9,2-2,2h-25c-1.1,0-2-0.9-2-2v-10
	c0-1.1,0.9-2,2-2h25c1.1,0,2,0.9,2,2V175z"/>
<g>
	<path fill="#FFFFFF" d="M242.9,173.9c-2.3,0-4-1.8-4-4c0-2.2,1.7-4,4-4c1.4,0,2.3,0.5,3.1,1.2l-0.9,1c-0.6-0.6-1.3-1-2.2-1
		c-1.5,0-2.6,1.2-2.6,2.8s1.1,2.8,2.6,2.8c1,0,1.6-0.4,2.2-1l0.9,0.9C245.3,173.4,244.4,173.9,242.9,173.9z"/>
	<path fill="#FFFFFF" d="M250.5,169.2c1.6,0.4,2.5,1,2.5,2.3c0,1.5-1.1,2.3-2.8,2.3c-1.2,0-2.3-0.4-3.3-1.2l0.8-1
		c0.7,0.6,1.5,1,2.5,1c0.8,0,1.4-0.4,1.4-1c0-0.6-0.3-0.9-1.8-1.2c-1.7-0.4-2.6-0.9-2.6-2.3c0-1.4,1.1-2.3,2.7-2.3
		c1.1,0,2,0.3,2.8,1l-0.7,1c-0.7-0.5-1.4-0.8-2.1-0.8c-0.8,0-1.3,0.4-1.3,0.9C248.7,168.6,249.1,168.9,250.5,169.2z"/>
	<path fill="#FFFFFF" d="M259.9,166h1.5l-3.2,7.9h-1.2l-3.2-7.9h1.5l2.4,6L259.9,166z"/>
</g>
<path fill="#FFFFFF" d="M237,222.4c-9.4,0-17-7.6-17-17s7.6-17,17-17s17,7.6,17,17S246.4,222.4,237,222.4z M237,190.4
	c-8.3,0-15,6.7-15,15s6.7,15,15,15s15-6.7,15-15S245.3,190.4,237,190.4z"/>
<path fill="#FFFFFF" d="M237,218.4c-7.2,0-13-5.8-13-13s5.8-13,13-13s13,5.8,13,13S244.2,218.4,237,218.4z M237,194.4
	c-6.1,0-11,4.9-11,11s4.9,11,11,11s11-4.9,11-11S243.1,194.4,237,194.4z"/>
<path fill="#FFFFFF" d="M237,214.4c-5,0-9-4-9-9s4-9,9-9s9,4,9,9S242,214.4,237,214.4z M237,198.4c-3.9,0-7,3.1-7,7s3.1,7,7,7
	s7-3.1,7-7S240.9,198.4,237,198.4z"/>
<path fill="#FFFFFF" d="M237,210.4c-2.8,0-5-2.2-5-5s2.2-5,5-5s5,2.2,5,5S239.8,210.4,237,210.4z M237,202.4c-1.7,0-3,1.3-3,3
	s1.3,3,3,3s3-1.3,3-3S238.7,202.4,237,202.4z"/>
<path fill="#FFFFFF" d="M247.2,230.3c-0.4,0-0.7-0.2-0.9-0.5l-2.3-4.4l-4.1,2.1c-0.3,0.2-0.7,0.2-0.9,0c-0.3-0.2-0.5-0.5-0.5-0.8
	l-1.7-19.6c0-0.4,0.2-0.8,0.5-1c0.4-0.2,0.8-0.1,1.1,0.1l15.2,12.5c0.3,0.2,0.4,0.5,0.4,0.9c0,0.3-0.2,0.6-0.5,0.8l-4.1,2.1l2.3,4.4
	c0.1,0.2,0.1,0.5,0.1,0.8c-0.1,0.3-0.3,0.5-0.5,0.6l-3.6,1.9C247.5,230.3,247.4,230.3,247.2,230.3z M244.5,223.1
	c0.4,0,0.7,0.2,0.9,0.5l2.3,4.4l1.9-1l-2.3-4.4c-0.1-0.2-0.1-0.5-0.1-0.8c0.1-0.3,0.3-0.5,0.5-0.6l3.6-1.9l-12.2-10l1.3,15.7
	l3.6-1.9C244.2,223.1,244.3,223.1,244.5,223.1z"/>
<path fill="#C9D3E0" d="M263.7,149.9c-0.1,0-0.3,0-0.4-0.1c-0.5-0.2-0.7-0.8-0.5-1.3l0.4-0.9c0.2-0.5,0.8-0.7,1.3-0.5
	c0.5,0.2,0.7,0.8,0.5,1.3l-0.4,0.9C264.4,149.6,264.1,149.9,263.7,149.9z"/>
<linearGradient id="SVGID_2_" gradientUnits="userSpaceOnUse" x1="266.442" y1="225.4269" x2="213.0414" y2="149.3817">
	<stop  offset="0" style="stop-color:#7863A9"/>
	<stop  offset="1" style="stop-color:#2395D6"/>
</linearGradient>
<path opacity="0.8" fill="url(#SVGID_2_)" d="M263,161.1V150h-36.4L211,165.6V217h10.5c-0.4-0.6-0.7-1.3-1-2H213v-48h14
	c0.6,0,1-0.4,1-1v-14h33v9h-24c-2.2,0-4,1.8-4,4v10c0,2.2,1.8,4,4,4h24v36h-6.9c-0.3,0.7-0.7,1.4-1,2h9.9v-38.1c1.7-0.4,3-2,3-3.9
	v-10C266,163.1,264.7,161.6,263,161.1z M226,165h-11.6l11.6-11.6V165z M264,175c0,1.1-0.9,2-2,2h-25c-1.1,0-2-0.9-2-2v-10
	c0-1.1,0.9-2,2-2h25c1.1,0,2,0.9,2,2V175z"/>
<g opacity="0.8">
	<linearGradient id="SVGID_3_" gradientUnits="userSpaceOnUse" x1="276.8941" y1="218.0872" x2="223.4935" y2="142.042">
		<stop  offset="0" style="stop-color:#7863A9"/>
		<stop  offset="1" style="stop-color:#2395D6"/>
	</linearGradient>
	<path fill="url(#SVGID_3_)" d="M242.9,173.9c-2.3,0-4-1.8-4-4c0-2.2,1.7-4,4-4c1.4,0,2.3,0.5,3.1,1.2l-0.9,1c-0.6-0.6-1.3-1-2.2-1
		c-1.5,0-2.6,1.2-2.6,2.8s1.1,2.8,2.6,2.8c1,0,1.6-0.4,2.2-1l0.9,0.9C245.3,173.4,244.4,173.9,242.9,173.9z"/>
	<linearGradient id="SVGID_4_" gradientUnits="userSpaceOnUse" x1="281.5683" y1="214.8048" x2="228.1677" y2="138.7596">
		<stop  offset="0" style="stop-color:#7863A9"/>
		<stop  offset="1" style="stop-color:#2395D6"/>
	</linearGradient>
	<path fill="url(#SVGID_4_)" d="M250.5,169.2c1.6,0.4,2.5,1,2.5,2.3c0,1.5-1.1,2.3-2.8,2.3c-1.2,0-2.3-0.4-3.3-1.2l0.8-1
		c0.7,0.6,1.5,1,2.5,1c0.8,0,1.4-0.4,1.4-1c0-0.6-0.3-0.9-1.8-1.2c-1.7-0.4-2.6-0.9-2.6-2.3c0-1.4,1.1-2.3,2.7-2.3
		c1.1,0,2,0.3,2.8,1l-0.7,1c-0.7-0.5-1.4-0.8-2.1-0.8c-0.8,0-1.3,0.4-1.3,0.9C248.7,168.6,249.1,168.9,250.5,169.2z"/>
	<linearGradient id="SVGID_5_" gradientUnits="userSpaceOnUse" x1="287.6594" y1="210.5275" x2="234.2588" y2="134.4823">
		<stop  offset="0" style="stop-color:#7863A9"/>
		<stop  offset="1" style="stop-color:#2395D6"/>
	</linearGradient>
	<path fill="url(#SVGID_5_)" d="M259.9,166h1.5l-3.2,7.9h-1.2l-3.2-7.9h1.5l2.4,6L259.9,166z"/>
</g>
<linearGradient id="SVGID_6_" gradientUnits="userSpaceOnUse" x1="256.1437" y1="232.6586" x2="202.7431" y2="156.6134">
	<stop  offset="0" style="stop-color:#7863A9"/>
	<stop  offset="1" style="stop-color:#2395D6"/>
</linearGradient>
<path opacity="0.8" fill="url(#SVGID_6_)" d="M237,222.4c-9.4,0-17-7.6-17-17s7.6-17,17-17s17,7.6,17,17S246.4,222.4,237,222.4z
	 M237,190.4c-8.3,0-15,6.7-15,15s6.7,15,15,15s15-6.7,15-15S245.3,190.4,237,190.4z"/>
<linearGradient id="SVGID_7_" gradientUnits="userSpaceOnUse" x1="256.1437" y1="232.6586" x2="202.7431" y2="156.6134">
	<stop  offset="0" style="stop-color:#7863A9"/>
	<stop  offset="1" style="stop-color:#2395D6"/>
</linearGradient>
<path opacity="0.8" fill="url(#SVGID_7_)" d="M237,218.4c-7.2,0-13-5.8-13-13s5.8-13,13-13s13,5.8,13,13S244.2,218.4,237,218.4z
	 M237,194.4c-6.1,0-11,4.9-11,11s4.9,11,11,11s11-4.9,11-11S243.1,194.4,237,194.4z"/>
<linearGradient id="SVGID_8_" gradientUnits="userSpaceOnUse" x1="256.1437" y1="232.6586" x2="202.7431" y2="156.6134">
	<stop  offset="0" style="stop-color:#7863A9"/>
	<stop  offset="1" style="stop-color:#2395D6"/>
</linearGradient>
<path opacity="0.8" fill="url(#SVGID_8_)" d="M237,214.4c-5,0-9-4-9-9s4-9,9-9s9,4,9,9S242,214.4,237,214.4z M237,198.4
	c-3.9,0-7,3.1-7,7s3.1,7,7,7s7-3.1,7-7S240.9,198.4,237,198.4z"/>
<linearGradient id="SVGID_9_" gradientUnits="userSpaceOnUse" x1="256.1437" y1="232.6586" x2="202.7431" y2="156.6134">
	<stop  offset="0" style="stop-color:#7863A9"/>
	<stop  offset="1" style="stop-color:#2395D6"/>
</linearGradient>
<path opacity="0.8" fill="url(#SVGID_9_)" d="M237,210.4c-2.8,0-5-2.2-5-5s2.2-5,5-5s5,2.2,5,5S239.8,210.4,237,210.4z M237,202.4
	c-1.7,0-3,1.3-3,3s1.3,3,3,3s3-1.3,3-3S238.7,202.4,237,202.4z"/>
<path fill="#FFFFFF" d="M243.2,228.1l-6.3,3.3l-2.1-24.3c-0.1-0.8,0.2-1.6,0.7-2.2c0.6-0.6,1.3-1,2.2-1c0.7,0,1.3,0.2,1.8,0.7
	l18.9,15.5l-6.3,3.3l2.7,5.2l-8.9,4.7L243.2,228.1z"/>
<path fill="#FFFFFF" d="M243.6,226.8l-5.9,3.1l-1.9-22.8c-0.1-1.7,1.8-2.7,3.1-1.6l17.7,14.5l-5.9,3.1l2.7,5.2l-7.2,3.8L243.6,226.8
	z"/>
<g>
	<polygon fill="#FFFFFF" points="237.8,207.1 239.5,226.7 244.5,224.1 247.2,229.3 250.8,227.4 248.1,222.2 253.1,219.6 	"/>
	<linearGradient id="SVGID_10_" gradientUnits="userSpaceOnUse" x1="254.0294" y1="234.1433" x2="200.6287" y2="158.0981">
		<stop  offset="0" style="stop-color:#7863A9"/>
		<stop  offset="1" style="stop-color:#2395D6"/>
	</linearGradient>
	<path opacity="0.8" fill="url(#SVGID_10_)" d="M247.2,230.3c-0.4,0-0.7-0.2-0.9-0.5l-2.3-4.4l-4.1,2.1c-0.3,0.2-0.7,0.2-0.9,0
		c-0.3-0.2-0.5-0.5-0.5-0.8l-1.7-19.6c0-0.4,0.2-0.8,0.5-1c0.4-0.2,0.8-0.1,1.1,0.1l15.2,12.5c0.3,0.2,0.4,0.5,0.4,0.9
		c0,0.3-0.2,0.6-0.5,0.8l-4.1,2.1l2.3,4.4c0.1,0.2,0.1,0.5,0.1,0.8c-0.1,0.3-0.3,0.5-0.5,0.6l-3.6,1.9
		C247.5,230.3,247.4,230.3,247.2,230.3z M244.5,223.1c0.4,0,0.7,0.2,0.9,0.5l2.3,4.4l1.9-1l-2.3-4.4c-0.1-0.2-0.1-0.5-0.1-0.8
		c0.1-0.3,0.3-0.5,0.5-0.6l3.6-1.9l-12.2-10l1.3,15.7l3.6-1.9C244.2,223.1,244.3,223.1,244.5,223.1z"/>
</g>
<g>
	<path fill="#C9D3E0" d="M97,48.2c-0.1,0-0.1,0-0.2,0l-1-0.2c-0.5-0.1-0.9-0.6-0.8-1.2c0.1-0.5,0.6-0.9,1.2-0.8l1,0.2
		c0.5,0.1,0.9,0.6,0.8,1.2C97.9,47.9,97.4,48.2,97,48.2z"/>
	<path fill="#C9D3E0" d="M111,51.3c-0.1,0-0.2,0-0.2,0c-0.7-0.2-1.3-0.3-2-0.5c-0.5-0.1-0.9-0.7-0.7-1.2c0.1-0.5,0.7-0.9,1.2-0.7
		c0.7,0.2,1.3,0.3,2,0.5c0.5,0.1,0.9,0.7,0.7,1.2C111.8,51,111.4,51.3,111,51.3z M104,49.7c-0.1,0-0.1,0-0.2,0l-2-0.4
		c-0.5-0.1-0.9-0.6-0.8-1.2c0.1-0.5,0.6-0.9,1.2-0.8l2,0.4c0.5,0.1,0.9,0.7,0.8,1.2C104.9,49.4,104.5,49.7,104,49.7z"/>
	<path fill="#C9D3E0" d="M222.8,142.1c-0.4,0-0.8-0.2-0.9-0.6c-0.3-0.6-0.5-1.3-0.8-1.9c-0.2-0.5,0-1.1,0.5-1.3
		c0.5-0.2,1.1,0,1.3,0.5c0.3,0.6,0.5,1.3,0.8,1.9c0.2,0.5,0,1.1-0.6,1.3C223,142.1,222.9,142.1,222.8,142.1z M220,135.5
		c-0.4,0-0.7-0.2-0.9-0.6c-0.3-0.6-0.6-1.2-0.8-1.9c-0.2-0.5,0-1.1,0.5-1.3c0.5-0.2,1.1,0,1.3,0.5c0.3,0.6,0.6,1.2,0.8,1.9
		c0.2,0.5,0,1.1-0.5,1.3C220.3,135.5,220.2,135.5,220,135.5z M217,129c-0.4,0-0.7-0.2-0.9-0.6c-0.3-0.6-0.6-1.2-0.9-1.8
		c-0.3-0.5-0.1-1.1,0.4-1.3c0.5-0.3,1.1-0.1,1.3,0.4c0.3,0.6,0.6,1.2,0.9,1.8c0.2,0.5,0,1.1-0.5,1.3C217.3,129,217.1,129,217,129z
		 M213.6,122.7c-0.4,0-0.7-0.2-0.9-0.5c-0.3-0.6-0.7-1.2-1-1.8c-0.3-0.5-0.1-1.1,0.4-1.4c0.5-0.3,1.1-0.1,1.4,0.4
		c0.3,0.6,0.7,1.2,1,1.8c0.3,0.5,0.1,1.1-0.4,1.4C214,122.7,213.8,122.7,213.6,122.7z M210,116.5c-0.3,0-0.7-0.2-0.8-0.5
		c-0.4-0.6-0.7-1.2-1.1-1.7c-0.3-0.5-0.2-1.1,0.3-1.4c0.5-0.3,1.1-0.2,1.4,0.3c0.4,0.6,0.7,1.2,1.1,1.7c0.3,0.5,0.1,1.1-0.3,1.4
		C210.3,116.5,210.2,116.5,210,116.5z M206,110.5c-0.3,0-0.6-0.1-0.8-0.4c-0.4-0.6-0.8-1.1-1.2-1.7c-0.3-0.4-0.2-1.1,0.2-1.4
		s1.1-0.2,1.4,0.2c0.4,0.6,0.8,1.1,1.2,1.7c0.3,0.5,0.2,1.1-0.2,1.4C206.4,110.5,206.2,110.5,206,110.5z M201.8,104.8
		c-0.3,0-0.6-0.1-0.8-0.4c-0.4-0.5-0.8-1.1-1.3-1.6c-0.3-0.4-0.3-1.1,0.2-1.4c0.4-0.3,1.1-0.3,1.4,0.2c0.4,0.5,0.9,1.1,1.3,1.6
		c0.3,0.4,0.3,1.1-0.2,1.4C202.2,104.7,202,104.8,201.8,104.8z M197.2,99.2c-0.3,0-0.6-0.1-0.8-0.3c-0.4-0.5-0.9-1-1.3-1.5
		c-0.4-0.4-0.3-1,0.1-1.4c0.4-0.4,1-0.3,1.4,0.1c0.5,0.5,0.9,1,1.4,1.5c0.4,0.4,0.3,1-0.1,1.4C197.7,99.1,197.5,99.2,197.2,99.2z
		 M192.4,93.9c-0.3,0-0.5-0.1-0.7-0.3c-0.5-0.5-0.9-1-1.4-1.4c-0.4-0.4-0.4-1,0-1.4s1-0.4,1.4,0c0.5,0.5,1,1,1.4,1.5
		c0.4,0.4,0.4,1,0,1.4C192.9,93.8,192.6,93.9,192.4,93.9z M187.3,88.9c-0.2,0-0.5-0.1-0.7-0.3c-0.5-0.5-1-0.9-1.5-1.4
		c-0.4-0.4-0.4-1-0.1-1.4c0.4-0.4,1-0.4,1.4-0.1c0.5,0.5,1,0.9,1.5,1.4c0.4,0.4,0.4,1,0.1,1.4C187.8,88.8,187.5,88.9,187.3,88.9z
		 M181.9,84.2c-0.2,0-0.4-0.1-0.6-0.2c-0.5-0.4-1-0.9-1.6-1.3c-0.4-0.3-0.5-1-0.2-1.4c0.3-0.4,1-0.5,1.4-0.2
		c0.5,0.4,1.1,0.9,1.6,1.3c0.4,0.4,0.5,1,0.1,1.4C182.4,84.1,182.1,84.2,181.9,84.2z M176.2,79.8c-0.2,0-0.4-0.1-0.6-0.2
		c-0.5-0.4-1.1-0.8-1.6-1.2c-0.4-0.3-0.6-0.9-0.2-1.4s0.9-0.6,1.4-0.2c0.6,0.4,1.1,0.8,1.7,1.2c0.4,0.3,0.5,1,0.2,1.4
		C176.8,79.7,176.5,79.8,176.2,79.8z M170.3,75.7c-0.2,0-0.4-0.1-0.5-0.2c-0.6-0.4-1.1-0.7-1.7-1.1c-0.5-0.3-0.6-0.9-0.3-1.4
		c0.3-0.5,0.9-0.6,1.4-0.3c0.6,0.4,1.2,0.7,1.7,1.1c0.5,0.3,0.6,0.9,0.3,1.4C171,75.5,170.7,75.7,170.3,75.7z M164.3,71.9
		c-0.2,0-0.3,0-0.5-0.1c-0.6-0.3-1.2-0.7-1.8-1c-0.5-0.3-0.6-0.9-0.4-1.4c0.3-0.5,0.9-0.6,1.4-0.4c0.6,0.3,1.2,0.7,1.8,1
		c0.5,0.3,0.6,0.9,0.4,1.4C164.9,71.7,164.6,71.9,164.3,71.9z M158,68.4c-0.2,0-0.3,0-0.5-0.1c-0.6-0.3-1.2-0.6-1.8-0.9
		c-0.5-0.3-0.7-0.9-0.4-1.3c0.3-0.5,0.9-0.7,1.3-0.4c0.6,0.3,1.2,0.6,1.8,0.9c0.5,0.3,0.7,0.9,0.4,1.4
		C158.7,68.2,158.4,68.4,158,68.4z M151.6,65.2c-0.1,0-0.3,0-0.4-0.1c-0.6-0.3-1.2-0.6-1.8-0.9c-0.5-0.2-0.7-0.8-0.5-1.3
		c0.2-0.5,0.8-0.7,1.3-0.5c0.6,0.3,1.2,0.6,1.9,0.9c0.5,0.2,0.7,0.8,0.5,1.3C152.3,65,152,65.2,151.6,65.2z M145.1,62.3
		c-0.1,0-0.3,0-0.4-0.1c-0.6-0.3-1.3-0.5-1.9-0.8c-0.5-0.2-0.8-0.8-0.5-1.3c0.2-0.5,0.8-0.8,1.3-0.5c0.6,0.3,1.3,0.5,1.9,0.8
		c0.5,0.2,0.7,0.8,0.5,1.3C145.8,62,145.4,62.3,145.1,62.3z M138.4,59.6c-0.1,0-0.2,0-0.4-0.1c-0.6-0.2-1.3-0.5-1.9-0.7
		c-0.5-0.2-0.8-0.8-0.6-1.3c0.2-0.5,0.8-0.8,1.3-0.6c0.6,0.2,1.3,0.5,1.9,0.7c0.5,0.2,0.8,0.8,0.6,1.3
		C139.2,59.4,138.8,59.6,138.4,59.6z M131.7,57.2c-0.1,0-0.2,0-0.3-0.1c-0.6-0.2-1.3-0.4-1.9-0.6c-0.5-0.2-0.8-0.7-0.6-1.3
		c0.2-0.5,0.7-0.8,1.3-0.6c0.7,0.2,1.3,0.4,2,0.6c0.5,0.2,0.8,0.7,0.6,1.3C132.5,57,132.1,57.2,131.7,57.2z M124.8,55
		c-0.1,0-0.2,0-0.3,0c-0.7-0.2-1.3-0.4-2-0.6c-0.5-0.2-0.8-0.7-0.7-1.2c0.2-0.5,0.7-0.8,1.2-0.7c0.7,0.2,1.3,0.4,2,0.6
		c0.5,0.2,0.8,0.7,0.7,1.2C125.7,54.8,125.3,55,124.8,55z M117.9,53.1c-0.1,0-0.2,0-0.3,0c-0.7-0.2-1.3-0.4-2-0.5
		c-0.5-0.1-0.9-0.7-0.7-1.2c0.1-0.5,0.7-0.9,1.2-0.7c0.7,0.2,1.3,0.4,2,0.5c0.5,0.1,0.8,0.7,0.7,1.2
		C118.8,52.8,118.4,53.1,117.9,53.1z"/>
	<path fill="#C9D3E0" d="M225,148c-0.4,0-0.8-0.3-0.9-0.7l-0.3-0.9c-0.2-0.5,0.1-1.1,0.6-1.3c0.5-0.2,1.1,0.1,1.3,0.6l0.3,0.9
		c0.2,0.5-0.1,1.1-0.6,1.3C225.2,148,225.1,148,225,148z"/>
</g>
<g>
	<path fill="#C9D3E0" d="M84,128c-0.5,0-1-0.4-1-1c0-0.6,0.4-1,1-1l1,0c0.5,0,1,0.4,1,1c0,0.6-0.4,1-1,1L84,128
		C84,128,84,128,84,128z"/>
	<path fill="#C9D3E0" d="M98,127.9C98,127.9,98,127.9,98,127.9c-0.7,0-1.3,0-1.9-0.1c-0.6,0-1-0.5-1-1c0-0.5,0.5-1,1-1c0,0,0,0,0,0
		c0.6,0,1.2,0,1.9,0.1c0.6,0,1,0.5,1,1C99,127.5,98.5,127.9,98,127.9z M89.6,127.8c-0.5,0-1-0.4-1-1c0-0.6,0.4-1,1-1
		c0.6,0,1.2,0,1.9,0h0c0.6,0,1,0.4,1,1c0,0.6-0.4,1-1,1C90.9,127.8,90.3,127.8,89.6,127.8C89.7,127.8,89.6,127.8,89.6,127.8z"/>
	<path fill="#C9D3E0" d="M204.7,170.1c-0.2,0-0.5-0.1-0.7-0.2c-0.5-0.4-0.9-0.8-1.4-1.2c-0.4-0.4-0.5-1-0.1-1.4
		c0.4-0.4,1-0.5,1.4-0.1c0.5,0.4,0.9,0.8,1.4,1.2c0.4,0.4,0.5,1,0.1,1.4C205.2,170,204.9,170.1,204.7,170.1z M199.7,166
		c-0.2,0-0.4-0.1-0.6-0.2c-0.5-0.4-1-0.8-1.4-1.1c-0.4-0.3-0.5-1-0.2-1.4c0.3-0.4,1-0.5,1.4-0.2c0.5,0.4,1,0.8,1.5,1.2
		c0.4,0.3,0.5,1,0.2,1.4C200.3,165.9,200,166,199.7,166z M194.5,162c-0.2,0-0.4-0.1-0.6-0.2c-0.5-0.4-1-0.7-1.5-1.1
		c-0.4-0.3-0.5-1-0.2-1.4c0.3-0.4,0.9-0.5,1.4-0.2c0.5,0.4,1,0.7,1.5,1.1c0.4,0.3,0.5,1,0.2,1.4C195.1,161.9,194.8,162,194.5,162z
		 M189.2,158.2c-0.2,0-0.4-0.1-0.6-0.2c-0.5-0.3-1-0.7-1.5-1c-0.5-0.3-0.6-0.9-0.3-1.4c0.3-0.5,0.9-0.6,1.4-0.3c0.5,0.3,1,0.7,1.5,1
		c0.5,0.3,0.6,0.9,0.3,1.4C189.9,158.1,189.5,158.2,189.2,158.2z M183.8,154.7c-0.2,0-0.4-0.1-0.5-0.2c-0.5-0.3-1-0.7-1.6-1
		c-0.5-0.3-0.6-0.9-0.3-1.4s0.9-0.6,1.4-0.3c0.5,0.3,1.1,0.7,1.6,1c0.5,0.3,0.6,0.9,0.3,1.4C184.5,154.5,184.1,154.7,183.8,154.7z
		 M178.2,151.3c-0.2,0-0.3,0-0.5-0.1c-0.5-0.3-1.1-0.6-1.6-0.9c-0.5-0.3-0.6-0.9-0.4-1.4c0.3-0.5,0.9-0.6,1.4-0.4
		c0.5,0.3,1.1,0.6,1.6,0.9c0.5,0.3,0.6,0.9,0.4,1.4C178.9,151.1,178.6,151.3,178.2,151.3z M172.6,148.1c-0.2,0-0.3,0-0.5-0.1
		c-0.5-0.3-1.1-0.6-1.6-0.9c-0.5-0.3-0.7-0.9-0.4-1.3c0.3-0.5,0.9-0.7,1.3-0.4c0.6,0.3,1.1,0.6,1.7,0.9c0.5,0.3,0.7,0.9,0.4,1.4
		C173.3,147.9,172.9,148.1,172.6,148.1z M166.8,145.2c-0.1,0-0.3,0-0.4-0.1c-0.6-0.3-1.1-0.5-1.7-0.8c-0.5-0.2-0.7-0.8-0.5-1.3
		c0.2-0.5,0.8-0.7,1.3-0.5c0.6,0.3,1.1,0.5,1.7,0.8c0.5,0.2,0.7,0.8,0.5,1.3C167.5,145,167.1,145.2,166.8,145.2z M160.9,142.4
		c-0.1,0-0.3,0-0.4-0.1c-0.6-0.2-1.1-0.5-1.7-0.7c-0.5-0.2-0.7-0.8-0.5-1.3c0.2-0.5,0.8-0.7,1.3-0.5c0.6,0.2,1.1,0.5,1.7,0.7
		c0.5,0.2,0.7,0.8,0.5,1.3C161.6,142.2,161.3,142.4,160.9,142.4z M154.9,139.9c-0.1,0-0.2,0-0.4-0.1c-0.6-0.2-1.1-0.4-1.7-0.7
		c-0.5-0.2-0.8-0.8-0.6-1.3c0.2-0.5,0.8-0.8,1.3-0.6c0.6,0.2,1.2,0.4,1.7,0.7c0.5,0.2,0.8,0.8,0.6,1.3
		C155.7,139.7,155.3,139.9,154.9,139.9z M148.8,137.7c-0.1,0-0.2,0-0.3-0.1c-0.6-0.2-1.2-0.4-1.7-0.6c-0.5-0.2-0.8-0.7-0.6-1.3
		c0.2-0.5,0.8-0.8,1.3-0.6c0.6,0.2,1.2,0.4,1.8,0.6c0.5,0.2,0.8,0.8,0.6,1.3C149.6,137.4,149.2,137.7,148.8,137.7z M142.7,135.6
		c-0.1,0-0.2,0-0.3,0c-0.6-0.2-1.2-0.4-1.8-0.5c-0.5-0.2-0.8-0.7-0.7-1.2c0.2-0.5,0.7-0.8,1.2-0.7c0.6,0.2,1.2,0.4,1.8,0.5
		c0.5,0.2,0.8,0.7,0.7,1.3C143.5,135.3,143.1,135.6,142.7,135.6z M136.4,133.8c-0.1,0-0.2,0-0.3,0c-0.6-0.2-1.2-0.3-1.8-0.5
		c-0.5-0.1-0.9-0.7-0.7-1.2c0.1-0.5,0.7-0.9,1.2-0.7c0.6,0.2,1.2,0.3,1.8,0.5c0.5,0.1,0.8,0.7,0.7,1.2
		C137.3,133.5,136.9,133.8,136.4,133.8z M130.1,132.2c-0.1,0-0.2,0-0.2,0c-0.6-0.1-1.2-0.3-1.8-0.4c-0.5-0.1-0.9-0.7-0.8-1.2
		s0.7-0.9,1.2-0.8c0.6,0.1,1.2,0.3,1.8,0.4c0.5,0.1,0.9,0.7,0.7,1.2C131,131.9,130.6,132.2,130.1,132.2z M123.8,130.9
		c-0.1,0-0.1,0-0.2,0c-0.6-0.1-1.2-0.2-1.8-0.3c-0.5-0.1-0.9-0.6-0.8-1.2c0.1-0.5,0.6-0.9,1.2-0.8c0.6,0.1,1.2,0.2,1.8,0.3
		c0.5,0.1,0.9,0.6,0.8,1.2C124.7,130.5,124.3,130.9,123.8,130.9z M117.4,129.8c0,0-0.1,0-0.2,0c-0.6-0.1-1.2-0.2-1.8-0.3
		c-0.5-0.1-0.9-0.6-0.9-1.1c0.1-0.5,0.6-0.9,1.1-0.9c0.6,0.1,1.2,0.2,1.8,0.3c0.5,0.1,0.9,0.6,0.8,1.1
		C118.3,129.4,117.9,129.8,117.4,129.8z M111,128.9c0,0-0.1,0-0.1,0c-0.6-0.1-1.2-0.1-1.8-0.2c-0.5-0.1-0.9-0.5-0.9-1.1
		c0.1-0.5,0.5-1,1.1-0.9c0.6,0.1,1.2,0.1,1.9,0.2c0.5,0.1,0.9,0.6,0.9,1.1C111.9,128.5,111.5,128.9,111,128.9z M104.5,128.3
		C104.5,128.3,104.4,128.3,104.5,128.3c-0.7,0-1.3-0.1-1.9-0.1c-0.6,0-1-0.5-0.9-1.1s0.5-1,1.1-0.9c0.6,0,1.2,0.1,1.9,0.1
		c0.6,0,1,0.5,0.9,1.1C105.4,127.9,105,128.3,104.5,128.3z"/>
	<path fill="#C9D3E0" d="M209,174c-0.2,0-0.5-0.1-0.7-0.3l-0.7-0.7c-0.4-0.4-0.4-1-0.1-1.4s1-0.4,1.4-0.1l0.7,0.7
		c0.4,0.4,0.4,1,0.1,1.4C209.5,173.9,209.3,174,209,174z"/>
</g>
<g>
	<path fill="#C9D3E0" d="M370,62.2c-0.5,0-0.9-0.3-1-0.8c-0.1-0.5,0.2-1.1,0.8-1.2l1-0.2c0.5-0.1,1.1,0.2,1.2,0.8
		c0.1,0.5-0.2,1.1-0.8,1.2l-1,0.2C370.2,62.2,370.1,62.2,370,62.2z"/>
	<path fill="#C9D3E0" d="M356.5,65.6c-0.4,0-0.8-0.3-1-0.7c-0.2-0.5,0.2-1.1,0.7-1.2c0.6-0.2,1.3-0.4,1.9-0.5
		c0.5-0.1,1.1,0.2,1.2,0.7c0.1,0.5-0.2,1.1-0.7,1.2c-0.6,0.2-1.3,0.4-1.9,0.5C356.7,65.6,356.6,65.6,356.5,65.6z M363.2,63.8
		c-0.4,0-0.9-0.3-1-0.8c-0.1-0.5,0.2-1.1,0.7-1.2c0.6-0.2,1.3-0.3,1.9-0.5c0.5-0.1,1.1,0.2,1.2,0.7c0.1,0.5-0.2,1.1-0.7,1.2
		c-0.6,0.2-1.3,0.3-1.9,0.5C363.4,63.8,363.3,63.8,363.2,63.8z"/>
	<path fill="#C9D3E0" d="M265.5,145.5c-0.1,0-0.3,0-0.4-0.1c-0.5-0.2-0.7-0.8-0.5-1.3c0.3-0.6,0.6-1.2,0.9-1.8
		c0.2-0.5,0.8-0.7,1.3-0.5c0.5,0.2,0.7,0.8,0.5,1.3c-0.3,0.6-0.6,1.2-0.8,1.8C266.2,145.3,265.8,145.5,265.5,145.5z M268.5,139.2
		c-0.2,0-0.3,0-0.5-0.1c-0.5-0.3-0.7-0.9-0.4-1.3c0.3-0.6,0.6-1.2,0.9-1.8c0.3-0.5,0.9-0.7,1.3-0.4c0.5,0.3,0.7,0.9,0.4,1.3
		c-0.3,0.6-0.6,1.2-0.9,1.8C269.2,139,268.9,139.2,268.5,139.2z M271.8,133.1c-0.2,0-0.3,0-0.5-0.1c-0.5-0.3-0.7-0.9-0.4-1.4
		c0.3-0.6,0.7-1.2,1-1.7c0.3-0.5,0.9-0.6,1.4-0.4c0.5,0.3,0.6,0.9,0.4,1.4c-0.3,0.6-0.6,1.1-1,1.7
		C272.5,132.9,272.1,133.1,271.8,133.1z M275.3,127.1c-0.2,0-0.4,0-0.5-0.1c-0.5-0.3-0.6-0.9-0.3-1.4c0.3-0.6,0.7-1.1,1.1-1.7
		c0.3-0.5,0.9-0.6,1.4-0.3c0.5,0.3,0.6,0.9,0.3,1.4c-0.3,0.6-0.7,1.1-1,1.7C275.9,126.9,275.6,127.1,275.3,127.1z M279,121.2
		c-0.2,0-0.4-0.1-0.6-0.2c-0.5-0.3-0.6-0.9-0.3-1.4c0.4-0.6,0.7-1.1,1.1-1.7c0.3-0.5,0.9-0.6,1.4-0.3c0.5,0.3,0.6,0.9,0.3,1.4
		c-0.4,0.5-0.7,1.1-1.1,1.6C279.7,121,279.3,121.2,279,121.2z M283,115.5c-0.2,0-0.4-0.1-0.6-0.2c-0.4-0.3-0.5-1-0.2-1.4
		c0.4-0.5,0.8-1.1,1.2-1.6c0.3-0.4,1-0.5,1.4-0.2c0.4,0.3,0.5,1,0.2,1.4c-0.4,0.5-0.8,1-1.2,1.6C283.6,115.4,283.3,115.5,283,115.5z
		 M287.3,110c-0.2,0-0.4-0.1-0.6-0.2c-0.4-0.3-0.5-1-0.1-1.4c0.4-0.5,0.9-1,1.3-1.5c0.4-0.4,1-0.5,1.4-0.1c0.4,0.4,0.5,1,0.1,1.4
		c-0.4,0.5-0.8,1-1.3,1.5C287.9,109.9,287.6,110,287.3,110z M291.8,104.7c-0.2,0-0.5-0.1-0.7-0.3c-0.4-0.4-0.4-1-0.1-1.4
		c0.4-0.5,0.9-1,1.4-1.5c0.4-0.4,1-0.4,1.4,0c0.4,0.4,0.4,1,0,1.4c-0.4,0.5-0.9,1-1.3,1.5C292.4,104.6,292.1,104.7,291.8,104.7z
		 M296.6,99.7c-0.3,0-0.5-0.1-0.7-0.3c-0.4-0.4-0.4-1,0-1.4c0.5-0.5,1-0.9,1.4-1.4c0.4-0.4,1-0.4,1.4,0c0.4,0.4,0.4,1,0,1.4
		c-0.5,0.5-0.9,0.9-1.4,1.4C297.2,99.6,296.9,99.7,296.6,99.7z M301.7,94.9c-0.3,0-0.5-0.1-0.7-0.3c-0.4-0.4-0.3-1,0.1-1.4
		c0.5-0.4,1-0.9,1.5-1.3c0.4-0.4,1-0.3,1.4,0.1c0.4,0.4,0.3,1-0.1,1.4c-0.5,0.4-1,0.9-1.5,1.3C302.2,94.9,302,94.9,301.7,94.9z
		 M307,90.5c-0.3,0-0.6-0.1-0.8-0.4c-0.3-0.4-0.3-1.1,0.2-1.4c0.5-0.4,1-0.8,1.6-1.2c0.4-0.3,1.1-0.3,1.4,0.2
		c0.3,0.4,0.3,1.1-0.2,1.4c-0.5,0.4-1,0.8-1.6,1.2C307.5,90.4,307.3,90.5,307,90.5z M312.6,86.3c-0.3,0-0.6-0.1-0.8-0.4
		c-0.3-0.5-0.2-1.1,0.2-1.4c0.5-0.4,1.1-0.8,1.6-1.1c0.5-0.3,1.1-0.2,1.4,0.3c0.3,0.5,0.2,1.1-0.3,1.4c-0.5,0.4-1.1,0.7-1.6,1.1
		C313,86.2,312.8,86.3,312.6,86.3z M318.4,82.4c-0.3,0-0.7-0.2-0.8-0.5c-0.3-0.5-0.2-1.1,0.3-1.4c0.6-0.4,1.1-0.7,1.7-1.1
		c0.5-0.3,1.1-0.1,1.4,0.3c0.3,0.5,0.1,1.1-0.3,1.4c-0.6,0.3-1.1,0.7-1.7,1C318.8,82.4,318.6,82.4,318.4,82.4z M324.4,78.8
		c-0.4,0-0.7-0.2-0.9-0.5c-0.3-0.5-0.1-1.1,0.4-1.4c0.6-0.3,1.2-0.6,1.8-1c0.5-0.3,1.1-0.1,1.4,0.4c0.3,0.5,0.1,1.1-0.4,1.4
		c-0.6,0.3-1.2,0.6-1.7,1C324.7,78.8,324.6,78.8,324.4,78.8z M330.6,75.6c-0.4,0-0.7-0.2-0.9-0.6c-0.2-0.5,0-1.1,0.5-1.3
		c0.6-0.3,1.2-0.6,1.8-0.9c0.5-0.2,1.1,0,1.3,0.5c0.2,0.5,0,1.1-0.5,1.3c-0.6,0.3-1.2,0.6-1.8,0.9C330.9,75.6,330.7,75.6,330.6,75.6
		z M336.9,72.7c-0.4,0-0.8-0.2-0.9-0.6c-0.2-0.5,0-1.1,0.5-1.3c0.6-0.3,1.2-0.5,1.8-0.8c0.5-0.2,1.1,0,1.3,0.5
		c0.2,0.5,0,1.1-0.5,1.3c-0.6,0.3-1.2,0.5-1.8,0.8C337.1,72.6,337,72.7,336.9,72.7z M343.3,70c-0.4,0-0.8-0.2-0.9-0.6
		c-0.2-0.5,0.1-1.1,0.6-1.3c0.6-0.2,1.2-0.5,1.9-0.7c0.5-0.2,1.1,0.1,1.3,0.6c0.2,0.5-0.1,1.1-0.6,1.3c-0.6,0.2-1.2,0.5-1.9,0.7
		C343.6,70,343.4,70,343.3,70z M349.9,67.7c-0.4,0-0.8-0.3-0.9-0.7c-0.2-0.5,0.1-1.1,0.6-1.3c0.6-0.2,1.3-0.4,1.9-0.6
		c0.5-0.2,1.1,0.1,1.3,0.6c0.2,0.5-0.1,1.1-0.6,1.3c-0.6,0.2-1.3,0.4-1.9,0.6C350.1,67.7,350,67.7,349.9,67.7z"/>
</g>
<g>
	<path fill="#C9D3E0" d="M398,138C398,138,398,138,398,138l-1,0c-0.6,0-1-0.5-1-1c0-0.6,0.5-1,1-1l1,0c0.6,0,1,0.5,1,1
		C399,137.6,398.5,138,398,138z"/>
	<path fill="#C9D3E0" d="M383.7,137.9c-0.5,0-1-0.4-1-1c0-0.6,0.4-1,1-1c0.6,0,1.3,0,1.9,0c0.6,0,1,0.4,1,1c0,0.6-0.4,1-1,1
		C385,137.8,384.3,137.9,383.7,137.9C383.7,137.9,383.7,137.9,383.7,137.9z M392.2,137.8L392.2,137.8c-0.6,0-1.3,0-1.9,0
		c-0.6,0-1-0.5-1-1c0-0.5,0.5-1,1-1h0c0.6,0,1.3,0,1.9,0c0.6,0,1,0.5,1,1C393.2,137.4,392.8,137.8,392.2,137.8z"/>
	<path fill="#C9D3E0" d="M272.2,176.3c-0.3,0-0.6-0.1-0.8-0.4c-0.4-0.4-0.3-1.1,0.1-1.4c0.5-0.4,1-0.8,1.5-1.2
		c0.4-0.4,1.1-0.3,1.4,0.1c0.4,0.4,0.3,1.1-0.1,1.4c-0.5,0.4-1,0.8-1.4,1.2C272.6,176.2,272.4,176.3,272.2,176.3z M277.4,172.1
		c-0.3,0-0.6-0.1-0.8-0.4c-0.3-0.4-0.3-1.1,0.2-1.4c0.5-0.4,1-0.8,1.5-1.2c0.4-0.3,1.1-0.2,1.4,0.2c0.3,0.4,0.2,1.1-0.2,1.4
		c-0.5,0.4-1,0.8-1.5,1.1C277.8,172,277.6,172.1,277.4,172.1z M282.8,168.1c-0.3,0-0.6-0.2-0.8-0.4c-0.3-0.5-0.2-1.1,0.3-1.4
		c0.5-0.4,1.1-0.7,1.6-1.1c0.5-0.3,1.1-0.2,1.4,0.3c0.3,0.5,0.2,1.1-0.3,1.4c-0.5,0.4-1,0.7-1.6,1.1
		C283.2,168.1,283,168.1,282.8,168.1z M288.3,164.5c-0.3,0-0.7-0.2-0.8-0.5c-0.3-0.5-0.1-1.1,0.3-1.4c0.5-0.3,1.1-0.7,1.6-1
		c0.5-0.3,1.1-0.1,1.4,0.3c0.3,0.5,0.1,1.1-0.3,1.4c-0.5,0.3-1.1,0.7-1.6,1C288.7,164.4,288.5,164.5,288.3,164.5z M294.1,161
		c-0.3,0-0.7-0.2-0.9-0.5c-0.3-0.5-0.1-1.1,0.4-1.4c0.6-0.3,1.1-0.6,1.7-0.9c0.5-0.3,1.1-0.1,1.4,0.4c0.3,0.5,0.1,1.1-0.4,1.4
		c-0.6,0.3-1.1,0.6-1.7,0.9C294.4,161,294.3,161,294.1,161z M300,157.9c-0.4,0-0.7-0.2-0.9-0.5c-0.2-0.5-0.1-1.1,0.4-1.3
		c0.6-0.3,1.1-0.6,1.7-0.9c0.5-0.2,1.1,0,1.3,0.5c0.2,0.5,0,1.1-0.5,1.3c-0.6,0.3-1.1,0.6-1.7,0.8
		C300.3,157.9,300.1,157.9,300,157.9z M306,155c-0.4,0-0.7-0.2-0.9-0.6c-0.2-0.5,0-1.1,0.5-1.3c0.6-0.3,1.2-0.5,1.8-0.8
		c0.5-0.2,1.1,0,1.3,0.5c0.2,0.5,0,1.1-0.5,1.3c-0.6,0.3-1.2,0.5-1.7,0.8C306.3,155,306.1,155,306,155z M312.1,152.3
		c-0.4,0-0.8-0.2-0.9-0.6c-0.2-0.5,0-1.1,0.5-1.3c0.6-0.2,1.2-0.5,1.8-0.7c0.5-0.2,1.1,0,1.3,0.6c0.2,0.5,0,1.1-0.6,1.3
		c-0.6,0.2-1.2,0.5-1.8,0.7C312.4,152.3,312.2,152.3,312.1,152.3z M318.3,149.9c-0.4,0-0.8-0.3-0.9-0.7c-0.2-0.5,0.1-1.1,0.6-1.3
		c0.6-0.2,1.2-0.4,1.8-0.7c0.5-0.2,1.1,0.1,1.3,0.6c0.2,0.5-0.1,1.1-0.6,1.3c-0.6,0.2-1.2,0.4-1.8,0.6
		C318.6,149.9,318.5,149.9,318.3,149.9z M324.7,147.7c-0.4,0-0.8-0.3-1-0.7c-0.2-0.5,0.1-1.1,0.6-1.3c0.6-0.2,1.2-0.4,1.8-0.6
		c0.5-0.2,1.1,0.1,1.3,0.7c0.2,0.5-0.1,1.1-0.7,1.3c-0.6,0.2-1.2,0.4-1.8,0.6C324.9,147.7,324.8,147.7,324.7,147.7z M331,145.8
		c-0.4,0-0.8-0.3-1-0.7c-0.2-0.5,0.2-1.1,0.7-1.2c0.6-0.2,1.2-0.4,1.8-0.5c0.5-0.1,1.1,0.2,1.2,0.7c0.1,0.5-0.2,1.1-0.7,1.2
		c-0.6,0.2-1.2,0.3-1.8,0.5C331.2,145.8,331.1,145.8,331,145.8z M337.5,144.1c-0.4,0-0.9-0.3-1-0.8c-0.1-0.5,0.2-1.1,0.7-1.2
		c0.6-0.2,1.2-0.3,1.9-0.5c0.5-0.1,1.1,0.2,1.2,0.7s-0.2,1.1-0.7,1.2c-0.6,0.1-1.2,0.3-1.8,0.5C337.6,144.1,337.6,144.1,337.5,144.1
		z M344,142.5c-0.5,0-0.9-0.3-1-0.8c-0.1-0.5,0.2-1.1,0.8-1.2c0.6-0.1,1.2-0.3,1.9-0.4c0.5-0.1,1.1,0.2,1.2,0.8
		c0.1,0.5-0.2,1.1-0.8,1.2c-0.6,0.1-1.2,0.3-1.9,0.4C344.1,142.5,344.1,142.5,344,142.5z M350.5,141.2c-0.5,0-0.9-0.3-1-0.8
		c-0.1-0.5,0.3-1.1,0.8-1.2c0.6-0.1,1.3-0.2,1.9-0.3c0.6-0.1,1.1,0.3,1.2,0.8c0.1,0.5-0.3,1.1-0.8,1.2c-0.6,0.1-1.2,0.2-1.9,0.3
		C350.6,141.2,350.6,141.2,350.5,141.2z M357.1,140.2c-0.5,0-0.9-0.4-1-0.9c-0.1-0.5,0.3-1.1,0.8-1.1c0.6-0.1,1.3-0.2,1.9-0.3
		c0.5-0.1,1.1,0.3,1.1,0.9c0.1,0.5-0.3,1.1-0.9,1.1c-0.6,0.1-1.3,0.2-1.9,0.3C357.2,140.2,357.2,140.2,357.1,140.2z M363.7,139.3
		c-0.5,0-0.9-0.4-1-0.9c-0.1-0.5,0.3-1,0.9-1.1c0.6-0.1,1.3-0.1,1.9-0.2c0.5-0.1,1,0.3,1.1,0.9c0.1,0.5-0.3,1-0.9,1.1
		c-0.6,0.1-1.3,0.1-1.9,0.2C363.8,139.3,363.8,139.3,363.7,139.3z M370.4,138.6c-0.5,0-1-0.4-1-0.9c0-0.6,0.4-1,0.9-1.1
		c0.6-0.1,1.3-0.1,1.9-0.2c0.6,0,1,0.4,1.1,0.9s-0.4,1-0.9,1.1C371.7,138.5,371.1,138.6,370.4,138.6
		C370.4,138.6,370.4,138.6,370.4,138.6z M377,138.1c-0.5,0-1-0.4-1-0.9c0-0.6,0.4-1,0.9-1.1c0.6,0,1.3-0.1,1.9-0.1c0.6,0,1,0.4,1,1
		c0,0.6-0.4,1-1,1C378.3,138.1,377.7,138.1,377,138.1C377,138.1,377,138.1,377,138.1z"/>
	<path fill="#C9D3E0" d="M268,180c-0.3,0-0.5-0.1-0.7-0.3c-0.4-0.4-0.4-1,0-1.4l0.7-0.7c0.4-0.4,1-0.4,1.4,0.1
		c0.4,0.4,0.3,1-0.1,1.4l-0.7,0.7C268.5,179.9,268.2,180,268,180z"/>
</g>
<g>
	<path fill="#C9D3E0" d="M269.8,47.3c-0.2,0-0.4-0.1-0.6-0.2c-0.4-0.3-0.5-1-0.1-1.4c0.2-0.3,0.4-0.5,0.7-0.8c0.4-0.4,1-0.5,1.4-0.1
		c0.4,0.4,0.5,1,0.1,1.4c-0.2,0.2-0.4,0.5-0.6,0.7C270.4,47.2,270.1,47.3,269.8,47.3z"/>
	<path fill="#C9D3E0" d="M262.4,59.4c-0.1,0-0.3,0-0.4-0.1c-0.5-0.2-0.7-0.8-0.5-1.3c0.3-0.6,0.6-1.2,0.9-1.8
		c0.3-0.5,0.9-0.7,1.3-0.4c0.5,0.3,0.7,0.9,0.4,1.3c-0.3,0.6-0.6,1.2-0.9,1.8C263.1,59.2,262.7,59.4,262.4,59.4z M265.8,53.1
		c-0.2,0-0.4,0-0.5-0.1c-0.5-0.3-0.6-0.9-0.3-1.4c0.4-0.6,0.7-1.2,1.1-1.8c0.3-0.5,0.9-0.6,1.4-0.3c0.5,0.3,0.6,0.9,0.3,1.4
		c-0.4,0.5-0.7,1.1-1.1,1.7C266.4,53,266.1,53.1,265.8,53.1z"/>
	<path fill="#C9D3E0" d="M242.1,141.9C242.1,141.9,242.1,141.9,242.1,141.9c-0.6,0-1-0.5-1-1c0-0.7,0.1-1.4,0.1-2
		c0-0.6,0.5-1,1.1-0.9c0.6,0,1,0.5,0.9,1.1c0,0.7-0.1,1.4-0.1,2C243.1,141.5,242.7,141.9,242.1,141.9z M242.6,134.8
		C242.5,134.8,242.5,134.8,242.6,134.8c-0.6,0-1-0.5-1-1.1c0.1-0.7,0.1-1.4,0.2-2c0.1-0.5,0.6-1,1.1-0.9c0.6,0.1,1,0.5,0.9,1.1
		c-0.1,0.7-0.1,1.3-0.2,2C243.5,134.4,243.1,134.8,242.6,134.8z M243.3,127.7c0,0-0.1,0-0.1,0c-0.5-0.1-0.9-0.6-0.9-1.1
		c0.1-0.7,0.2-1.4,0.3-2c0.1-0.5,0.6-0.9,1.1-0.9c0.5,0.1,0.9,0.6,0.9,1.1c-0.1,0.7-0.2,1.3-0.2,2
		C244.2,127.4,243.8,127.7,243.3,127.7z M244.2,120.7c0,0-0.1,0-0.2,0c-0.5-0.1-0.9-0.6-0.8-1.1c0.1-0.7,0.2-1.3,0.3-2
		c0.1-0.5,0.6-0.9,1.1-0.8c0.5,0.1,0.9,0.6,0.8,1.1c-0.1,0.7-0.2,1.3-0.3,2C245.2,120.3,244.7,120.7,244.2,120.7z M245.4,113.6
		c-0.1,0-0.1,0-0.2,0c-0.5-0.1-0.9-0.6-0.8-1.2c0.1-0.7,0.2-1.3,0.4-2c0.1-0.5,0.6-0.9,1.2-0.8c0.5,0.1,0.9,0.6,0.8,1.2
		c-0.1,0.7-0.3,1.3-0.4,2C246.3,113.3,245.9,113.6,245.4,113.6z M246.8,106.6c-0.1,0-0.1,0-0.2,0c-0.5-0.1-0.9-0.6-0.8-1.2
		c0.1-0.7,0.3-1.3,0.4-2c0.1-0.5,0.6-0.9,1.2-0.8c0.5,0.1,0.9,0.7,0.8,1.2c-0.1,0.7-0.3,1.3-0.4,2
		C247.7,106.3,247.3,106.6,246.8,106.6z M248.4,99.7c-0.1,0-0.2,0-0.2,0c-0.5-0.1-0.9-0.7-0.7-1.2c0.2-0.7,0.3-1.3,0.5-2
		c0.1-0.5,0.7-0.9,1.2-0.7c0.5,0.1,0.9,0.7,0.7,1.2c-0.2,0.7-0.3,1.3-0.5,2C249.3,99.4,248.8,99.7,248.4,99.7z M250.2,92.8
		c-0.1,0-0.2,0-0.3,0c-0.5-0.1-0.8-0.7-0.7-1.2c0.2-0.7,0.4-1.3,0.5-2c0.1-0.5,0.7-0.8,1.2-0.7c0.5,0.1,0.8,0.7,0.7,1.2
		c-0.2,0.6-0.4,1.3-0.5,2C251,92.5,250.6,92.8,250.2,92.8z M252.1,86c-0.1,0-0.2,0-0.3,0c-0.5-0.2-0.8-0.7-0.7-1.2
		c0.2-0.7,0.4-1.3,0.6-2c0.2-0.5,0.7-0.8,1.3-0.7c0.5,0.2,0.8,0.7,0.7,1.3c-0.2,0.6-0.4,1.3-0.6,1.9C253,85.7,252.6,86,252.1,86z
		 M254.3,79.2c-0.1,0-0.2,0-0.3-0.1c-0.5-0.2-0.8-0.7-0.6-1.3c0.2-0.6,0.4-1.3,0.7-1.9c0.2-0.5,0.8-0.8,1.3-0.6
		c0.5,0.2,0.8,0.8,0.6,1.3c-0.2,0.6-0.4,1.3-0.7,1.9C255.1,78.9,254.7,79.2,254.3,79.2z M256.7,72.5c-0.1,0-0.2,0-0.4-0.1
		c-0.5-0.2-0.8-0.8-0.6-1.3c0.2-0.6,0.5-1.3,0.7-1.9c0.2-0.5,0.8-0.8,1.3-0.6c0.5,0.2,0.8,0.8,0.6,1.3c-0.2,0.6-0.5,1.3-0.7,1.9
		C257.5,72.2,257.1,72.5,256.7,72.5z M259.4,65.9c-0.1,0-0.3,0-0.4-0.1c-0.5-0.2-0.7-0.8-0.5-1.3c0.3-0.6,0.5-1.3,0.8-1.9
		c0.2-0.5,0.8-0.7,1.3-0.5c0.5,0.2,0.7,0.8,0.5,1.3c-0.3,0.6-0.5,1.2-0.8,1.9C260.1,65.6,259.8,65.9,259.4,65.9z"/>
	<path fill="#C9D3E0" d="M242,148c-0.6,0-1-0.4-1-1l0-1c0-0.5,0.5-1,1-1c0,0,0,0,0,0c0.6,0,1,0.5,1,1l0,1
		C243,147.6,242.6,148,242,148z"/>
</g>
<g>
	<path fill="#C9D3E0" d="M400,221c-0.2,0-0.5-0.1-0.7-0.3l-0.7-0.7c-0.4-0.4-0.4-1-0.1-1.4c0.4-0.4,1-0.4,1.4-0.1l0.7,0.7
		c0.4,0.4,0.4,1,0.1,1.4C400.5,220.9,400.3,221,400,221z"/>
	<path fill="#C9D3E0" d="M395.5,217.1c-0.2,0-0.5-0.1-0.6-0.2c-0.5-0.4-1-0.8-1.5-1.2c-0.4-0.3-0.5-1-0.1-1.4c0.3-0.4,1-0.5,1.4-0.1
		c0.5,0.4,1,0.8,1.5,1.3c0.4,0.4,0.5,1,0.1,1.4C396.1,217,395.8,217.1,395.5,217.1z M390.2,212.8c-0.2,0-0.4-0.1-0.6-0.2
		c-0.5-0.4-1-0.8-1.6-1.2c-0.4-0.3-0.5-1-0.2-1.4c0.3-0.4,0.9-0.5,1.4-0.2c0.5,0.4,1.1,0.8,1.6,1.2c0.4,0.3,0.5,1,0.2,1.4
		C390.8,212.7,390.5,212.8,390.2,212.8z"/>
	<path fill="#C9D3E0" d="M384.6,208.9c-0.2,0-0.4-0.1-0.6-0.2c-0.5-0.4-1.1-0.7-1.6-1.1c-0.5-0.3-0.6-0.9-0.3-1.4
		c0.3-0.5,0.9-0.6,1.4-0.3c0.6,0.4,1.1,0.7,1.6,1.1c0.5,0.3,0.6,0.9,0.3,1.4C385.2,208.7,384.9,208.9,384.6,208.9z M378.8,205.2
		c-0.2,0-0.4,0-0.5-0.1c-0.6-0.3-1.1-0.7-1.7-1c-0.5-0.3-0.6-0.9-0.4-1.4c0.3-0.5,0.9-0.6,1.4-0.4c0.6,0.3,1.1,0.7,1.7,1
		c0.5,0.3,0.6,0.9,0.3,1.4C379.4,205,379.1,205.2,378.8,205.2z M372.8,201.8c-0.2,0-0.3,0-0.5-0.1c-0.6-0.3-1.1-0.6-1.7-0.9
		c-0.5-0.3-0.7-0.9-0.4-1.3c0.2-0.5,0.9-0.7,1.3-0.4c0.6,0.3,1.2,0.6,1.8,0.9c0.5,0.3,0.7,0.9,0.4,1.4
		C373.5,201.6,373.1,201.8,372.8,201.8z M366.6,198.7c-0.1,0-0.3,0-0.4-0.1c-0.6-0.3-1.2-0.5-1.8-0.8c-0.5-0.2-0.7-0.8-0.5-1.3
		c0.2-0.5,0.8-0.7,1.3-0.5c0.6,0.3,1.2,0.5,1.8,0.8c0.5,0.2,0.7,0.8,0.5,1.3C367.4,198.5,367,198.7,366.6,198.7z M360.3,196
		c-0.1,0-0.2,0-0.4-0.1c-0.6-0.2-1.2-0.5-1.8-0.7c-0.5-0.2-0.8-0.8-0.6-1.3c0.2-0.5,0.8-0.8,1.3-0.6c0.6,0.2,1.2,0.5,1.8,0.7
		c0.5,0.2,0.8,0.8,0.6,1.3C361.1,195.8,360.7,196,360.3,196z M270.7,194.2c-0.4,0-0.8-0.3-1-0.7c-0.2-0.5,0.1-1.1,0.7-1.2
		c0.6-0.2,1.3-0.4,1.9-0.5c0.5-0.1,1.1,0.2,1.2,0.7c0.2,0.5-0.2,1.1-0.7,1.2c-0.6,0.2-1.2,0.4-1.9,0.5
		C270.9,194.2,270.8,194.2,270.7,194.2z M353.9,193.7c-0.1,0-0.2,0-0.3-0.1c-0.6-0.2-1.2-0.4-1.8-0.6c-0.5-0.2-0.8-0.7-0.7-1.3
		c0.2-0.5,0.7-0.8,1.3-0.7c0.6,0.2,1.3,0.4,1.9,0.6c0.5,0.2,0.8,0.7,0.6,1.3C354.7,193.4,354.3,193.7,353.9,193.7z M277.3,192.4
		c-0.4,0-0.9-0.3-1-0.8c-0.1-0.5,0.2-1.1,0.7-1.2c0.6-0.2,1.3-0.3,1.9-0.5c0.5-0.1,1.1,0.2,1.2,0.7c0.1,0.5-0.2,1.1-0.7,1.2
		c-0.6,0.2-1.3,0.3-1.9,0.5C277.5,192.4,277.4,192.4,277.3,192.4z M347.3,191.7c-0.1,0-0.2,0-0.3,0c-0.6-0.2-1.3-0.3-1.9-0.5
		c-0.5-0.1-0.9-0.7-0.7-1.2c0.1-0.5,0.7-0.9,1.2-0.7c0.6,0.2,1.3,0.3,1.9,0.5c0.5,0.1,0.8,0.7,0.7,1.2
		C348.1,191.4,347.7,191.7,347.3,191.7z M284,190.9c-0.5,0-0.9-0.3-1-0.8c-0.1-0.5,0.2-1.1,0.8-1.2c0.6-0.1,1.3-0.3,1.9-0.4
		c0.5-0.1,1.1,0.2,1.2,0.8c0.1,0.5-0.2,1.1-0.8,1.2c-0.6,0.1-1.3,0.3-1.9,0.4C284.2,190.9,284.1,190.9,284,190.9z M340.6,190.1
		c-0.1,0-0.1,0-0.2,0c-0.6-0.1-1.3-0.3-1.9-0.4c-0.5-0.1-0.9-0.6-0.8-1.2c0.1-0.5,0.6-0.9,1.2-0.8c0.7,0.1,1.3,0.3,1.9,0.4
		c0.5,0.1,0.9,0.6,0.8,1.2C341.5,189.8,341,190.1,340.6,190.1z M290.8,189.6c-0.5,0-0.9-0.3-1-0.8c-0.1-0.5,0.3-1.1,0.8-1.2
		c0.7-0.1,1.3-0.2,2-0.3c0.5-0.1,1.1,0.3,1.1,0.8s-0.3,1.1-0.8,1.1c-0.6,0.1-1.3,0.2-1.9,0.3C290.9,189.6,290.8,189.6,290.8,189.6z
		 M333.8,188.9c0,0-0.1,0-0.1,0c-0.6-0.1-1.3-0.2-1.9-0.3c-0.5-0.1-0.9-0.6-0.9-1.1s0.6-0.9,1.1-0.9c0.7,0.1,1.3,0.2,2,0.3
		c0.5,0.1,0.9,0.6,0.8,1.1C334.7,188.6,334.3,188.9,333.8,188.9z M297.6,188.6c-0.5,0-0.9-0.4-1-0.9c-0.1-0.5,0.3-1,0.9-1.1
		c0.7-0.1,1.3-0.2,2-0.2c0.5-0.1,1,0.3,1.1,0.9c0.1,0.5-0.3,1-0.9,1.1c-0.6,0.1-1.3,0.1-1.9,0.2
		C297.7,188.6,297.6,188.6,297.6,188.6z M327,188.1C327,188.1,326.9,188.1,327,188.1c-0.7-0.1-1.4-0.1-2-0.2c-0.6,0-1-0.5-0.9-1.1
		c0-0.5,0.5-1,1.1-0.9c0.7,0.1,1.3,0.1,2,0.2c0.5,0.1,1,0.5,0.9,1.1C327.9,187.7,327.5,188.1,327,188.1z M304.4,187.9
		c-0.5,0-1-0.4-1-0.9c0-0.6,0.4-1,0.9-1.1c0.7,0,1.3-0.1,2-0.1c0.5,0,1,0.4,1.1,0.9s-0.4,1-0.9,1.1
		C305.8,187.8,305.2,187.9,304.4,187.9C304.5,187.9,304.5,187.9,304.4,187.9z M320.1,187.6C320.1,187.6,320.1,187.6,320.1,187.6
		c-0.7,0-1.3,0-2-0.1c-0.6,0-1-0.5-1-1c0-0.6,0.5-1,1-1c0.7,0,1.3,0,2,0.1c0.6,0,1,0.5,1,1C321.1,187.2,320.7,187.6,320.1,187.6z
		 M311.3,187.6c-0.5,0-1-0.4-1-1c0-0.6,0.4-1,1-1c0.7,0,1.3,0,2,0h0c0.5,0,1,0.4,1,1c0,0.6-0.4,1-1,1
		C312.6,187.6,312,187.6,311.3,187.6C311.3,187.6,311.3,187.6,311.3,187.6z"/>
	<path fill="#C9D3E0" d="M265,196c-0.4,0-0.8-0.3-1-0.7c-0.2-0.5,0.1-1.1,0.6-1.3l1-0.3c0.5-0.2,1.1,0.1,1.3,0.6
		c0.2,0.5-0.1,1.1-0.6,1.3l-0.9,0.3C265.2,196,265.1,196,265,196z"/>
</g>
<g>
	<path fill="#FFFFFF" d="M44,107c0.6,0,1-0.4,1-1v-3.4c0-0.4-0.2-0.7-0.5-0.9l-16-8.5c-0.3-0.2-0.6-0.2-0.9,0l-16,8.5
		c-0.3,0.2-0.5,0.5-0.5,0.9v3.4c0,0.6,0.4,1,1,1h3v15h-3c-0.6,0-1,0.4-1,1v3c0,0.6,0.4,1,1,1h32c0.6,0,1-0.4,1-1v-3c0-0.6-0.4-1-1-1
		h-3v-15H44z M25,122h-4v-15h4V122z M35,122h-4v-15h4V122z"/>
	<g>
		<path fill="#C9D3E0" d="M36,123v-17h-6v17H36z M32,108h2v13h-2V108z"/>
		<path fill="#C9D3E0" d="M26,123v-17h-6v17H26z M22,108h2v13h-2V108z"/>
	</g>
</g>
<g>
	<path fill="#C9D3E0" d="M112,206c-0.3,0-0.6-0.1-0.8-0.4c-0.4-0.4-0.3-1.1,0.1-1.4c0.3-0.2,0.5-0.4,0.8-0.6
		c0.4-0.4,1.1-0.3,1.4,0.1c0.4,0.4,0.3,1.1-0.1,1.4c-0.3,0.2-0.5,0.4-0.8,0.6C112.5,205.9,112.2,206,112,206z"/>
	<path fill="#C9D3E0" d="M116.5,202.4c-0.3,0-0.6-0.1-0.8-0.4c-0.3-0.4-0.2-1.1,0.2-1.4c0.5-0.4,1-0.8,1.6-1.1
		c0.5-0.3,1.1-0.2,1.4,0.2s0.2,1.1-0.2,1.4c-0.5,0.4-1,0.7-1.5,1.1C116.9,202.4,116.7,202.4,116.5,202.4z M122.1,198.7
		c-0.3,0-0.7-0.2-0.9-0.5c-0.3-0.5-0.1-1.1,0.3-1.4c0.5-0.3,1.1-0.7,1.7-1c0.5-0.3,1.1-0.1,1.4,0.4c0.3,0.5,0.1,1.1-0.4,1.4
		c-0.5,0.3-1.1,0.6-1.6,1C122.4,198.7,122.3,198.7,122.1,198.7z"/>
	<path fill="#C9D3E0" d="M127.9,195.5c-0.4,0-0.7-0.2-0.9-0.6c-0.2-0.5,0-1.1,0.4-1.3c0.6-0.3,1.2-0.6,1.7-0.8
		c0.5-0.2,1.1,0,1.3,0.5c0.2,0.5,0,1.1-0.5,1.3c-0.6,0.3-1.1,0.5-1.7,0.8C128.2,195.4,128.1,195.5,127.9,195.5z M134,192.7
		c-0.4,0-0.8-0.2-0.9-0.6c-0.2-0.5,0-1.1,0.6-1.3c0.6-0.2,1.2-0.5,1.8-0.7c0.5-0.2,1.1,0.1,1.3,0.6c0.2,0.5-0.1,1.1-0.6,1.3
		c-0.6,0.2-1.2,0.5-1.8,0.7C134.3,192.7,134.1,192.7,134,192.7z M201.5,191.3c-0.1,0-0.2,0-0.3,0c-0.6-0.2-1.2-0.3-1.8-0.5
		c-0.5-0.1-0.8-0.7-0.7-1.2c0.1-0.5,0.7-0.8,1.2-0.7c0.6,0.2,1.2,0.3,1.9,0.5c0.5,0.2,0.8,0.7,0.7,1.2
		C202.3,191,201.9,191.3,201.5,191.3z M140.3,190.5c-0.4,0-0.8-0.3-1-0.7c-0.2-0.5,0.1-1.1,0.7-1.3c0.6-0.2,1.2-0.4,1.8-0.6
		c0.5-0.2,1.1,0.2,1.2,0.7s-0.2,1.1-0.7,1.2c-0.6,0.2-1.2,0.4-1.8,0.5C140.5,190.5,140.4,190.5,140.3,190.5z M195,189.6
		c-0.1,0-0.2,0-0.2,0c-0.6-0.1-1.2-0.3-1.8-0.4c-0.5-0.1-0.9-0.7-0.8-1.2c0.1-0.5,0.7-0.9,1.2-0.8c0.6,0.1,1.2,0.3,1.9,0.4
		c0.5,0.1,0.9,0.7,0.7,1.2C195.9,189.3,195.4,189.6,195,189.6z M146.7,188.7c-0.5,0-0.9-0.3-1-0.8c-0.1-0.5,0.2-1.1,0.8-1.2
		c0.6-0.1,1.3-0.3,1.9-0.4c0.5-0.1,1.1,0.2,1.2,0.8c0.1,0.5-0.2,1.1-0.8,1.2c-0.6,0.1-1.2,0.3-1.8,0.4
		C146.9,188.7,146.8,188.7,146.7,188.7z M188.4,188.3c-0.1,0-0.1,0-0.2,0c-0.6-0.1-1.2-0.2-1.9-0.3c-0.5-0.1-0.9-0.6-0.8-1.1
		c0.1-0.5,0.6-0.9,1.2-0.8c0.6,0.1,1.3,0.2,1.9,0.3c0.5,0.1,0.9,0.6,0.8,1.2C189.3,187.9,188.9,188.3,188.4,188.3z M153.3,187.5
		c-0.5,0-0.9-0.4-1-0.8c-0.1-0.5,0.3-1.1,0.8-1.1c0.6-0.1,1.3-0.2,1.9-0.3c0.6-0.1,1.1,0.3,1.1,0.9c0.1,0.5-0.3,1.1-0.9,1.1
		c-0.6,0.1-1.3,0.2-1.9,0.3C153.4,187.5,153.4,187.5,153.3,187.5z M181.8,187.3c0,0-0.1,0-0.1,0c-0.6-0.1-1.3-0.2-1.9-0.2
		c-0.5-0.1-0.9-0.6-0.9-1.1s0.6-0.9,1.1-0.9c0.6,0.1,1.3,0.1,1.9,0.2c0.5,0.1,0.9,0.6,0.9,1.1C182.8,186.9,182.3,187.3,181.8,187.3z
		 M159.9,186.7c-0.5,0-1-0.4-1-0.9c0-0.6,0.4-1,0.9-1.1c0.6-0.1,1.3-0.1,1.9-0.1c0.6,0,1,0.4,1.1,0.9c0,0.6-0.4,1-0.9,1.1
		C161.3,186.6,160.6,186.6,159.9,186.7C160,186.7,160,186.7,159.9,186.7z M175.2,186.6C175.2,186.6,175.2,186.6,175.2,186.6
		c-0.7,0-1.3-0.1-2-0.1c-0.6,0-1-0.5-0.9-1s0.5-1,1-0.9c0.6,0,1.3,0.1,1.9,0.1c0.6,0,1,0.5,0.9,1.1
		C176.2,186.2,175.7,186.6,175.2,186.6z M166.6,186.4c-0.5,0-1-0.4-1-1c0-0.6,0.4-1,1-1c0.5,0,1,0,1.4,0l0.5,0c0.6,0,1,0.5,1,1
		c0,0.6-0.4,1-1,1h0l-0.5,0C167.6,186.4,167.1,186.4,166.6,186.4L166.6,186.4z"/>
	<path fill="#C9D3E0" d="M207,193c-0.1,0-0.2,0-0.3,0l-0.9-0.3c-0.5-0.2-0.8-0.7-0.7-1.3c0.2-0.5,0.7-0.8,1.3-0.7l1,0.3
		c0.5,0.2,0.8,0.7,0.6,1.3C207.8,192.7,207.4,193,207,193z"/>
</g>
<g>
	<circle fill="#FFFFFF" cx="28" cy="101" r="2"/>
	<path fill="#C9D3E0" d="M28,99c1.1,0,2,0.9,2,2s-0.9,2-2,2s-2-0.9-2-2S26.9,99,28,99 M28,98c-1.7,0-3,1.3-3,3s1.3,3,3,3s3-1.3,3-3
		S29.7,98,28,98L28,98z"/>
</g>
<path fill="#EAEDF3" d="M218.1,102c-2.5,0-4.5-2-4.5-4.5s2-4.5,4.5-4.5s4.5,2,4.5,4.5S220.5,102,218.1,102z M218.1,95
	c-1.4,0-2.5,1.1-2.5,2.5s1.1,2.5,2.5,2.5s2.5-1.1,2.5-2.5S219.4,95,218.1,95z"/>
<path fill="#EAEDF3" d="M135.5,177c-2.5,0-4.5-2-4.5-4.5s2-4.5,4.5-4.5s4.5,2,4.5,4.5S138,177,135.5,177z M135.5,170
	c-1.4,0-2.5,1.1-2.5,2.5s1.1,2.5,2.5,2.5s2.5-1.1,2.5-2.5S136.9,170,135.5,170z"/>
<path fill="#EAEDF3" d="M306.5,123c-2.5,0-4.5-2-4.5-4.5s2-4.5,4.5-4.5s4.5,2,4.5,4.5S309,123,306.5,123z M306.5,116
	c-1.4,0-2.5,1.1-2.5,2.5s1.1,2.5,2.5,2.5s2.5-1.1,2.5-2.5S307.9,116,306.5,116z"/>
<circle fill="#EAEDF3" cx="237.6" cy="79" r="2"/>
<circle fill="#EAEDF3" cx="315" cy="100" r="2"/>
<g>
	<path fill="#EAEDF3" d="M269.6,104h-6c-0.6,0-1-0.4-1-1s0.4-1,1-1h6c0.6,0,1,0.4,1,1S270.1,104,269.6,104z"/>
	<path fill="#EAEDF3" d="M266.6,107c-0.6,0-1-0.4-1-1v-6c0-0.6,0.4-1,1-1s1,0.4,1,1v6C267.6,106.6,267.1,107,266.6,107z"/>
</g>
<path fill="#EAEDF3" d="M170.2,119.2c-0.3,0-0.5-0.1-0.7-0.3l-4.2-4.2c-0.4-0.4-0.4-1,0-1.4s1-0.4,1.4,0l4.2,4.2
	c0.4,0.4,0.4,1,0,1.4C170.8,119.1,170.5,119.2,170.2,119.2z"/>
<path fill="#EAEDF3" d="M166,119.2c-0.3,0-0.5-0.1-0.7-0.3c-0.4-0.4-0.4-1,0-1.4l4.2-4.2c0.4-0.4,1-0.4,1.4,0s0.4,1,0,1.4l-4.2,4.2
	C166.5,119.1,166.3,119.2,166,119.2z"/>
<circle fill="#EAEDF3" cx="192" cy="118" r="2"/>
<g>
	<path fill="#EAEDF3" d="M341,178c-0.3,0-0.5-0.1-0.7-0.3l-4.2-4.2c-0.4-0.4-0.4-1,0-1.4s1-0.4,1.4,0l4.2,4.2c0.4,0.4,0.4,1,0,1.4
		C341.5,177.9,341.3,178,341,178z"/>
	<path fill="#EAEDF3" d="M336.8,178c-0.3,0-0.5-0.1-0.7-0.3c-0.4-0.4-0.4-1,0-1.4l4.2-4.2c0.4-0.4,1-0.4,1.4,0s0.4,1,0,1.4l-4.2,4.2
		C337.3,177.9,337,178,336.8,178z"/>
</g>
<circle fill="#EAEDF3" cx="345" cy="155" r="2"/>
<circle fill="#EAEDF3" cx="333" cy="205" r="2"/>
<g>
	<path fill="#EAEDF3" d="M145,208h-6c-0.6,0-1-0.4-1-1s0.4-1,1-1h6c0.6,0,1,0.4,1,1S145.6,208,145,208z"/>
	<path fill="#EAEDF3" d="M142,211c-0.6,0-1-0.4-1-1v-6c0-0.6,0.4-1,1-1s1,0.4,1,1v6C143,210.6,142.6,211,142,211z"/>
</g>
<circle fill="#EAEDF3" cx="144" cy="152" r="2"/>
<linearGradient id="SVGID_11_" gradientUnits="userSpaceOnUse" x1="396" y1="244" x2="417" y2="244">
	<stop  offset="0" style="stop-color:#EAEDF3"/>
	<stop  offset="1" style="stop-color:#EAEDF3"/>
</linearGradient>
<path fill="url(#SVGID_11_)" d="M416,245h-19c-0.6,0-1-0.4-1-1s0.4-1,1-1h19c0.6,0,1,0.4,1,1S416.6,245,416,245z"/>
<linearGradient id="SVGID_12_" gradientUnits="userSpaceOnUse" x1="419" y1="244" x2="427" y2="244">
	<stop  offset="0" style="stop-color:#EAEDF3"/>
	<stop  offset="1" style="stop-color:#EAEDF3"/>
</linearGradient>
<path fill="url(#SVGID_12_)" d="M426,245h-6c-0.6,0-1-0.4-1-1s0.4-1,1-1h6c0.6,0,1,0.4,1,1S426.6,245,426,245z"/>
<linearGradient id="SVGID_13_" gradientUnits="userSpaceOnUse" x1="63" y1="244" x2="84" y2="244">
	<stop  offset="0" style="stop-color:#EAEDF3"/>
	<stop  offset="1" style="stop-color:#EAEDF3"/>
</linearGradient>
<path fill="url(#SVGID_13_)" d="M83,245H64c-0.6,0-1-0.4-1-1s0.4-1,1-1h19c0.6,0,1,0.4,1,1S83.6,245,83,245z"/>
<linearGradient id="SVGID_14_" gradientUnits="userSpaceOnUse" x1="86" y1="244" x2="94" y2="244">
	<stop  offset="0" style="stop-color:#EAEDF3"/>
	<stop  offset="1" style="stop-color:#EAEDF3"/>
</linearGradient>
<path fill="url(#SVGID_14_)" d="M93,245h-6c-0.6,0-1-0.4-1-1s0.4-1,1-1h6c0.6,0,1,0.4,1,1S93.6,245,93,245z"/>
<path fill="#FFFFFF" d="M297.5,36h-24.6c-1.4,0-2.5-1.1-2.5-2.5l0,0c0-6.8,5.5-12.6,12.3-12.6h4.9c6.8,0,12.3,5.8,12.3,12.6l0,0
	C300,34.9,298.9,36,297.5,36z"/>
<path fill="#C9D3E0" d="M291.6,19.6c1.7-1.6,2.8-3.9,2.9-6.4c0.1-5-3.9-9.1-8.9-9.1l-0.1,0h0c-4.9,0-8.9,4-9,8.9
	c0,2.6,1,4.9,2.7,6.6c-5.7,1.5-10,6.5-10.6,12.5h2c0.7-5.7,5.2-10.3,10.9-11c1.2,0.6,2.5,0.9,3.9,0.9l0.1,0c1.4,0,2.7-0.3,3.9-0.9
	c6,0.8,10.7,6.2,10.7,12.4c0,1.4-1.1,2.5-2.5,2.5H281v2h16.5c2.5,0,4.5-2,4.5-4.5C302,26.9,297.6,21.3,291.6,19.6z M285.5,20
	c0,0-0.1,0-0.1,0c-3.9-0.1-7-3.2-6.9-7.1c0.1-3.8,3.2-6.9,7-6.9c0,0,0.1,0,0.1,0c3.9,0.1,7,3.2,6.9,7.1
	C292.4,16.9,289.3,20,285.5,20z"/>
<g>
	<path fill="#FFFFFF" d="M279.5,33c0.3,0,0.5,0.2,0.5,0.5v7c0,0.3-0.2,0.5-0.5,0.5h-15c-0.3,0-0.5-0.2-0.5-0.5v-7
		c0-0.3,0.2-0.5,0.5-0.5H279.5 M279.5,31h-15c-1.4,0-2.5,1.1-2.5,2.5v7c0,1.4,1.1,2.5,2.5,2.5h15c1.4,0,2.5-1.1,2.5-2.5v-7
		C282,32.1,280.9,31,279.5,31L279.5,31z"/>
</g>
<path fill="#FFFFFF" d="M272,35c1.1,0,2,0.9,2,2s-0.9,2-2,2s-2-0.9-2-2S270.9,35,272,35 M272,34c-1.7,0-3,1.3-3,3s1.3,3,3,3
	s3-1.3,3-3S273.7,34,272,34L272,34z"/>
<g opacity="0.8">
	<linearGradient id="SVGID_15_" gradientUnits="userSpaceOnUse" x1="281.6757" y1="42.5691" x2="262.5645" y2="31.5691">
		<stop  offset="0" style="stop-color:#7863A9"/>
		<stop  offset="1" style="stop-color:#2395D6"/>
	</linearGradient>
	<path fill="url(#SVGID_15_)" d="M279.5,33c0.3,0,0.5,0.2,0.5,0.5v7c0,0.3-0.2,0.5-0.5,0.5h-15c-0.3,0-0.5-0.2-0.5-0.5v-7
		c0-0.3,0.2-0.5,0.5-0.5H279.5 M279.5,31h-15c-1.4,0-2.5,1.1-2.5,2.5v7c0,1.4,1.1,2.5,2.5,2.5h15c1.4,0,2.5-1.1,2.5-2.5v-7
		C282,32.1,280.9,31,279.5,31L279.5,31z"/>
</g>
<linearGradient id="SVGID_16_" gradientUnits="userSpaceOnUse" x1="281.6757" y1="42.5691" x2="262.5645" y2="31.5691">
	<stop  offset="0" style="stop-color:#7863A9"/>
	<stop  offset="1" style="stop-color:#2395D6"/>
</linearGradient>
<path opacity="0.8" fill="url(#SVGID_16_)" d="M272,35c1.1,0,2,0.9,2,2s-0.9,2-2,2s-2-0.9-2-2S270.9,35,272,35 M272,34
	c-1.7,0-3,1.3-3,3s1.3,3,3,3s3-1.3,3-3S273.7,34,272,34L272,34z"/>
<path fill="#FFFFFF" d="M442,36c0.6,0,1-0.4,1-1v-3.4c0-0.4-0.2-0.7-0.5-0.9l-16-8.5c-0.3-0.2-0.6-0.2-0.9,0l-16,8.5
	c-0.3,0.2-0.5,0.5-0.5,0.9V35c0,0.6,0.4,1,1,1h3v15h-3c-0.6,0-1,0.4-1,1v3c0,0.6,0.4,1,1,1h32c0.6,0,1-0.4,1-1v-3c0-0.6-0.4-1-1-1
	h-3V36H442z M423,51h-4V36h4V51z M433,51h-4V36h4V51z"/>
<circle fill="#FFFFFF" cx="426" cy="30" r="2"/>
<g>
	<path fill="#C9D3E0" d="M428,52h6V35h-6V52z M430,37h2v13h-2V37z"/>
	<path fill="#C9D3E0" d="M418,52h6V35h-6V52z M420,37h2v13h-2V37z"/>
	<path fill="#C9D3E0" d="M429,30c0-1.7-1.3-3-3-3s-3,1.3-3,3s1.3,3,3,3S429,31.7,429,30z M426,32c-1.1,0-2-0.9-2-2s0.9-2,2-2
		s2,0.9,2,2S427.1,32,426,32z"/>
	<path fill="#C9D3E0" d="M442,37c1.1,0,2-0.9,2-2v-3.4c0-0.7-0.4-1.4-1.1-1.8l-16-8.5c-0.6-0.3-1.3-0.3-1.9,0l-16,8.5
		c-0.7,0.3-1.1,1-1.1,1.8V35c0,1.1,0.9,2,2,2h2v8.2c-1.9-3.2-4.8-5.6-8.4-6.6c1.7-1.6,2.8-3.9,2.9-6.4c0.1-5-3.9-9.1-8.9-9.1l-0.1,0
		h0c-4.9,0-8.9,4-9,8.9c0,2.6,1,4.9,2.8,6.6c-6,1.6-10.5,7-10.7,13.5h2c0.3-6.1,5-11.3,11-12c1.2,0.6,2.5,0.9,3.9,0.9l0.1,0
		c1.4,0,2.7-0.3,3.9-0.9c6,0.8,10.7,6.2,10.7,12.4c0,1.4-1.1,2.5-2.5,2.5H392v2h17.5c0.1,0,0.2,0,0.3,0c0.1,0,0.1,0,0.2,0h32
		c1.1,0,2-0.9,2-2v-3c0-1.1-0.9-2-2-2h-2V37H442z M397.5,39c0,0-0.1,0-0.1,0c-3.9-0.1-7-3.2-6.9-7.1c0.1-3.8,3.2-6.9,7-6.9
		c0,0,0.1,0,0.1,0c3.9,0.1,7,3.2,6.9,7.1C404.4,35.9,401.3,39,397.5,39z M442,52v3h-28.7c0.5-0.7,0.7-1.6,0.7-2.5c0-0.2,0-0.4,0-0.5
		h0V35h-4v-3.4l16-8.5l16,8.5l0,3.4h-4v17H442z"/>
</g>
<g>
	<path fill="#FFFFFF" d="M391.5,52c0.3,0,0.5,0.2,0.5,0.5v7c0,0.3-0.2,0.5-0.5,0.5h-15c-0.3,0-0.5-0.2-0.5-0.5v-7
		c0-0.3,0.2-0.5,0.5-0.5H391.5 M391.5,50h-15c-1.4,0-2.5,1.1-2.5,2.5v7c0,1.4,1.1,2.5,2.5,2.5h15c1.4,0,2.5-1.1,2.5-2.5v-7
		C394,51.1,392.9,50,391.5,50L391.5,50z"/>
</g>
<path fill="#FFFFFF" d="M384,54c1.1,0,2,0.9,2,2s-0.9,2-2,2s-2-0.9-2-2S382.9,54,384,54 M384,53c-1.7,0-3,1.3-3,3s1.3,3,3,3
	s3-1.3,3-3S385.7,53,384,53L384,53z"/>
<g opacity="0.8">
	<linearGradient id="SVGID_17_" gradientUnits="userSpaceOnUse" x1="393.4864" y1="61.5727" x2="374.9031" y2="50.6561">
		<stop  offset="0" style="stop-color:#7863A9"/>
		<stop  offset="1" style="stop-color:#2395D6"/>
	</linearGradient>
	<path fill="url(#SVGID_17_)" d="M391.5,52c0.3,0,0.5,0.2,0.5,0.5v7c0,0.3-0.2,0.5-0.5,0.5h-15c-0.3,0-0.5-0.2-0.5-0.5v-7
		c0-0.3,0.2-0.5,0.5-0.5H391.5 M391.5,50h-15c-1.4,0-2.5,1.1-2.5,2.5v7c0,1.4,1.1,2.5,2.5,2.5h15c1.4,0,2.5-1.1,2.5-2.5v-7
		C394,51.1,392.9,50,391.5,50L391.5,50z"/>
</g>
<linearGradient id="SVGID_18_" gradientUnits="userSpaceOnUse" x1="393.4864" y1="61.5727" x2="374.9031" y2="50.6561">
	<stop  offset="0" style="stop-color:#7863A9"/>
	<stop  offset="1" style="stop-color:#2395D6"/>
</linearGradient>
<path opacity="0.8" fill="url(#SVGID_18_)" d="M384,54c1.1,0,2,0.9,2,2s-0.9,2-2,2s-2-0.9-2-2S382.9,54,384,54 M384,53
	c-1.7,0-3,1.3-3,3s1.3,3,3,3s3-1.3,3-3S385.7,53,384,53L384,53z"/>
<path fill="#FFFFFF" d="M436.5,137h-24.6c-1.4,0-2.5-1.1-2.5-2.5l0,0c0-6.8,5.5-12.6,12.3-12.6h4.9c6.8,0,12.3,5.8,12.3,12.6l0,0
	C439,135.9,437.9,137,436.5,137z"/>
<path fill="#C9D3E0" d="M430.6,120.6c1.7-1.6,2.8-3.9,2.9-6.4c0.1-5-3.9-9.1-8.9-9.1l-0.1,0h0c-4.9,0-8.9,4-9,8.9
	c0,2.6,1,4.9,2.7,6.6c-5.7,1.5-10,6.5-10.6,12.5h2c0.7-5.7,5.2-10.3,10.9-11c1.2,0.6,2.5,0.9,3.9,0.9l0.1,0c1.4,0,2.7-0.3,3.9-0.9
	c6,0.8,10.7,6.2,10.7,12.4c0,1.4-1.1,2.5-2.5,2.5H420v2h16.5c2.5,0,4.5-2,4.5-4.5C441,127.9,436.6,122.3,430.6,120.6z M424.5,121
	c0,0-0.1,0-0.1,0c-3.9-0.1-7-3.2-6.9-7.1c0.1-3.8,3.2-6.9,7-6.9c0,0,0.1,0,0.1,0c3.9,0.1,7,3.2,6.9,7.1
	C431.4,117.9,428.3,121,424.5,121z"/>
<g>
	<path fill="#FFFFFF" d="M418.5,134c0.3,0,0.5,0.2,0.5,0.5v7c0,0.3-0.2,0.5-0.5,0.5h-15c-0.3,0-0.5-0.2-0.5-0.5v-7
		c0-0.3,0.2-0.5,0.5-0.5H418.5 M418.5,132h-15c-1.4,0-2.5,1.1-2.5,2.5v7c0,1.4,1.1,2.5,2.5,2.5h15c1.4,0,2.5-1.1,2.5-2.5v-7
		C421,133.1,419.9,132,418.5,132L418.5,132z"/>
</g>
<path fill="#FFFFFF" d="M411,136c1.1,0,2,0.9,2,2s-0.9,2-2,2s-2-0.9-2-2S409.9,136,411,136 M411,135c-1.7,0-3,1.3-3,3s1.3,3,3,3
	s3-1.3,3-3S412.7,135,411,135L411,135z"/>
<g opacity="0.8">
	<linearGradient id="SVGID_19_" gradientUnits="userSpaceOnUse" x1="420.6757" y1="143.5691" x2="401.5645" y2="132.5691">
		<stop  offset="0" style="stop-color:#7863A9"/>
		<stop  offset="1" style="stop-color:#2395D6"/>
	</linearGradient>
	<path fill="url(#SVGID_19_)" d="M418.5,134c0.3,0,0.5,0.2,0.5,0.5v7c0,0.3-0.2,0.5-0.5,0.5h-15c-0.3,0-0.5-0.2-0.5-0.5v-7
		c0-0.3,0.2-0.5,0.5-0.5H418.5 M418.5,132h-15c-1.4,0-2.5,1.1-2.5,2.5v7c0,1.4,1.1,2.5,2.5,2.5h15c1.4,0,2.5-1.1,2.5-2.5v-7
		C421,133.1,419.9,132,418.5,132L418.5,132z"/>
</g>
<linearGradient id="SVGID_20_" gradientUnits="userSpaceOnUse" x1="420.6757" y1="143.5691" x2="401.5645" y2="132.5691">
	<stop  offset="0" style="stop-color:#7863A9"/>
	<stop  offset="1" style="stop-color:#2395D6"/>
</linearGradient>
<path opacity="0.8" fill="url(#SVGID_20_)" d="M411,136c1.1,0,2,0.9,2,2s-0.9,2-2,2s-2-0.9-2-2S409.9,136,411,136 M411,135
	c-1.7,0-3,1.3-3,3s1.3,3,3,3s3-1.3,3-3S412.7,135,411,135L411,135z"/>
<path fill="#FFFFFF" d="M471,201c0.6,0,1-0.4,1-1v-3.4c0-0.4-0.2-0.7-0.5-0.9l-16-8.5c-0.3-0.2-0.6-0.2-0.9,0l-16,8.5
	c-0.3,0.2-0.5,0.5-0.5,0.9v3.4c0,0.6,0.4,1,1,1h3v15h-3c-0.6,0-1,0.4-1,1v3c0,0.6,0.4,1,1,1h32c0.6,0,1-0.4,1-1v-3c0-0.6-0.4-1-1-1
	h-3v-15H471z M452,216h-4v-15h4V216z M462,216h-4v-15h4V216z"/>
<circle fill="#FFFFFF" cx="455" cy="195" r="2"/>
<g>
	<path fill="#C9D3E0" d="M457,217h6v-17h-6V217z M459,202h2v13h-2V202z"/>
	<path fill="#C9D3E0" d="M447,217h6v-17h-6V217z M449,202h2v13h-2V202z"/>
	<path fill="#C9D3E0" d="M458,195c0-1.7-1.3-3-3-3s-3,1.3-3,3s1.3,3,3,3S458,196.7,458,195z M455,197c-1.1,0-2-0.9-2-2s0.9-2,2-2
		s2,0.9,2,2S456.1,197,455,197z"/>
	<path fill="#C9D3E0" d="M471,202c1.1,0,2-0.9,2-2v-3.4c0-0.7-0.4-1.4-1.1-1.8l-16-8.5c-0.6-0.3-1.3-0.3-1.9,0l-16,8.5
		c-0.7,0.3-1.1,1-1.1,1.8v3.4c0,1.1,0.9,2,2,2h2v8.2c-1.9-3.2-4.8-5.6-8.4-6.6c1.7-1.6,2.8-3.9,2.9-6.4c0.1-5-3.9-9.1-8.9-9.1
		l-0.1,0h0c-4.9,0-8.9,4-9,8.9c0,2.6,1,4.9,2.8,6.6c-6,1.6-10.5,7-10.7,13.5h2c0.3-6.1,5-11.3,11-12c1.2,0.6,2.5,0.9,3.9,0.9l0.1,0
		c1.4,0,2.7-0.3,3.9-0.9c6,0.8,10.7,6.2,10.7,12.4c0,1.4-1.1,2.5-2.5,2.5H421v2h17.5c0.1,0,0.2,0,0.3,0c0.1,0,0.1,0,0.2,0h32
		c1.1,0,2-0.9,2-2v-3c0-1.1-0.9-2-2-2h-2v-13H471z M426.5,204c0,0-0.1,0-0.1,0c-3.9-0.1-7-3.2-6.9-7.1c0.1-3.8,3.2-6.9,7-6.9
		c0,0,0.1,0,0.1,0c3.9,0.1,7,3.2,6.9,7.1C433.4,200.9,430.3,204,426.5,204z M471,217v3h-28.7c0.5-0.7,0.7-1.6,0.7-2.5
		c0-0.2,0-0.4,0-0.5h0v-17h-4v-3.4l16-8.5l16,8.5l0,3.4h-4v17H471z"/>
</g>
<g>
	<path fill="#FFFFFF" d="M420.5,217c0.3,0,0.5,0.2,0.5,0.5v7c0,0.3-0.2,0.5-0.5,0.5h-15c-0.3,0-0.5-0.2-0.5-0.5v-7
		c0-0.3,0.2-0.5,0.5-0.5H420.5 M420.5,215h-15c-1.4,0-2.5,1.1-2.5,2.5v7c0,1.4,1.1,2.5,2.5,2.5h15c1.4,0,2.5-1.1,2.5-2.5v-7
		C423,216.1,421.9,215,420.5,215L420.5,215z"/>
</g>
<path fill="#FFFFFF" d="M413,219c1.1,0,2,0.9,2,2s-0.9,2-2,2s-2-0.9-2-2S411.9,219,413,219 M413,218c-1.7,0-3,1.3-3,3s1.3,3,3,3
	s3-1.3,3-3S414.7,218,413,218L413,218z"/>
<g opacity="0.8">
	<linearGradient id="SVGID_21_" gradientUnits="userSpaceOnUse" x1="422.4864" y1="226.5727" x2="403.9031" y2="215.6561">
		<stop  offset="0" style="stop-color:#7863A9"/>
		<stop  offset="1" style="stop-color:#2395D6"/>
	</linearGradient>
	<path fill="url(#SVGID_21_)" d="M420.5,217c0.3,0,0.5,0.2,0.5,0.5v7c0,0.3-0.2,0.5-0.5,0.5h-15c-0.3,0-0.5-0.2-0.5-0.5v-7
		c0-0.3,0.2-0.5,0.5-0.5H420.5 M420.5,215h-15c-1.4,0-2.5,1.1-2.5,2.5v7c0,1.4,1.1,2.5,2.5,2.5h15c1.4,0,2.5-1.1,2.5-2.5v-7
		C423,216.1,421.9,215,420.5,215L420.5,215z"/>
</g>
<linearGradient id="SVGID_22_" gradientUnits="userSpaceOnUse" x1="422.4864" y1="226.5727" x2="403.9031" y2="215.6561">
	<stop  offset="0" style="stop-color:#7863A9"/>
	<stop  offset="1" style="stop-color:#2395D6"/>
</linearGradient>
<path opacity="0.8" fill="url(#SVGID_22_)" d="M413,219c1.1,0,2,0.9,2,2s-0.9,2-2,2s-2-0.9-2-2S411.9,219,413,219 M413,218
	c-1.7,0-3,1.3-3,3s1.3,3,3,3s3-1.3,3-3S414.7,218,413,218L413,218z"/>
<path fill="#C9D3E0" d="M77.6,29.5c1.7-1.6,2.8-3.9,2.9-6.4c0.1-5-3.9-9.1-8.9-9.1l-0.1,0c-4.9,0-8.9,4-9,8.9c0,2.4,0.9,4.7,2.5,6.4
	c0.1,0.1,0.1,0.1,0.2,0.2c-6.2,1.6-10.7,7.3-10.7,14.1c0,2.5,2,4.5,4.5,4.5H77v-2H58.9c-1.4,0-2.5-1.1-2.5-2.5
	c0-6.4,4.8-11.8,11-12.5c1.2,0.6,2.5,0.9,3.9,0.9l0.1,0c1.4,0,2.7-0.3,3.9-0.9C81.2,31.9,85.7,37,86,43h2
	C87.7,36.6,83.4,31.2,77.6,29.5z M71.4,30c-3.9-0.1-7-3.2-6.9-7.1c0.1-3.8,3.2-6.9,7-6.9c0,0,0.1,0,0.1,0c3.9,0.1,7,3.2,6.9,7.1
	c-0.1,3.8-3.2,6.9-7,6.9C71.4,30,71.4,30,71.4,30z"/>
<path fill="#FFFFFF" d="M92.5,43c0.3,0,0.5,0.2,0.5,0.5v7c0,0.3-0.2,0.5-0.5,0.5h-15c-0.3,0-0.5-0.2-0.5-0.5v-7
	c0-0.3,0.2-0.5,0.5-0.5H92.5 M92.5,41h-15c-1.4,0-2.5,1.1-2.5,2.5v7c0,1.4,1.1,2.5,2.5,2.5h15c1.4,0,2.5-1.1,2.5-2.5v-7
	C95,42.1,93.9,41,92.5,41L92.5,41z"/>
<path fill="#FFFFFF" d="M85,45c1.1,0,2,0.9,2,2s-0.9,2-2,2s-2-0.9-2-2S83.9,45,85,45 M85,44c-1.7,0-3,1.3-3,3s1.3,3,3,3s3-1.3,3-3
	S86.7,44,85,44L85,44z"/>
<linearGradient id="SVGID_23_" gradientUnits="userSpaceOnUse" x1="95.1176" y1="52.6868" x2="75.7843" y2="41.8201">
	<stop  offset="0" style="stop-color:#7863A9"/>
	<stop  offset="1" style="stop-color:#2395D6"/>
</linearGradient>
<path opacity="0.8" fill="url(#SVGID_23_)" d="M92.5,43c0.3,0,0.5,0.2,0.5,0.5v7c0,0.3-0.2,0.5-0.5,0.5h-15c-0.3,0-0.5-0.2-0.5-0.5
	v-7c0-0.3,0.2-0.5,0.5-0.5H92.5 M92.5,41h-15c-1.4,0-2.5,1.1-2.5,2.5v7c0,1.4,1.1,2.5,2.5,2.5h15c1.4,0,2.5-1.1,2.5-2.5v-7
	C95,42.1,93.9,41,92.5,41L92.5,41z"/>
<linearGradient id="SVGID_24_" gradientUnits="userSpaceOnUse" x1="95.1176" y1="52.6868" x2="75.7843" y2="41.8201">
	<stop  offset="0" style="stop-color:#7863A9"/>
	<stop  offset="1" style="stop-color:#2395D6"/>
</linearGradient>
<path opacity="0.8" fill="url(#SVGID_24_)" d="M85,45c1.1,0,2,0.9,2,2s-0.9,2-2,2s-2-0.9-2-2S83.9,45,85,45 M85,44c-1.7,0-3,1.3-3,3
	s1.3,3,3,3s3-1.3,3-3S86.7,44,85,44L85,44z"/>
<path fill="#C9D3E0" d="M64,126H44.9c-1.4,0-2.5-1.1-2.5-2.5c0-6.4,4.8-11.8,11-12.5c1.2,0.6,2.5,0.9,3.9,0.9l0.1,0
	c1.4,0,2.7-0.3,3.9-0.9c5.8,0.8,10.4,5.9,10.6,11.9h2c-0.2-6.4-4.6-11.8-10.4-13.4c1.7-1.6,2.8-3.9,2.9-6.4c0.1-5-3.9-9.1-8.9-9.1
	l-0.1,0c-4.9,0-8.9,4-9,8.9c0,2.4,0.9,4.7,2.5,6.4c0.1,0.1,0.1,0.1,0.2,0.2c-4,1.1-7.4,3.9-9.2,7.5v-9h2c1.1,0,2-0.9,2-2v-3.4
	c0-0.7-0.4-1.4-1.1-1.8l-16-8.5c-0.6-0.3-1.3-0.3-1.9,0l-16,8.5c-0.7,0.3-1.1,1-1.1,1.8v3.4c0,1.1,0.9,2,2,2h2v13h-2
	c-1.1,0-2,0.9-2,2v3c0,1.1,0.9,2,2,2h32c0.1,0,0.3,0,0.4-0.1c0.2,0,0.3,0.1,0.5,0.1H64V126z M50.5,102.9c0.1-3.8,3.2-6.9,7-6.9
	c0,0,0.1,0,0.1,0c3.9,0.1,7,3.2,6.9,7.1c-0.1,3.8-3.2,6.9-7,6.9c0,0-0.1,0-0.1,0C53.5,109.9,50.4,106.8,50.5,102.9z M12,126v-3h4
	v-17h-4v-3.4l16-8.5l16,8.5l0,3.4h-4v17h0.5c0,0.2,0,0.4,0,0.5c0,0.9,0.3,1.8,0.7,2.5H12z"/>
<path fill="#FFFFFF" d="M79.5,123c0.3,0,0.5,0.2,0.5,0.5v7c0,0.3-0.2,0.5-0.5,0.5h-15c-0.3,0-0.5-0.2-0.5-0.5v-7
	c0-0.3,0.2-0.5,0.5-0.5H79.5 M79.5,121h-15c-1.4,0-2.5,1.1-2.5,2.5v7c0,1.4,1.1,2.5,2.5,2.5h15c1.4,0,2.5-1.1,2.5-2.5v-7
	C82,122.1,80.9,121,79.5,121L79.5,121z"/>
<path fill="#FFFFFF" d="M72,125c1.1,0,2,0.9,2,2s-0.9,2-2,2s-2-0.9-2-2S70.9,125,72,125 M72,124c-1.7,0-3,1.3-3,3s1.3,3,3,3
	s3-1.3,3-3S73.7,124,72,124L72,124z"/>
<linearGradient id="SVGID_25_" gradientUnits="userSpaceOnUse" x1="81.809" y1="132.6476" x2="62.559" y2="121.5643">
	<stop  offset="0" style="stop-color:#7863A9"/>
	<stop  offset="1" style="stop-color:#2395D6"/>
</linearGradient>
<path opacity="0.8" fill="url(#SVGID_25_)" d="M79.5,123c0.3,0,0.5,0.2,0.5,0.5v7c0,0.3-0.2,0.5-0.5,0.5h-15c-0.3,0-0.5-0.2-0.5-0.5
	v-7c0-0.3,0.2-0.5,0.5-0.5H79.5 M79.5,121h-15c-1.4,0-2.5,1.1-2.5,2.5v7c0,1.4,1.1,2.5,2.5,2.5h15c1.4,0,2.5-1.1,2.5-2.5v-7
	C82,122.1,80.9,121,79.5,121L79.5,121z"/>
<linearGradient id="SVGID_26_" gradientUnits="userSpaceOnUse" x1="81.809" y1="132.6476" x2="62.559" y2="121.5643">
	<stop  offset="0" style="stop-color:#7863A9"/>
	<stop  offset="1" style="stop-color:#2395D6"/>
</linearGradient>
<path opacity="0.8" fill="url(#SVGID_26_)" d="M72,125c1.1,0,2,0.9,2,2s-0.9,2-2,2s-2-0.9-2-2S70.9,125,72,125 M72,124
	c-1.7,0-3,1.3-3,3s1.3,3,3,3s3-1.3,3-3S73.7,124,72,124L72,124z"/>
<path fill="#C9D3E0" d="M92.6,187.5c1.7-1.6,2.8-3.9,2.9-6.4c0.1-5-3.9-9.1-8.9-9.1l-0.1,0c-4.9,0-8.9,4-9,8.9
	c0,2.4,0.9,4.7,2.5,6.4c0.1,0.1,0.1,0.1,0.2,0.2c-6.2,1.6-10.7,7.3-10.7,14.1c0,2.5,2,4.5,4.5,4.5H92v-2H73.9
	c-1.4,0-2.5-1.1-2.5-2.5c0-6.4,4.8-11.8,11-12.5c1.2,0.6,2.5,0.9,3.9,0.9l0.1,0c1.4,0,2.7-0.3,3.9-0.9c5.8,0.8,10.4,5.9,10.6,11.9h2
	C102.7,194.6,98.4,189.2,92.6,187.5z M86.4,188c-3.9-0.1-7-3.2-6.9-7.1c0.1-3.8,3.2-6.9,7-6.9c0,0,0.1,0,0.1,0
	c3.9,0.1,7,3.2,6.9,7.1c-0.1,3.8-3.2,6.9-7,6.9C86.4,188,86.4,188,86.4,188z"/>
<path fill="#FFFFFF" d="M107.5,201c0.3,0,0.5,0.2,0.5,0.5v7c0,0.3-0.2,0.5-0.5,0.5h-15c-0.3,0-0.5-0.2-0.5-0.5v-7
	c0-0.3,0.2-0.5,0.5-0.5H107.5 M107.5,199h-15c-1.4,0-2.5,1.1-2.5,2.5v7c0,1.4,1.1,2.5,2.5,2.5h15c1.4,0,2.5-1.1,2.5-2.5v-7
	C110,200.1,108.9,199,107.5,199L107.5,199z"/>
<path fill="#FFFFFF" d="M100,203c1.1,0,2,0.9,2,2s-0.9,2-2,2s-2-0.9-2-2S98.9,203,100,203 M100,202c-1.7,0-3,1.3-3,3s1.3,3,3,3
	s3-1.3,3-3S101.7,202,100,202L100,202z"/>
<linearGradient id="SVGID_27_" gradientUnits="userSpaceOnUse" x1="110.1176" y1="210.6868" x2="90.7843" y2="199.8201">
	<stop  offset="0" style="stop-color:#7863A9"/>
	<stop  offset="1" style="stop-color:#2395D6"/>
</linearGradient>
<path opacity="0.8" fill="url(#SVGID_27_)" d="M107.5,201c0.3,0,0.5,0.2,0.5,0.5v7c0,0.3-0.2,0.5-0.5,0.5h-15
	c-0.3,0-0.5-0.2-0.5-0.5v-7c0-0.3,0.2-0.5,0.5-0.5H107.5 M107.5,199h-15c-1.4,0-2.5,1.1-2.5,2.5v7c0,1.4,1.1,2.5,2.5,2.5h15
	c1.4,0,2.5-1.1,2.5-2.5v-7C110,200.1,108.9,199,107.5,199L107.5,199z"/>
<linearGradient id="SVGID_28_" gradientUnits="userSpaceOnUse" x1="110.1176" y1="210.6868" x2="90.7843" y2="199.8201">
	<stop  offset="0" style="stop-color:#7863A9"/>
	<stop  offset="1" style="stop-color:#2395D6"/>
</linearGradient>
<path opacity="0.8" fill="url(#SVGID_28_)" d="M100,203c1.1,0,2,0.9,2,2s-0.9,2-2,2s-2-0.9-2-2S98.9,203,100,203 M100,202
	c-1.7,0-3,1.3-3,3s1.3,3,3,3s3-1.3,3-3S101.7,202,100,202L100,202z"/>
</svg>
