<svg xmlns="http://www.w3.org/2000/svg" width="175" height="175" viewBox="0 0 175 175">
  <defs>
    <style>
      .a, .c, .j, .m, .n {
        fill: #4a494d;
      }

      .a {
        opacity: 0.08;
      }

      .b, .i {
        fill: #fff;
      }

      .c {
        opacity: 0.07;
      }

      .d, .f, .g, .h, .k, .l {
        fill: none;
      }

      .d, .f, .g, .h, .i, .k, .l {
        stroke: #4a494d;
        stroke-miterlimit: 10;
      }

      .d, .f, .g {
        stroke-width: 0.75px;
      }

      .e, .g, .h, .l {
        opacity: 0.4;
      }

      .f, .g, .h, .i {
        stroke-linecap: round;
      }

      .h, .l {
        stroke-width: 0.5px;
      }

      .j {
        opacity: 0.2;
      }

      .n {
        opacity: 0.1;
      }
    </style>
  </defs>
  <title>SW</title>
  <circle class="a" cx="87.5" cy="87.5" r="87.5"/>
  <g>
    <rect class="b" x="6.847" y="23.399" width="161.306" height="128.202" rx="10.131" ry="10.131"/>
    <path class="c" d="M81.071,151.6H16.978A10.161,10.161,0,0,1,6.847,141.469V48.8H81.071Z"/>
    <rect class="d" x="6.847" y="23.399" width="161.306" height="128.202" rx="12" ry="12"/>
    <g>
      <g class="e">
        <g>
          <line class="f" x1="29.406" y1="62.459" x2="40.868" y2="62.459"/>
          <line class="f" x1="43.719" y1="62.459" x2="58.895" y2="62.459"/>
          <line class="f" x1="64.855" y1="70.758" x2="39.125" y2="70.758"/>
          <line class="f" x1="36.274" y1="70.758" x2="27.721" y2="70.758"/>
          <line class="f" x1="54.561" y1="79.039" x2="27.604" y2="79.039"/>
          <line class="f" x1="33.057" y1="88.149" x2="45.542" y2="88.149"/>
          <line class="f" x1="48.626" y1="88.149" x2="58.625" y2="88.149"/>
          <line class="f" x1="52.394" y1="96.638" x2="27.639" y2="96.638"/>
        </g>
      </g>
      <line class="f" x1="22.263" y1="62.459" x2="27.517" y2="62.459"/>
      <line class="f" x1="21.95" y1="88.149" x2="29.995" y2="88.149"/>
    </g>
    <g>
      <g class="e">
        <g>
          <line class="f" x1="29.406" y1="105.658" x2="40.868" y2="105.658"/>
          <line class="f" x1="43.719" y1="105.658" x2="58.895" y2="105.658"/>
          <line class="f" x1="64.855" y1="114.327" x2="39.125" y2="114.327"/>
          <line class="f" x1="36.274" y1="114.327" x2="27.721" y2="114.327"/>
          <line class="f" x1="54.561" y1="122.794" x2="27.604" y2="122.794"/>
          <line class="f" x1="33.057" y1="132.09" x2="45.542" y2="132.09"/>
          <line class="f" x1="48.626" y1="132.09" x2="58.625" y2="132.09"/>
          <line class="f" x1="52.394" y1="140.579" x2="27.639" y2="140.579"/>
        </g>
      </g>
      <line class="f" x1="22.263" y1="105.658" x2="27.517" y2="105.658"/>
      <line class="f" x1="21.95" y1="132.09" x2="29.995" y2="132.09"/>
    </g>
    <line class="g" x1="7.123" y1="48.687" x2="167.776" y2="48.687"/>
    <polyline class="h" points="81.133 82.187 140.282 82.187 167.869 82.187"/>
    <line class="h" x1="86.3" y1="96.83" x2="161.61" y2="96.83"/>
    <g class="e">
      <line class="i" x1="14.153" y1="61.906" x2="15.36" y2="61.906"/>
      <line class="i" x1="14.153" y1="70.664" x2="15.36" y2="70.664"/>
      <line class="i" x1="14.153" y1="79.421" x2="15.36" y2="79.421"/>
      <line class="i" x1="14.153" y1="88.179" x2="15.36" y2="88.179"/>
      <line class="i" x1="14.153" y1="96.936" x2="15.36" y2="96.936"/>
      <line class="i" x1="14.153" y1="105.694" x2="15.36" y2="105.694"/>
      <line class="i" x1="14.153" y1="114.451" x2="15.36" y2="114.451"/>
      <line class="i" x1="14.153" y1="123.209" x2="15.36" y2="123.209"/>
      <line class="i" x1="14.153" y1="131.966" x2="15.36" y2="131.966"/>
      <line class="i" x1="14.153" y1="140.724" x2="15.36" y2="140.724"/>
    </g>
    <rect class="c" x="71.222" y="48.627" width="9.434" height="102.695"/>
    <polyline class="f" points="73.956 55.331 75.922 53.365 77.888 55.331"/>
    <rect class="j" x="73.031" y="61.061" width="5.715" height="29.662" rx="2.857" ry="2.857"/>
    <rect class="k" x="85.413" y="64.504" width="76.4" height="13.615" rx="1.784" ry="1.784"/>
    <rect class="l" x="85.487" y="99.738" width="76.74" height="15.105" rx="2.124" ry="2.124"/>
    <rect class="l" x="85.487" y="116.768" width="76.74" height="15.105" rx="2.124" ry="2.124"/>
    <path class="l" d="M85.413,151.785V139.008a1.535,1.535,0,0,1,1.53-1.531h73.339a1.535,1.535,0,0,1,1.53,1.531v11.776"/>
    <g>
      <path class="m" d="M91.076,58.762a1.889,1.889,0,0,1-.738,1.586,3.2,3.2,0,0,1-2,.569,5.005,5.005,0,0,1-2.108-.353V59.7a5.707,5.707,0,0,0,2.139.432,2.23,2.23,0,0,0,1.349-.34,1.112,1.112,0,0,0,.453-.945,1.216,1.216,0,0,0-.16-.657,1.518,1.518,0,0,0-.538-.472,7.645,7.645,0,0,0-1.146-.49,3.654,3.654,0,0,1-1.536-.911,2.014,2.014,0,0,1-.461-1.375A1.712,1.712,0,0,1,87,53.524,2.784,2.784,0,0,1,88.768,53a5.218,5.218,0,0,1,2.113.422l-.28.78a4.775,4.775,0,0,0-1.854-.4,1.8,1.8,0,0,0-1.112.306,1.006,1.006,0,0,0-.4.848,1.31,1.31,0,0,0,.147.657,1.391,1.391,0,0,0,.5.468,6.176,6.176,0,0,0,1.072.472,4.236,4.236,0,0,1,1.668.928A1.821,1.821,0,0,1,91.076,58.762Z"/>
      <path class="m" d="M94.959,60.917a2.651,2.651,0,0,1-2.02-.779,3.018,3.018,0,0,1-.741-2.166,3.352,3.352,0,0,1,.687-2.219,2.29,2.29,0,0,1,1.848-.822,2.174,2.174,0,0,1,1.717.715,2.731,2.731,0,0,1,.633,1.883v.553H93.1a2.289,2.289,0,0,0,.514,1.544,1.778,1.778,0,0,0,1.373.527,4.653,4.653,0,0,0,1.844-.39v.78a4.606,4.606,0,0,1-.877.287A4.933,4.933,0,0,1,94.959,60.917Zm-.237-5.253a1.425,1.425,0,0,0-1.109.453,2.085,2.085,0,0,0-.487,1.254h3.019a1.922,1.922,0,0,0-.369-1.267A1.3,1.3,0,0,0,94.722,55.664Z"/>
      <path class="m" d="M101.208,54.931a3.423,3.423,0,0,1,.69.063l-.121.812a2.955,2.955,0,0,0-.632-.079,1.54,1.54,0,0,0-1.2.569,2.075,2.075,0,0,0-.5,1.418v3.1h-.874V55.036H99.3l.1,1.07h.042a2.527,2.527,0,0,1,.775-.869A1.746,1.746,0,0,1,101.208,54.931Z"/>
      <path class="m" d="M104.244,60.812l-2.193-5.776h.938l1.244,3.426a16.119,16.119,0,0,1,.495,1.56h.042a11.853,11.853,0,0,1,.366-1.157q.309-.878,1.384-3.829h.938l-2.192,5.776Z"/>
      <path class="m" d="M110.825,60.917a2.652,2.652,0,0,1-2.021-.779,3.022,3.022,0,0,1-.74-2.166,3.352,3.352,0,0,1,.687-2.219,2.289,2.289,0,0,1,1.847-.822,2.175,2.175,0,0,1,1.718.715,2.735,2.735,0,0,1,.632,1.883v.553H108.97a2.289,2.289,0,0,0,.514,1.544,1.778,1.778,0,0,0,1.373.527,4.653,4.653,0,0,0,1.844-.39v.78a4.614,4.614,0,0,1-.878.287A4.93,4.93,0,0,1,110.825,60.917Zm-.237-5.253a1.427,1.427,0,0,0-1.11.453,2.092,2.092,0,0,0-.487,1.254h3.02a1.922,1.922,0,0,0-.37-1.267A1.3,1.3,0,0,0,110.588,55.664Z"/>
      <path class="m" d="M117.074,54.931a3.437,3.437,0,0,1,.69.063l-.121.812a2.964,2.964,0,0,0-.633-.079,1.539,1.539,0,0,0-1.2.569,2.075,2.075,0,0,0-.5,1.418v3.1h-.875V55.036h.722l.1,1.07h.043a2.535,2.535,0,0,1,.774-.869A1.749,1.749,0,0,1,117.074,54.931Z"/>
    </g>
    <g>
      <path class="m" d="M88.291,93.482a1.735,1.735,0,0,1-1.457-.677,3.708,3.708,0,0,1,.006-3.811,1.757,1.757,0,0,1,1.469-.683,1.721,1.721,0,0,1,1.5.726h.054a6.348,6.348,0,0,1-.076-.848V86.371H90.85v7.021h-.83l-.186-.654h-.049A1.7,1.7,0,0,1,88.291,93.482Zm.284-.857a1.158,1.158,0,0,0,.953-.368,1.94,1.94,0,0,0,.306-1.194v-.148a2.239,2.239,0,0,0-.306-1.34,1.138,1.138,0,0,0-.961-.4.972.972,0,0,0-.862.453,2.319,2.319,0,0,0-.3,1.293,2.269,2.269,0,0,0,.293,1.265A.99.99,0,0,0,88.575,92.625Z"/>
      <path class="m" d="M94.545,93.482a2.414,2.414,0,0,1-1.821-.679,2.583,2.583,0,0,1-.656-1.871,2.824,2.824,0,0,1,.609-1.921,2.1,2.1,0,0,1,1.674-.7,2.054,2.054,0,0,1,1.561.6,2.292,2.292,0,0,1,.574,1.651v.574H93.16a1.636,1.636,0,0,0,.393,1.116,1.366,1.366,0,0,0,1.042.39,3.835,3.835,0,0,0,.824-.083,4.364,4.364,0,0,0,.818-.277v.862a3.261,3.261,0,0,1-.785.261A4.819,4.819,0,0,1,94.545,93.482Zm-.194-4.368a1.067,1.067,0,0,0-.81.32,1.53,1.53,0,0,0-.363.934h2.265a1.378,1.378,0,0,0-.3-.936A1.014,1.014,0,0,0,94.351,89.114Z"/>
      <path class="m" d="M100.2,89.2H98.977v4.188H97.912V89.2h-.821v-.5l.821-.325v-.325a1.814,1.814,0,0,1,.415-1.311,1.7,1.7,0,0,1,1.268-.426,3.366,3.366,0,0,1,1.1.185l-.28.8a2.425,2.425,0,0,0-.749-.126.61.61,0,0,0-.526.223,1.124,1.124,0,0,0-.164.67V88.4H100.2Z"/>
      <path class="m" d="M104.165,93.392l-.212-.695h-.036a2.05,2.05,0,0,1-.726.62,2.281,2.281,0,0,1-.939.165,1.586,1.586,0,0,1-1.148-.4,1.481,1.481,0,0,1-.413-1.123,1.32,1.32,0,0,1,.573-1.165,3.319,3.319,0,0,1,1.746-.429l.862-.027v-.266a1.006,1.006,0,0,0-.223-.715.911.911,0,0,0-.693-.237,2.375,2.375,0,0,0-.736.113,5.552,5.552,0,0,0-.676.266l-.343-.758a3.681,3.681,0,0,1,.889-.323,4.066,4.066,0,0,1,.911-.11,2.16,2.16,0,0,1,1.438.415,1.626,1.626,0,0,1,.485,1.3v3.362Zm-1.579-.722a1.309,1.309,0,0,0,.927-.323,1.165,1.165,0,0,0,.35-.9v-.434l-.64.027a2.2,2.2,0,0,0-1.091.251.763.763,0,0,0-.34.683.666.666,0,0,0,.2.517A.849.849,0,0,0,102.586,92.67Z"/>
      <path class="m" d="M109.924,93.392l-.149-.654h-.055a1.5,1.5,0,0,1-.629.545,2.11,2.11,0,0,1-.932.2,1.825,1.825,0,0,1-1.353-.452,1.868,1.868,0,0,1-.447-1.366V88.4h1.069v3.078a1.332,1.332,0,0,0,.235.859.9.9,0,0,0,.735.287,1.169,1.169,0,0,0,.982-.4,2.2,2.2,0,0,0,.314-1.338V88.4h1.064v4.991Z"/>
      <path class="m" d="M113.33,93.392h-1.06V86.371h1.06Z"/>
      <path class="m" d="M116.706,92.625a2.59,2.59,0,0,0,.776-.122v.8a2.1,2.1,0,0,1-.454.128,3.161,3.161,0,0,1-.575.052q-1.508,0-1.507-1.589V89.2h-.681v-.469l.73-.389.361-1.055h.655V88.4h1.421v.8h-1.421v2.672a.748.748,0,0,0,.192.566A.7.7,0,0,0,116.706,92.625Z"/>
    </g>
    <g>
      <path class="m" d="M91.671,145.867l-1.756-4.587h-.028q.049.544.049,1.295v3.292H89.38v-5.175h.906l1.639,4.269h.029l1.652-4.269h.9v5.175h-.6v-3.334q0-.574.049-1.246h-.028l-1.77,4.58Z"/>
      <path class="m" d="M99.185,143.924a2.138,2.138,0,0,1-.478,1.481,1.683,1.683,0,0,1-1.32.533,1.747,1.747,0,0,1-.924-.244,1.614,1.614,0,0,1-.623-.7,2.45,2.45,0,0,1-.219-1.069,2.138,2.138,0,0,1,.474-1.478,1.676,1.676,0,0,1,1.316-.529,1.642,1.642,0,0,1,1.294.542A2.127,2.127,0,0,1,99.185,143.924Zm-2.956,0a1.832,1.832,0,0,0,.3,1.132,1.18,1.18,0,0,0,1.75,0,1.837,1.837,0,0,0,.3-1.135,1.806,1.806,0,0,0-.3-1.124,1.052,1.052,0,0,0-.883-.384,1.033,1.033,0,0,0-.871.379A1.821,1.821,0,0,0,96.229,143.924Z"/>
      <path class="m" d="M102.855,145.347h-.032a1.38,1.38,0,0,1-1.217.591,1.442,1.442,0,0,1-1.184-.52,2.291,2.291,0,0,1-.423-1.48,2.331,2.331,0,0,1,.425-1.49,1.429,1.429,0,0,1,1.182-.531,1.411,1.411,0,0,1,1.21.573h.046l-.024-.279-.015-.272V140.36h.588v5.507h-.478Zm-1.175.1a1.069,1.069,0,0,0,.872-.327,1.654,1.654,0,0,0,.271-1.057v-.124a1.943,1.943,0,0,0-.274-1.176,1.039,1.039,0,0,0-.876-.353.9.9,0,0,0-.791.4,2,2,0,0,0-.275,1.135,1.92,1.92,0,0,0,.273,1.122A.922.922,0,0,0,101.68,145.446Z"/>
      <path class="m" d="M106.3,145.938a1.781,1.781,0,0,1-1.358-.524,2.03,2.03,0,0,1-.5-1.455,2.249,2.249,0,0,1,.462-1.49,1.537,1.537,0,0,1,1.24-.552,1.461,1.461,0,0,1,1.154.48,1.838,1.838,0,0,1,.425,1.265v.371H105.05a1.537,1.537,0,0,0,.345,1.038,1.192,1.192,0,0,0,.922.354,3.138,3.138,0,0,0,1.239-.262v.524a3.08,3.08,0,0,1-.59.192A3.23,3.23,0,0,1,106.3,145.938Zm-.16-3.529a.961.961,0,0,0-.745.3,1.405,1.405,0,0,0-.327.843h2.028a1.291,1.291,0,0,0-.248-.851A.872.872,0,0,0,106.136,142.409Z"/>
      <path class="m" d="M109.311,145.867h-.587V140.36h.587Z"/>
      <path class="m" d="M113.06,144.809a.972.972,0,0,1-.4.835,1.894,1.894,0,0,1-1.132.294,2.462,2.462,0,0,1-1.2-.244v-.545a2.957,2.957,0,0,0,.6.223,2.524,2.524,0,0,0,.618.081,1.4,1.4,0,0,0,.708-.147.506.506,0,0,0,.051-.835,3.049,3.049,0,0,0-.766-.381,4.208,4.208,0,0,1-.77-.352,1.051,1.051,0,0,1-.34-.341.9.9,0,0,1-.111-.457.871.871,0,0,1,.386-.749,1.794,1.794,0,0,1,1.058-.274,3.091,3.091,0,0,1,1.224.255l-.209.478a2.8,2.8,0,0,0-1.058-.241,1.213,1.213,0,0,0-.63.131.406.406,0,0,0-.212.361.445.445,0,0,0,.079.265.789.789,0,0,0,.257.21,5.715,5.715,0,0,0,.68.286,2.521,2.521,0,0,1,.932.506A.893.893,0,0,1,113.06,144.809Z"/>
    </g>
    <g>
      <path class="m" d="M92.124,73.443V71.219a.9.9,0,0,0-.191-.628.782.782,0,0,0-.6-.207.984.984,0,0,0-.792.3,1.5,1.5,0,0,0-.249.966v1.8h-.521V68.561h.521V70.04a3.355,3.355,0,0,1-.025.442H90.3a1.063,1.063,0,0,1,.438-.391,1.424,1.424,0,0,1,.648-.143,1.328,1.328,0,0,1,.945.3,1.259,1.259,0,0,1,.316.952v2.243Z"/>
      <path class="m" d="M94.889,73.075a1.661,1.661,0,0,0,.267-.02,1.749,1.749,0,0,0,.2-.042v.4a1,1,0,0,1-.249.067,1.855,1.855,0,0,1-.3.027q-1,0-1-1.051V70.41h-.492v-.251l.492-.217.22-.734h.3v.8h1v.405h-1v2.022a.7.7,0,0,0,.147.477A.512.512,0,0,0,94.889,73.075Z"/>
      <path class="m" d="M97.221,73.075a1.661,1.661,0,0,0,.267-.02,1.705,1.705,0,0,0,.2-.042v.4a1,1,0,0,1-.249.067,1.845,1.845,0,0,1-.3.027q-1,0-1-1.051V70.41h-.492v-.251l.492-.217.22-.734h.3v.8h1v.405h-1v2.022a.7.7,0,0,0,.147.477A.515.515,0,0,0,97.221,73.075Z"/>
      <path class="m" d="M100.043,73.506a1.48,1.48,0,0,1-.613-.125,1.147,1.147,0,0,1-.466-.38h-.037a4.8,4.8,0,0,1,.037.571v1.414h-.521V70.005h.424l.072.47h.025a1.213,1.213,0,0,1,.467-.408,1.433,1.433,0,0,1,.612-.125,1.268,1.268,0,0,1,1.056.468,2.06,2.06,0,0,1,.371,1.311,2.035,2.035,0,0,1-.378,1.315A1.271,1.271,0,0,1,100.043,73.506Zm-.075-3.122a.925.925,0,0,0-.763.292,1.5,1.5,0,0,0-.241.928v.117a1.716,1.716,0,0,0,.241,1.036.921.921,0,0,0,.776.312.805.805,0,0,0,.7-.36,1.714,1.714,0,0,0,.253-.994,1.65,1.65,0,0,0-.253-.987A.83.83,0,0,0,99.968,70.384Z"/>
      <path class="m" d="M104.662,72.505a.859.859,0,0,1-.358.74,1.674,1.674,0,0,1-1,.261,2.187,2.187,0,0,1-1.067-.217v-.483a2.556,2.556,0,0,0,.532.2,2.218,2.218,0,0,0,.547.072,1.244,1.244,0,0,0,.628-.129.448.448,0,0,0,.045-.74,2.691,2.691,0,0,0-.679-.338,3.629,3.629,0,0,1-.682-.312.936.936,0,0,1-.3-.3.8.8,0,0,1-.1-.405.769.769,0,0,1,.341-.662,1.587,1.587,0,0,1,.938-.244,2.739,2.739,0,0,1,1.086.226l-.185.423a2.5,2.5,0,0,0-.938-.213,1.086,1.086,0,0,0-.559.116.36.36,0,0,0-.188.32.39.39,0,0,0,.071.235.691.691,0,0,0,.227.185,5.268,5.268,0,0,0,.6.255,2.251,2.251,0,0,1,.827.448A.792.792,0,0,1,104.662,72.505Z"/>
      <path class="m" d="M105.5,70.34q0-.423.37-.423.386,0,.386.423a.441.441,0,0,1-.1.314.41.41,0,0,1-.547.011A.43.43,0,0,1,105.5,70.34Zm0,2.77a.47.47,0,0,1,.095-.318.348.348,0,0,1,.275-.108.372.372,0,0,1,.284.108.451.451,0,0,1,.1.318.441.441,0,0,1-.1.314.41.41,0,0,1-.547.011A.432.432,0,0,1,105.5,73.11Z"/>
      <path class="m" d="M109.088,68.857l-1.71,4.586h-.52l1.709-4.586Z"/>
      <path class="m" d="M111.511,68.857,109.8,73.443h-.521l1.71-4.586Z"/>
      <path class="m" d="M114.533,72.982h-.028a1.223,1.223,0,0,1-1.079.524,1.275,1.275,0,0,1-1.049-.462A2.027,2.027,0,0,1,112,71.733a2.061,2.061,0,0,1,.377-1.321,1.266,1.266,0,0,1,1.047-.47,1.25,1.25,0,0,1,1.073.509h.041l-.022-.249-.013-.242v-1.4h.521v4.882H114.6Zm-1.041.087a.945.945,0,0,0,.773-.29,1.464,1.464,0,0,0,.24-.936v-.11a1.726,1.726,0,0,0-.243-1.043.923.923,0,0,0-.776-.312.8.8,0,0,0-.7.356,1.762,1.762,0,0,0-.244,1.005,1.7,1.7,0,0,0,.242.995A.818.818,0,0,0,113.492,73.069Z"/>
      <path class="m" d="M117.647,73.506a1.58,1.58,0,0,1-1.2-.464,1.8,1.8,0,0,1-.441-1.29,1.994,1.994,0,0,1,.409-1.321,1.361,1.361,0,0,1,1.1-.489,1.3,1.3,0,0,1,1.022.425,1.63,1.63,0,0,1,.377,1.122v.329h-2.369a1.367,1.367,0,0,0,.306.919,1.059,1.059,0,0,0,.817.314,2.761,2.761,0,0,0,1.1-.233v.465a2.611,2.611,0,0,1-.522.17A2.887,2.887,0,0,1,117.647,73.506Zm-.141-3.128a.85.85,0,0,0-.661.27,1.244,1.244,0,0,0-.29.746h1.8a1.145,1.145,0,0,0-.219-.754A.776.776,0,0,0,117.506,70.378Z"/>
      <path class="m" d="M120.616,73.443l-1.3-3.438h.558l.74,2.039a9.332,9.332,0,0,1,.3.928h.026a6.537,6.537,0,0,1,.218-.688q.183-.523.823-2.279h.558l-1.3,3.438Z"/>
      <path class="m" d="M123.07,73.11a.465.465,0,0,1,.1-.318.347.347,0,0,1,.274-.108.371.371,0,0,1,.284.108.447.447,0,0,1,.1.318.44.44,0,0,1-.1.314.412.412,0,0,1-.548.011A.432.432,0,0,1,123.07,73.11Z"/>
      <path class="m" d="M127.137,72.505a.86.86,0,0,1-.357.74,1.679,1.679,0,0,1-1,.261,2.18,2.18,0,0,1-1.066-.217v-.483a2.547,2.547,0,0,0,.531.2,2.224,2.224,0,0,0,.547.072,1.241,1.241,0,0,0,.628-.129.447.447,0,0,0,.045-.74,2.673,2.673,0,0,0-.679-.338,3.661,3.661,0,0,1-.682-.312.933.933,0,0,1-.3-.3.787.787,0,0,1-.1-.405.768.768,0,0,1,.342-.662,1.587,1.587,0,0,1,.938-.244,2.734,2.734,0,0,1,1.085.226l-.185.423a2.491,2.491,0,0,0-.938-.213,1.082,1.082,0,0,0-.558.116.358.358,0,0,0-.188.32.389.389,0,0,0,.07.235.7.7,0,0,0,.228.185,5.108,5.108,0,0,0,.6.255,2.26,2.26,0,0,1,.827.448A.791.791,0,0,1,127.137,72.505Z"/>
      <path class="m" d="M132.431,73.443V71.206a.934.934,0,0,0-.176-.617.682.682,0,0,0-.546-.2.88.88,0,0,0-.718.279,1.328,1.328,0,0,0-.233.86v1.92h-.52V71.206a.934.934,0,0,0-.176-.617.686.686,0,0,0-.549-.2.85.85,0,0,0-.716.293,1.586,1.586,0,0,0-.228.962v1.8h-.521V70.005h.424l.085.47h.024a1.042,1.042,0,0,1,.416-.392,1.272,1.272,0,0,1,.6-.141,1.023,1.023,0,0,1,1.054.583h.025a1.092,1.092,0,0,1,.446-.426,1.375,1.375,0,0,1,.665-.157,1.161,1.161,0,0,1,.873.3,1.337,1.337,0,0,1,.291.958v2.243Z"/>
      <path class="m" d="M136.2,73.443l-.1-.489h-.025a1.436,1.436,0,0,1-.513.437,1.549,1.549,0,0,1-.638.115,1.149,1.149,0,0,1-.8-.264.961.961,0,0,1-.29-.75q0-1.041,1.666-1.091l.583-.019v-.214a.872.872,0,0,0-.174-.6.718.718,0,0,0-.556-.193,2.267,2.267,0,0,0-.973.264l-.16-.4a2.488,2.488,0,0,1,1.164-.3,1.314,1.314,0,0,1,.911.273,1.138,1.138,0,0,1,.3.875v2.347Zm-1.177-.368a1.056,1.056,0,0,0,.764-.266.985.985,0,0,0,.278-.747v-.31l-.521.022a1.891,1.891,0,0,0-.9.193.583.583,0,0,0-.274.531.539.539,0,0,0,.171.431A.71.71,0,0,0,135.026,73.075Z"/>
      <path class="m" d="M139.294,69.942a1.969,1.969,0,0,1,.411.038l-.072.483a1.726,1.726,0,0,0-.376-.047.918.918,0,0,0-.714.339,1.233,1.233,0,0,0-.3.843v1.845h-.521V70.005h.43l.059.637h.025a1.513,1.513,0,0,1,.462-.518A1.029,1.029,0,0,1,139.294,69.942Z"/>
      <path class="m" d="M141.523,73.075a1.661,1.661,0,0,0,.267-.02,1.774,1.774,0,0,0,.2-.042v.4a1.024,1.024,0,0,1-.25.067,1.845,1.845,0,0,1-.3.027q-1,0-1-1.051V70.41h-.492v-.251l.492-.217.22-.734h.3v.8h1v.405h-1v2.022a.7.7,0,0,0,.147.477A.515.515,0,0,0,141.523,73.075Z"/>
      <path class="m" d="M144.345,69.948a1.28,1.28,0,0,1,1.052.463,2.476,2.476,0,0,1,0,2.625,1.273,1.273,0,0,1-1.049.47,1.48,1.48,0,0,1-.613-.125,1.147,1.147,0,0,1-.466-.38h-.038l-.11.442h-.373V68.561h.521v1.187c0,.265-.009.5-.025.715h.025A1.235,1.235,0,0,1,144.345,69.948Zm-.076.436a.909.909,0,0,0-.768.306,2.363,2.363,0,0,0,.006,2.067.919.919,0,0,0,.775.312A.8.8,0,0,0,145,72.72a1.8,1.8,0,0,0,.236-1,1.727,1.727,0,0,0-.236-1A.833.833,0,0,0,144.269,70.384Z"/>
    </g>
    <rect class="n" x="87.391" y="101.59" width="25.292" height="11.12" rx="1.931" ry="1.931"/>
    <rect class="n" x="87.391" y="118.92" width="25.292" height="11.12" rx="1.931" ry="1.931"/>
    <line class="h" x1="85.453" y1="148.564" x2="161.61" y2="148.564"/>
    <g>
      <path class="m" d="M95.461,106.957h1.983v2.707a5.893,5.893,0,0,1-.934.225,6.668,6.668,0,0,1-.969.066,2.427,2.427,0,0,1-1.887-.725,2.914,2.914,0,0,1-.664-2.044,2.729,2.729,0,0,1,.749-2.038,2.815,2.815,0,0,1,2.061-.735,4.018,4.018,0,0,1,1.6.324l-.31.735a3.107,3.107,0,0,0-1.313-.3,1.762,1.762,0,0,0-1.363.542,2.093,2.093,0,0,0-.5,1.482,2.212,2.212,0,0,0,.452,1.5,1.632,1.632,0,0,0,1.3.515,4.293,4.293,0,0,0,.915-.107v-1.39H95.461Z"/>
      <path class="m" d="M101.788,109.881h-3.05V104.49h3.05v.745H99.62V106.7h2.031v.738H99.62v1.693h2.168Z"/>
      <path class="m" d="M104.815,109.881h-.882v-4.634h-1.585v-.757H106.4v.757h-1.585Z"/>
    </g>
    <g>
      <path class="m" d="M94.325,123.555a1.572,1.572,0,0,1-.553,1.294,2.438,2.438,0,0,1-1.575.45h-.56v2.017h-.882v-5.391h1.553a2.353,2.353,0,0,1,1.514.413A1.484,1.484,0,0,1,94.325,123.555Zm-2.688,1h.468a1.676,1.676,0,0,0,1-.236.86.86,0,0,0,.317-.738.839.839,0,0,0-.284-.693,1.406,1.406,0,0,0-.885-.229h-.612Z"/>
      <path class="m" d="M100.188,124.613a2.949,2.949,0,0,1-.658,2.046,2.766,2.766,0,0,1-3.74.006,2.968,2.968,0,0,1-.654-2.06,2.917,2.917,0,0,1,.658-2.049,2.426,2.426,0,0,1,1.879-.716,2.373,2.373,0,0,1,1.858.727A2.942,2.942,0,0,1,100.188,124.613Zm-4.115,0a2.417,2.417,0,0,0,.4,1.51,1.636,1.636,0,0,0,2.376.006,3.065,3.065,0,0,0,0-3.021,1.4,1.4,0,0,0-1.182-.512,1.434,1.434,0,0,0-1.2.512A2.4,2.4,0,0,0,96.073,124.613Z"/>
      <path class="m" d="M104.454,125.853a1.356,1.356,0,0,1-.521,1.127,2.259,2.259,0,0,1-1.434.41,3.415,3.415,0,0,1-1.5-.285v-.832a4.219,4.219,0,0,0,.784.273,3.335,3.335,0,0,0,.772.1,1.236,1.236,0,0,0,.773-.2.65.65,0,0,0,.249-.535.666.666,0,0,0-.229-.512,3.431,3.431,0,0,0-.944-.5,2.494,2.494,0,0,1-1.04-.682,1.447,1.447,0,0,1-.3-.922,1.292,1.292,0,0,1,.479-1.062,1.991,1.991,0,0,1,1.287-.387,3.782,3.782,0,0,1,1.541.339l-.28.719a3.375,3.375,0,0,0-1.283-.3.985.985,0,0,0-.649.186.609.609,0,0,0-.221.492.7.7,0,0,0,.088.36.909.909,0,0,0,.292.282,4.944,4.944,0,0,0,.73.35,4.021,4.021,0,0,1,.87.461,1.356,1.356,0,0,1,.405.483A1.454,1.454,0,0,1,104.454,125.853Z"/>
      <path class="m" d="M107.359,127.316h-.881v-4.634h-1.585v-.757h4.052v.757h-1.586Z"/>
    </g>
    <g>
      <path class="m" d="M117.054,104.5l-1.949,5.227h-.372l1.946-5.227Z"/>
      <path class="m" d="M119.36,109.8a1.693,1.693,0,0,1-1.321-.522,2.1,2.1,0,0,1-.474-1.462,2.28,2.28,0,0,1,.458-1.49,1.509,1.509,0,0,1,1.233-.559,1.334,1.334,0,0,1,1.084.478,1.985,1.985,0,0,1,.4,1.3v.286h-2.8a1.843,1.843,0,0,0,.373,1.223,1.319,1.319,0,0,0,1.05.422,3.252,3.252,0,0,0,.585-.047,3.421,3.421,0,0,0,.638-.2v.322a2.775,2.775,0,0,1-.608.195A3.336,3.336,0,0,1,119.36,109.8Zm-.1-3.719a1.168,1.168,0,0,0-.9.37,1.756,1.756,0,0,0-.4,1.068h2.4a1.692,1.692,0,0,0-.293-1.057A.967.967,0,0,0,119.256,106.08Z"/>
      <path class="m" d="M126.665,109.727v-2.549a1.271,1.271,0,0,0-.222-.83.844.844,0,0,0-.679-.261,1.109,1.109,0,0,0-.883.329,1.55,1.55,0,0,0-.286,1.034v2.277h-.361v-2.656q0-.984-.9-.984a1.064,1.064,0,0,0-.891.356,1.851,1.851,0,0,0-.279,1.139v2.145h-.353V105.84h.293l.075.533h.021a1.111,1.111,0,0,1,.458-.448,1.352,1.352,0,0,1,.654-.159,1.117,1.117,0,0,1,1.18.689h.014a1.332,1.332,0,0,1,.51-.511,1.468,1.468,0,0,1,.728-.178,1.244,1.244,0,0,1,.954.339,1.544,1.544,0,0,1,.319,1.08v2.542Z"/>
      <path class="m" d="M129.937,109.8a1.42,1.42,0,0,1-1.309-.673H128.6l.011.3c.01.176.014.369.014.579v1.48h-.354V105.84h.3l.068.554h.021a1.405,1.405,0,0,1,1.28-.628,1.448,1.448,0,0,1,1.2.516,2.365,2.365,0,0,1,.413,1.5,2.273,2.273,0,0,1-.435,1.486A1.451,1.451,0,0,1,129.937,109.8Zm-.007-.315a1.082,1.082,0,0,0,.924-.443,2.06,2.06,0,0,0,.327-1.241q0-1.713-1.237-1.713a1.242,1.242,0,0,0-1,.374,1.868,1.868,0,0,0-.318,1.217v.115a2.143,2.143,0,0,0,.306,1.3A1.192,1.192,0,0,0,129.93,109.484Z"/>
      <path class="m" d="M132.987,109.727h-.354v-5.563h.354Z"/>
      <path class="m" d="M137.5,107.778a2.2,2.2,0,0,1-.462,1.486,1.588,1.588,0,0,1-1.272.535,1.642,1.642,0,0,1-.9-.247,1.575,1.575,0,0,1-.6-.708,2.567,2.567,0,0,1-.208-1.066,2.193,2.193,0,0,1,.461-1.482,1.593,1.593,0,0,1,1.266-.53,1.559,1.559,0,0,1,1.257.538A2.207,2.207,0,0,1,137.5,107.778Zm-3.068,0a1.975,1.975,0,0,0,.352,1.25,1.328,1.328,0,0,0,1.991,0,1.975,1.975,0,0,0,.353-1.25,1.945,1.945,0,0,0-.356-1.247,1.207,1.207,0,0,0-1-.444,1.19,1.19,0,0,0-.992.442A1.969,1.969,0,0,0,134.435,107.778Z"/>
      <path class="m" d="M137.928,105.84h.365l.822,2.181q.377,1.005.476,1.356h.021q.151-.462.49-1.377l.822-2.16h.365l-1.741,4.517a3.58,3.58,0,0,1-.354.743.943.943,0,0,1-.334.29,1.025,1.025,0,0,1-.463.1,1.608,1.608,0,0,1-.455-.075V111.1a1.689,1.689,0,0,0,.447.057.6.6,0,0,0,.322-.086.8.8,0,0,0,.252-.266,3.456,3.456,0,0,0,.261-.572c.1-.262.163-.431.192-.51Z"/>
      <path class="m" d="M143.51,109.8a1.692,1.692,0,0,1-1.321-.522,2.1,2.1,0,0,1-.474-1.462,2.275,2.275,0,0,1,.458-1.49,1.509,1.509,0,0,1,1.233-.559,1.334,1.334,0,0,1,1.084.478,1.985,1.985,0,0,1,.4,1.3v.286h-2.8a1.843,1.843,0,0,0,.373,1.223,1.317,1.317,0,0,0,1.05.422,3.26,3.26,0,0,0,.585-.047,3.444,3.444,0,0,0,.638-.2v.322a2.775,2.775,0,0,1-.608.195A3.336,3.336,0,0,1,143.51,109.8Zm-.1-3.719a1.168,1.168,0,0,0-.9.37,1.75,1.75,0,0,0-.4,1.068h2.4a1.7,1.7,0,0,0-.293-1.057A.968.968,0,0,0,143.406,106.08Z"/>
      <path class="m" d="M147.529,109.8a1.693,1.693,0,0,1-1.321-.522,2.1,2.1,0,0,1-.474-1.462,2.275,2.275,0,0,1,.458-1.49,1.509,1.509,0,0,1,1.233-.559,1.334,1.334,0,0,1,1.084.478,1.985,1.985,0,0,1,.4,1.3v.286h-2.8a1.843,1.843,0,0,0,.373,1.223,1.317,1.317,0,0,0,1.05.422,3.26,3.26,0,0,0,.585-.047,3.444,3.444,0,0,0,.638-.2v.322a2.775,2.775,0,0,1-.608.195A3.336,3.336,0,0,1,147.529,109.8Zm-.1-3.719a1.168,1.168,0,0,0-.9.37,1.75,1.75,0,0,0-.4,1.068h2.4a1.7,1.7,0,0,0-.293-1.057A.968.968,0,0,0,147.425,106.08Z"/>
      <path class="m" d="M152.388,108.715a.922.922,0,0,1-.4.8,1.931,1.931,0,0,1-1.126.281,2.68,2.68,0,0,1-1.237-.24v-.383a2.723,2.723,0,0,0,1.237.294,1.636,1.636,0,0,0,.874-.191.584.584,0,0,0,.3-.51.622.622,0,0,0-.238-.494,2.629,2.629,0,0,0-.781-.393,4.362,4.362,0,0,1-.819-.363,1.118,1.118,0,0,1-.356-.343.862.862,0,0,1-.119-.467.8.8,0,0,1,.366-.689,1.774,1.774,0,0,1,1.024-.254,3.058,3.058,0,0,1,1.195.236l-.133.321a2.8,2.8,0,0,0-1.062-.236,1.546,1.546,0,0,0-.754.157.485.485,0,0,0-.279.437.6.6,0,0,0,.216.486,3.019,3.019,0,0,0,.846.408,4.184,4.184,0,0,1,.765.341,1.11,1.11,0,0,1,.36.346A.845.845,0,0,1,152.388,108.715Z"/>
    </g>
    <g>
      <path class="m" d="M117.054,121.356l-1.949,5.228h-.372l1.946-5.228Z"/>
      <path class="m" d="M119.36,126.655a1.693,1.693,0,0,1-1.321-.521,2.1,2.1,0,0,1-.474-1.463,2.282,2.282,0,0,1,.458-1.49,1.512,1.512,0,0,1,1.233-.559,1.331,1.331,0,0,1,1.084.479,1.981,1.981,0,0,1,.4,1.3v.286h-2.8a1.839,1.839,0,0,0,.373,1.222,1.315,1.315,0,0,0,1.05.422,3.259,3.259,0,0,0,.585-.046,3.5,3.5,0,0,0,.638-.2v.322a2.823,2.823,0,0,1-.608.194A3.336,3.336,0,0,1,119.36,126.655Zm-.1-3.719a1.165,1.165,0,0,0-.9.371,1.753,1.753,0,0,0-.4,1.067h2.4a1.692,1.692,0,0,0-.293-1.057A.969.969,0,0,0,119.256,122.936Z"/>
      <path class="m" d="M126.665,126.584v-2.55a1.268,1.268,0,0,0-.222-.829.841.841,0,0,0-.679-.261,1.109,1.109,0,0,0-.883.329,1.549,1.549,0,0,0-.286,1.033v2.278h-.361v-2.657q0-.984-.9-.983a1.064,1.064,0,0,0-.891.356,1.847,1.847,0,0,0-.279,1.138v2.146h-.353V122.7h.293l.075.533h.021a1.119,1.119,0,0,1,.458-.449,1.364,1.364,0,0,1,.654-.159,1.118,1.118,0,0,1,1.18.69h.014a1.325,1.325,0,0,1,.51-.511,1.468,1.468,0,0,1,.728-.179,1.247,1.247,0,0,1,.954.339,1.546,1.546,0,0,1,.319,1.081v2.542Z"/>
      <path class="m" d="M129.937,126.655a1.421,1.421,0,0,1-1.309-.672H128.6l.011.3c.01.176.014.369.014.579v1.48h-.354V122.7h.3l.068.554h.021a1.406,1.406,0,0,1,1.28-.629,1.446,1.446,0,0,1,1.2.517,2.363,2.363,0,0,1,.413,1.5,2.275,2.275,0,0,1-.435,1.486A1.453,1.453,0,0,1,129.937,126.655Zm-.007-.315a1.081,1.081,0,0,0,.924-.442,2.06,2.06,0,0,0,.327-1.241q0-1.713-1.237-1.713a1.242,1.242,0,0,0-1,.373,1.871,1.871,0,0,0-.318,1.218v.114a2.139,2.139,0,0,0,.306,1.3A1.189,1.189,0,0,0,129.93,126.34Z"/>
      <path class="m" d="M132.987,126.584h-.354V121.02h.354Z"/>
      <path class="m" d="M137.5,124.635a2.2,2.2,0,0,1-.462,1.486,1.588,1.588,0,0,1-1.272.534,1.65,1.65,0,0,1-.9-.246,1.572,1.572,0,0,1-.6-.709,2.559,2.559,0,0,1-.208-1.065,2.19,2.19,0,0,1,.461-1.482,1.591,1.591,0,0,1,1.266-.531,1.562,1.562,0,0,1,1.257.538A2.211,2.211,0,0,1,137.5,124.635Zm-3.068,0a1.979,1.979,0,0,0,.352,1.25,1.33,1.33,0,0,0,1.991,0,1.979,1.979,0,0,0,.353-1.25,1.948,1.948,0,0,0-.356-1.248,1.209,1.209,0,0,0-1-.443,1.187,1.187,0,0,0-.992.442A1.967,1.967,0,0,0,134.435,124.635Z"/>
      <path class="m" d="M137.928,122.7h.365l.822,2.181q.377,1.005.476,1.355h.021q.151-.46.49-1.376l.822-2.16h.365l-1.741,4.516a3.569,3.569,0,0,1-.354.744.953.953,0,0,1-.334.29,1.025,1.025,0,0,1-.463.1,1.608,1.608,0,0,1-.455-.075v-.308a1.689,1.689,0,0,0,.447.058.6.6,0,0,0,.322-.086.81.81,0,0,0,.252-.266,3.474,3.474,0,0,0,.261-.573q.149-.392.192-.509Z"/>
      <path class="m" d="M143.51,126.655a1.691,1.691,0,0,1-1.321-.521,2.1,2.1,0,0,1-.474-1.463,2.277,2.277,0,0,1,.458-1.49,1.512,1.512,0,0,1,1.233-.559,1.331,1.331,0,0,1,1.084.479,1.981,1.981,0,0,1,.4,1.3v.286h-2.8a1.839,1.839,0,0,0,.373,1.222,1.314,1.314,0,0,0,1.05.422,3.267,3.267,0,0,0,.585-.046,3.523,3.523,0,0,0,.638-.2v.322a2.823,2.823,0,0,1-.608.194A3.336,3.336,0,0,1,143.51,126.655Zm-.1-3.719a1.165,1.165,0,0,0-.9.371,1.747,1.747,0,0,0-.4,1.067h2.4a1.7,1.7,0,0,0-.293-1.057A.97.97,0,0,0,143.406,122.936Z"/>
      <path class="m" d="M147.529,126.655a1.693,1.693,0,0,1-1.321-.521,2.1,2.1,0,0,1-.474-1.463,2.277,2.277,0,0,1,.458-1.49,1.512,1.512,0,0,1,1.233-.559,1.331,1.331,0,0,1,1.084.479,1.981,1.981,0,0,1,.4,1.3v.286h-2.8a1.839,1.839,0,0,0,.373,1.222,1.314,1.314,0,0,0,1.05.422,3.267,3.267,0,0,0,.585-.046,3.523,3.523,0,0,0,.638-.2v.322a2.823,2.823,0,0,1-.608.194A3.336,3.336,0,0,1,147.529,126.655Zm-.1-3.719a1.165,1.165,0,0,0-.9.371,1.747,1.747,0,0,0-.4,1.067h2.4a1.7,1.7,0,0,0-.293-1.057A.97.97,0,0,0,147.425,122.936Z"/>
      <path class="m" d="M152.388,125.572a.925.925,0,0,1-.4.8,1.931,1.931,0,0,1-1.126.28,2.681,2.681,0,0,1-1.237-.239v-.383a2.723,2.723,0,0,0,1.237.294,1.626,1.626,0,0,0,.874-.192.581.581,0,0,0,.3-.509.621.621,0,0,0-.238-.494,2.605,2.605,0,0,0-.781-.393,4.5,4.5,0,0,1-.819-.363,1.128,1.128,0,0,1-.356-.343.862.862,0,0,1-.119-.467.8.8,0,0,1,.366-.69,1.782,1.782,0,0,1,1.024-.254,3.077,3.077,0,0,1,1.195.236l-.133.322a2.785,2.785,0,0,0-1.062-.236,1.535,1.535,0,0,0-.754.157.484.484,0,0,0-.279.436.606.606,0,0,0,.216.487,3,3,0,0,0,.846.407,4.173,4.173,0,0,1,.765.342,1.107,1.107,0,0,1,.36.345A.849.849,0,0,1,152.388,125.572Z"/>
    </g>
    <polyline class="f" points="78.144 144.679 76.178 146.644 74.212 144.679"/>
    <line class="h" x1="80.908" y1="48.23" x2="80.908" y2="151.595"/>
    <polyline class="f" points="157.998 70.469 155.21 73.257 152.422 70.469"/>
    <polyline class="f" points="158.582 90.765 155.963 93.384 153.344 90.765"/>
  </g>
  <path class="m" d="M21.748,27.512A9.034,9.034,0,1,0,30.7,36.559,9.084,9.084,0,0,0,21.748,27.512ZM18.892,41.843c-1.108.187-2.021-.128-2.246-1.065a6.336,6.336,0,0,1-.141-1.047c-.023-.373.018-.751-.011-1.124-.078-1.025-.211-1.375-1.2-1.423V35.907a1.949,1.949,0,0,1,.214-.036.791.791,0,0,0,.888-.724,6.023,6.023,0,0,0,.1-.9c.043-.587.027-1.183.125-1.76A1.436,1.436,0,0,1,18.139,31.2c.243-.013.488,0,.764,0v1.145c-.114.008-.218.025-.322.022-.7-.022-.733.216-.784.793-.032.363.012.731-.013,1.094a8.495,8.495,0,0,1-.145,1.077,1.992,1.992,0,0,1-.856,1.224,2.589,2.589,0,0,1,1,2.291c.03.47.017.944.064,1.412.037.363.179.456.554.467.154,0,.309,0,.487,0Zm.206-4.565a.735.735,0,1,1,.763-.72A.722.722,0,0,1,19.1,37.278Zm2.587,0a.692.692,0,0,1-.749-.721.7.7,0,0,1,.726-.749.691.691,0,0,1,.744.726A.684.684,0,0,1,21.685,37.278Zm2.546,0a.743.743,0,0,1-.749-.742A.759.759,0,0,1,25,36.553.735.735,0,0,1,24.231,37.278Zm3.822-.1a1.145,1.145,0,0,1-.174.042.889.889,0,0,0-.973.921c-.04.4-.037.8-.064,1.206a10.449,10.449,0,0,1-.12,1.315,1.421,1.421,0,0,1-1.466,1.231c-.262.015-.526,0-.808,0V40.75c.151-.01.285-.022.42-.026.486-.011.658-.168.682-.651.026-.53.037-1.062.061-1.592a2.242,2.242,0,0,1,.959-1.931,1.8,1.8,0,0,1-.822-1.12c-.1-.577-.137-1.167-.191-1.752-.028-.292-.026-.587-.055-.879-.031-.316-.247-.425-.535-.432-.164,0-.329,0-.54,0V31.252c1.342-.222,2.27.224,2.356,1.508.036.539.03,1.081.065,1.62a4.548,4.548,0,0,0,.131.87.742.742,0,0,0,.816.619c.077,0,.153.017.258.029Z"/>
</svg>
