<?xml version="1.0" encoding="UTF-8" standalone="no"?>
<svg
   xmlns:dc="http://purl.org/dc/elements/1.1/"
   xmlns:cc="http://creativecommons.org/ns#"
   xmlns:rdf="http://www.w3.org/1999/02/22-rdf-syntax-ns#"
   xmlns:svg="http://www.w3.org/2000/svg"
   xmlns="http://www.w3.org/2000/svg"
   style="fill:none"
   id="svg16"
   version="1.1"
   viewBox="0 0 1645.934 399"
   height="399"
   width="1645.934">
  <metadata
     id="metadata22">
    <rdf:RDF>
      <cc:Work
         rdf:about="">
        <dc:format>image/svg+xml</dc:format>
        <dc:type
           rdf:resource="http://purl.org/dc/dcmitype/StillImage" />
      </cc:Work>
    </rdf:RDF>
  </metadata>
  <defs
     id="defs20" />
  <path
     style="fill:#b91217"
     id="path2"
     d="m 119.33398,398.4 c -1.6,-0.2 -7.3,-0.9 -12.5,-1.5 C 58.533883,391.3 23.233883,361.6 8.4339126,314 c -14.1,-45.2 -10.2,-104.6 9.2999704,-141.6 13.4,-25.5 33.5,-45 55.4,-54 4.5,-1.8 12.5,-4.5 17.7,-5.9 17.800097,-4.8 28.200097,-5.5 77.100097,-5.5 h 44.9 V 53.5 0 h 34.5 34.5 V 199.5 399 l -79.7,-0.1 c -43.9,-0.1 -81.1,-0.4 -82.8,-0.5 z m 93.5,-146.4 v -91 h -28.2 c -35.7,0.1 -48.8,1 -60.4,4.5 -27.800097,8.4 -42.200097,23.9 -49.700097,53.3 -1.9,7.7 -2.2,11.3 -2.2,32.7 0,19.7 0.3,25.5 1.9,32.5 7.1,32.7 23.8,51.2 51.400097,57 7.5,1.6 13.9,1.9 48,1.9 l 39.2,0.1 z" />
  <path
     style="fill:#b91217"
     id="path4"
     d="m 427.83498,398 c -29.3,-3 -58.4,-15.9 -80.6,-35.6 -11.4,-10.1 -15.3,-14.4 -23.6,-26.1 -11.9,-16.7 -19.3,-34.9 -23.9,-58.3 -6.6,-34 1.8,-74.8 21.5,-104.4 25,-37.6 64.4,-60.8 109.3,-64.6 42.5,-3.6 82.3,10.6 112.6,40 20.5,19.7 31.9,39.2 39.9,67.8 4.1,14.9 5.1,24.4 4.5,42.2 -0.6,16.3 -3.1,28.8 -9.3,46.3 -8.9,24.9 -30.6,52.4 -53.6,68 -9.3,6.3 -26.7,14.7 -38.3,18.6 -16.1,5.4 -40.7,7.9 -58.5,6.1 z m 69.8,-62.3 c 2.3,-1.5 5.1,-4.5 6.2,-6.7 2,-3.9 2.1,-5.4 1.8,-39.9 l -0.3,-35.8 -2.8,-3.6 c -1.5,-2 -4.1,-4.4 -5.7,-5.2 l -2.8,-1.5 -0.4,-26.3 -0.3,-26.3 -3,-5.9 c -3.4,-6.6 -9.3,-11.8 -15.3,-13.5 -2.2,-0.6 -16.4,-1 -34.7,-1 -34.8,0 -35.6,0.2 -42.9,7.5 -7.4,7.4 -7.9,9.7 -8.4,39.2 l -0.4,26.2 -3.8,2.5 c -2.2,1.4 -4.7,4.3 -5.9,6.8 -2,4.2 -2.1,5.8 -2.1,38.1 0,36.9 0.1,37.8 5.9,43.2 5.7,5.4 5.6,5.4 60.2,5.2 l 50.5,-0.2 z" />
  <path
     style="fill:#b91217"
     id="path6"
     d="m 409.83398,217.6 c 0,-12.9 0.3,-24.2 0.6,-25.1 1.6,-4 5.1,-4.5 32.7,-4.5 25.2,0 26.6,0.1 29.1,2.1 l 2.6,2 v 24.5 24.4 h -32.5 -32.5 z" />
  <path
     style="fill:#b91217"
     id="path8"
     d="m 693.33398,397.9 c -29.7,-3.7 -51.4,-22.3 -58.4,-49.9 -3.8,-15 -4.1,-23.3 -4.1,-106.2 V 161 h -26.5 -26.5 v -27 -27 h 26.5 26.5 V 53.5 0 h 34.5 34.5 V 53.5 107 h 40.5 40.5 v 27 27 h -40.5 -40.5 v 68.8 c 0.1,69.3 0.6,85 3.5,94.9 2.1,7.2 7.1,12.6 14.3,15.5 5.3,2 7.5,2.2 34.5,2.6 l 28.7,0.4 v 27.9 27.9 l -40.2,-0.1 c -22.2,-0.1 -43.4,-0.5 -47.3,-1 z" />
  <path
     style="fill:#1f191a"
     id="path10"
     d="M 800.83398,202 V 6 h 65.8 c 103.3,0.1 120.9,1.7 144.90002,13.1 13.1,6.2 31.2,21.9 40.6,35.1 5.4,7.6 13.1,22 16.3,30.5 12.9,34.3 14.3,87.5 3.2,124.8 -3.3,11 -12.3,30.5 -18.7,40.3 -5.8,8.8 -19.3,22.6 -28,28.5 -8.7,5.9 -23.1,12.7 -31.60002,15 -15.9,4.4 -24.2,5 -74.2,5.4 l -48.3,0.5 v 49.4 49.4 h -35 -35 z m 145,39.5 c 30.9,-4.7 44.7,-16.2 54.90002,-46 4.3,-12.6 6.2,-26.9 6.2,-46 0,-19.4 -1.7,-30.5 -6.6,-43 -8.80002,-22.8 -21.20002,-34.1 -45.10002,-40.9 -12.3,-3.6 -24.4,-4.5 -56.6,-4.6 h -27.8 v 91 91 h 32.8 c 23.5,0 35.4,-0.4 42.2,-1.5 z" />
  <path
     style="fill:#1f191a"
     id="path12"
     d="m 1385.634,396.4 c -0.5,-0.4 -0.8,-13 -0.8,-28.1 V 341 h 74.3 c 83.9,-0.1 92.2,-0.5 101.4,-5 10.8,-5.3 13.6,-10.5 15.1,-28.2 l 0.8,-8.8 h -47.3 c -62.3,0 -75.1,-1.6 -95.3,-12.1 -17.6,-9.1 -29.5,-21.3 -38.6,-39.4 -9.3,-18.8 -10.4,-34.5 -10.4,-156.7 V 7 h 35.5 35.5 v 91.3 c 0,56.8 0.4,94.5 1,99.7 2.7,22.2 8.8,34.3 20.1,40 8.6,4.4 14.8,5 58.7,5 h 41.2 V 125 7 h 34.5 34.6 l -0.4,148.3 c -0.3,146.9 -0.3,148.3 -2.5,159.2 -2.9,15.1 -5.7,24.5 -9.6,33.1 -3.9,8.4 -12.4,20.2 -18.7,26 -9.8,8.9 -27.6,17.1 -42.2,19.4 -3.9,0.7 -9.9,1.6 -13.2,2.2 -7.2,1.1 -172.7,2.3 -173.7,1.2 z" />
  <path
     style="fill:#1f191a"
     id="path14"
     d="m 1169.834,298.3 c -28.1,-2.6 -38.9,-6.3 -54.9,-18.6 -11.1,-8.6 -21.9,-25.4 -26.2,-41.2 -3.2,-12 -3.8,-37.4 -1.1,-50.5 3.2,-15.7 9,-27.9 19.3,-40.7 8,-9.9 24.3,-19.5 39.2,-23.2 15.9,-3.9 22.8,-4.3 89.5,-4.8 l 65.2,-0.5 v -2.7 c 0,-1.4 -0.5,-7.5 -1,-13.6 -0.9,-9.4 -1.5,-12.1 -4.5,-18.2 -7.5,-15.2 -18.5,-20.8 -44.5,-22.4 -8,-0.4 -45,-0.9 -82.2,-0.9 h -67.8 V 34 7 h 87.4 c 87.3,0 99.7,0.4 115.6,3.6 18.2,3.8 26.9,8.3 39,20.4 14.1,14.1 20.4,26.2 24.7,47.5 1.4,7 1.7,20.9 2,114.3 l 0.4,106.2 -98.3,-0.2 c -54.1,0 -99.9,-0.3 -101.8,-0.5 z m 131,-89.4 v -34 l -58.2,0.3 c -52.8,0.4 -58.8,0.6 -63.8,2.2 -14.9,4.9 -23,18.5 -21.7,36.4 1.3,16.6 9.8,25 28.5,28.2 2.6,0.4 29.6,0.8 60,0.9 l 55.2,0.1 z" />
</svg>
