<?xml version="1.0" standalone="no"?>
<!DOCTYPE svg PUBLIC "-//W3C//DTD SVG 20010904//EN"
 "http://www.w3.org/TR/2001/REC-SVG-20010904/DTD/svg10.dtd">
<svg version="1.0" xmlns="http://www.w3.org/2000/svg"
 width="1280.000000pt" height="853.000000pt" viewBox="0 0 1280.000000 853.000000"
 preserveAspectRatio="xMidYMid meet">
<g transform="translate(0.000000,853.000000) scale(0.100000,-0.100000)"
fill="#000000" stroke="none">
<path d="M5955 6735 c-268 -30 -518 -93 -688 -174 -152 -72 -242 -149 -291
-245 -25 -49 -28 -64 -25 -133 3 -61 10 -90 32 -134 120 -236 548 -463 1092
-579 83 -18 155 -36 161 -41 6 -5 24 -76 39 -157 63 -338 75 -396 90 -418 20
-30 74 -45 120 -33 46 13 68 36 284 292 101 120 194 225 208 234 18 12 62 19
152 25 638 40 1025 178 1183 422 34 54 38 65 38 126 0 84 -18 135 -75 215
-198 278 -714 490 -1425 585 -205 28 -701 36 -895 15z m655 -35 c669 -36 1310
-240 1564 -498 51 -52 55 -59 32 -55 -32 7 -32 -1 -1 -69 50 -106 26 -189 -83
-296 -54 -52 -72 -76 -64 -84 18 -18 54 -1 112 50 74 66 110 133 112 209 1 32
-2 69 -5 83 -4 15 0 10 9 -10 23 -49 14 -137 -20 -194 -56 -96 -180 -184 -358
-255 -172 -68 -471 -126 -707 -136 -69 -3 -158 -8 -198 -11 l-71 -6 -44 -51
c-23 -29 -106 -124 -183 -211 -77 -88 -159 -183 -182 -211 -22 -29 -49 -55
-58 -59 -22 -8 -53 -8 -58 2 -3 4 -21 95 -41 202 -61 326 -68 359 -85 374 -9
8 -76 26 -150 41 -524 105 -916 298 -1062 522 -43 65 -44 69 -44 148 0 91 12
121 78 192 181 196 658 324 1237 331 52 1 174 -3 270 -8z"/>
<path d="M5385 6478 c-101 -61 -143 -100 -195 -179 -26 -40 -31 -56 -31 -117
-1 -84 17 -125 62 -141 69 -24 86 -8 68 65 -29 112 43 232 187 315 67 38 73
48 44 71 -32 26 -77 21 -135 -14z"/>
<path d="M6397 5483 c-12 -11 -8 -52 23 -217 38 -202 40 -206 84 -206 23 0 36
6 40 17 4 9 -10 98 -30 197 -28 137 -41 185 -56 199 -21 17 -49 22 -61 10z"/>
<path d="M2860 6694 c-693 -62 -1243 -243 -1578 -520 -101 -84 -147 -137 -197
-228 -69 -125 -82 -232 -41 -348 42 -118 141 -236 276 -328 198 -134 568 -254
880 -285 546 -54 1061 -4 1573 151 181 55 163 59 664 -144 255 -104 435 -172
455 -172 43 0 78 25 78 54 0 13 -19 45 -42 72 -113 130 -437 491 -451 503 -9
7 -17 18 -17 23 0 6 35 45 79 87 260 252 276 512 45 738 -140 136 -392 256
-683 324 -236 55 -381 71 -696 74 -165 1 -320 1 -345 -1z m745 -58 c345 -49
640 -145 821 -266 88 -59 183 -160 221 -235 48 -94 56 -198 23 -295 -31 -92
-99 -188 -191 -272 -43 -39 -79 -78 -79 -86 0 -16 30 -51 308 -365 111 -126
202 -233 202 -238 0 -23 -54 -9 -170 43 -25 12 -67 29 -95 38 -27 10 -196 77
-374 149 -178 72 -336 131 -351 131 -15 0 -60 -11 -101 -25 -390 -134 -807
-192 -1292 -182 -425 9 -721 64 -988 182 -203 90 -329 183 -402 297 -257 402
242 856 1163 1062 120 26 340 60 495 75 140 14 680 5 810 -13z"/>
<path d="M3972 6507 c-18 -21 0 -34 94 -71 177 -67 283 -133 380 -234 50 -52
65 -63 83 -57 37 11 26 48 -32 107 -93 94 -236 179 -400 237 -99 35 -110 36
-125 18z"/>
<path d="M1131 5727 c-16 -20 -4 -90 25 -148 74 -148 234 -269 482 -363 145
-55 433 -123 467 -110 16 6 21 39 7 48 -4 2 -61 16 -127 31 -344 76 -613 213
-718 366 -21 30 -48 84 -60 119 -23 68 -50 88 -76 57z"/>
<path d="M4283 5463 c-26 -10 -12 -42 49 -114 171 -205 291 -338 311 -343 26
-6 49 11 45 35 -2 15 -272 332 -345 407 -22 22 -36 25 -60 15z"/>
<path d="M9865 6304 c-126 -11 -353 -48 -485 -80 -309 -76 -524 -181 -672
-329 -115 -115 -170 -260 -148 -388 22 -121 80 -219 203 -340 89 -87 88 -82
15 -157 -76 -79 -426 -477 -436 -497 -16 -30 -15 -40 8 -63 27 -27 72 -26 151
4 113 43 271 106 364 146 50 21 170 70 268 109 211 85 239 87 386 40 215 -69
480 -123 756 -155 206 -24 597 -24 795 0 477 57 827 188 1038 390 118 113 176
235 173 367 -2 120 -73 255 -196 374 -282 275 -818 481 -1460 561 -125 15
-640 27 -760 18z m800 -63 c602 -82 1092 -268 1367 -520 80 -73 155 -183 181
-266 26 -84 20 -200 -15 -275 -127 -276 -571 -474 -1188 -530 -147 -13 -510
-13 -665 0 -307 27 -622 91 -879 180 -33 11 -70 20 -84 20 -22 0 -322 -115
-587 -225 -44 -19 -100 -41 -125 -50 -25 -10 -61 -24 -80 -33 -126 -56 -200
-75 -200 -52 0 7 346 405 487 560 13 14 23 31 23 39 0 7 -44 57 -97 110 -81
79 -106 111 -143 185 -44 87 -45 91 -45 185 0 87 3 102 32 164 128 270 563
465 1173 526 164 16 672 6 845 -18z"/>
<path d="M9220 6106 c-172 -61 -324 -152 -413 -245 -57 -60 -70 -94 -41 -105
22 -8 41 4 99 65 93 97 232 179 406 241 50 18 64 28 64 43 0 28 -37 29 -115 1z"/>
<path d="M12116 5341 c-4 -5 -15 -38 -26 -73 -11 -34 -36 -84 -55 -110 -113
-154 -378 -287 -720 -363 -66 -15 -123 -29 -127 -31 -15 -10 -8 -43 10 -48 21
-7 173 22 311 60 251 68 472 191 573 318 70 88 114 209 88 241 -14 17 -46 20
-54 6z"/>
<path d="M8970 5067 c-9 -7 -94 -101 -189 -209 -110 -127 -171 -204 -169 -215
2 -12 14 -19 35 -21 29 -3 40 7 150 135 208 241 233 272 233 292 0 29 -34 39
-60 18z"/>
<path d="M5715 4627 l-60 -22 -81 -240 c-89 -261 -85 -257 -104 -105 -9 70
-73 327 -85 338 -5 5 -1619 -400 -1628 -409 -10 -8 -596 -2343 -596 -2374 -1
-15 36 -45 133 -111 l134 -90 353 38 c194 21 355 42 359 47 3 6 25 275 49 598
24 323 46 613 49 642 l7 55 460 82 c253 45 461 81 462 80 2 -1 -97 -300 -218
-664 l-221 -663 28 -104 c20 -76 33 -105 44 -105 19 0 600 157 607 164 3 2 49
141 102 308 l98 303 379 77 c208 42 387 78 398 80 15 3 27 -21 71 -146 l52
-150 87 -67 86 -67 113 29 c218 58 290 78 294 83 4 4 -11 69 -24 103 -3 8 23
-6 58 -32 150 -111 345 -209 563 -284 113 -39 284 -81 330 -81 15 0 70 -37
156 -106 72 -58 172 -132 222 -164 l90 -58 111 52 112 52 32 110 c18 60 33
116 33 125 0 14 -28 35 -143 111 -7 4 5 24 29 50 95 103 137 184 203 395 94
301 95 308 96 503 0 210 -16 284 -100 456 -177 364 -529 635 -977 753 -343 91
-630 87 -835 -10 -74 -35 -284 -191 -372 -276 -36 -35 -67 -61 -69 -59 -2 2
-53 170 -114 373 -61 202 -111 369 -112 370 -3 4 -482 33 -538 32 -39 0 -86
-9 -123 -22z m-255 -594 c0 -5 -16 -57 -37 -118 -27 -83 -38 -105 -44 -90 -4
11 -8 30 -8 42 -1 12 -5 24 -9 27 -5 3 -246 -46 -537 -109 -291 -63 -531 -113
-532 -112 -1 2 1 28 4 59 l6 57 51 11 c28 6 281 62 561 124 522 117 545 121
545 109z m660 -673 c55 -161 98 -295 96 -298 -8 -7 -406 -59 -406 -53 -1 10
204 650 207 647 1 -1 48 -134 103 -296z m1440 199 c329 -84 580 -306 669 -594
27 -86 38 -244 23 -340 -12 -73 -27 -95 -95 -131 -27 -14 -29 -13 -120 60 -90
72 -284 206 -298 206 -10 0 -120 -136 -144 -177 -11 -18 -24 -33 -30 -33 -16
0 -104 62 -162 114 -112 101 -186 228 -231 396 -21 81 -25 118 -26 250 -1 181
10 235 52 251 87 34 224 33 362 -2z"/>
</g>
</svg>
