<?xml version="1.0" encoding="UTF-8" standalone="no"?>
<svg
   xmlns:dc="http://purl.org/dc/elements/1.1/"
   xmlns:cc="http://creativecommons.org/ns#"
   xmlns:rdf="http://www.w3.org/1999/02/22-rdf-syntax-ns#"
   xmlns:svg="http://www.w3.org/2000/svg"
   xmlns="http://www.w3.org/2000/svg"
   xmlns:sodipodi="http://sodipodi.sourceforge.net/DTD/sodipodi-0.dtd"
   xmlns:inkscape="http://www.inkscape.org/namespaces/inkscape"
   version="1"
   viewBox="0 0 138.64406 131.49152"
   enable-background="new 0 0 48 48"
   id="svg10"
   sodipodi:docname="faq.svg"
   width="138.64406"
   height="131.49152"
   inkscape:version="0.92.4 5da689c313, 2019-01-14">
  <metadata
     id="metadata16">
    <rdf:RDF>
      <cc:Work
         rdf:about="">
        <dc:format>image/svg+xml</dc:format>
        <dc:type
           rdf:resource="http://purl.org/dc/dcmitype/StillImage" />
      </cc:Work>
    </rdf:RDF>
  </metadata>
  <defs
     id="defs14" />
  <sodipodi:namedview
     pagecolor="#ffffff"
     bordercolor="#666666"
     borderopacity="1"
     objecttolerance="10"
     gridtolerance="10"
     guidetolerance="10"
     inkscape:pageopacity="0"
     inkscape:pageshadow="2"
     inkscape:window-width="1920"
     inkscape:window-height="1146"
     id="namedview12"
     showgrid="false"
     inkscape:zoom="4.9166667"
     inkscape:cx="21.830509"
     inkscape:cy="78.745762"
     inkscape:window-x="0"
     inkscape:window-y="0"
     inkscape:window-maximized="1"
     inkscape:current-layer="svg10" />
  <path
     d="m 38.127119,112.70702 h 79.720341 l 20.7966,18.7845 V 65.745762 c 0,-6.887651 -6.23898,-12.523002 -13.8644,-12.523002 H 38.127119 c -7.625423,0 -13.864407,5.635351 -13.864407,12.523002 v 34.438258 c 0,6.88765 6.238984,12.523 13.864407,12.523 z"
     id="path2"
     inkscape:connector-curvature="0"
     style="fill:#0047bb;stroke-width:3.29416156" />
  <path
     d="M 85.959323,90.165617 H 73.481356 l -2.426271,6.574576 H 63.429661 L 76.254237,65.432687 h 6.585594 l 12.824576,31.307506 h -7.625424 z m -10.744916,-5.0092 h 8.665254 L 79.72034,73.259564 Z"
     id="path4"
     inkscape:connector-curvature="0"
     style="fill:#ffffff;stroke-width:3.29416156" />
  <path
     d="M 100.51695,65.745762 H 20.79661 L 0,84.530266 V 12.523002 C 0,5.635351 6.238983,0 13.864407,0 h 86.652543 c 7.62542,0 13.86441,5.635351 13.86441,12.523002 V 53.22276 c 0,6.887651 -6.23899,12.523002 -13.86441,12.523002 z"
     id="path6"
     inkscape:connector-curvature="0"
     style="fill:#0006ff;stroke-width:3.29416156" />
  <path
     d="m 74.174577,31.933656 c 0,3.13075 -0.693221,5.635351 -1.733051,7.826877 -1.03983,2.191524 -2.426271,4.069975 -4.505932,5.322275 l 5.892373,4.069977 -4.505933,3.7569 -7.625424,-5.322276 c -0.693219,0 -1.733051,0.313075 -2.772881,0.313075 -2.07966,0 -4.159322,-0.313075 -6.238982,-0.939225 -1.733051,-0.62615 -3.466102,-1.878451 -4.852543,-3.130751 -1.38644,-1.252301 -2.426272,-3.13075 -3.119492,-5.009201 -0.69322,-1.87845 -1.039831,-4.069976 -1.039831,-6.574576 v -1.2523 c 0,-2.504601 0.346611,-4.696126 1.039831,-6.574576 0.69322,-1.878451 1.733052,-3.756902 3.119492,-5.009202 1.386441,-1.252299 2.772881,-2.5046 4.852543,-3.13075 1.73305,-0.62615 3.812711,-0.939225 6.238982,-0.939225 2.079662,0 4.159322,0.313075 6.238983,0.939225 1.733052,0.62615 3.466103,1.878451 4.852543,3.13075 1.386441,1.2523 2.426271,3.130751 3.119492,5.009202 0.69322,1.87845 1.03983,4.069975 1.03983,6.574576 z m -7.625424,-1.565375 c 0,-3.443827 -0.693221,-5.948426 -2.07966,-7.513802 -1.386442,-1.878451 -3.119492,-2.504601 -5.545764,-2.504601 -2.426271,0 -4.505932,0.939225 -5.545762,2.504601 -1.386441,1.878451 -2.079662,4.38305 -2.079662,7.513802 v 1.565375 c 0,1.565376 0.346611,3.13075 0.693221,4.38305 0.34661,1.252301 0.693221,2.504601 1.386441,3.130752 0.693219,0.939225 1.38644,1.565375 2.42627,1.87845 1.039832,0.313075 2.079662,0.626149 3.119492,0.626149 2.426272,0 4.505932,-0.939224 5.545764,-2.504599 1.386439,-1.878451 2.07966,-4.383052 2.07966,-7.826877 z"
     id="path8"
     inkscape:connector-curvature="0"
     style="fill:#ffc72c;stroke-width:3.29416156" />
</svg>
