<svg xmlns="http://www.w3.org/2000/svg" width="560" height="268" fill="none" xmlns:v="https://vecta.io/nano"><style><![CDATA[.B{fill:#f0f0f0}.C{fill:#ffd400}]]></style><rect x="436" y="54" width="16" height="16" rx="2" class="B"/><rect x="436" y="72" width="16" height="16" rx="2" class="C"/><g class="B"><rect x="436" y="90" width="16" height="16" rx="2"/><rect x="418" y="54" width="16" height="16" rx="2"/><rect x="418" y="72" width="16" height="16" rx="2"/><rect x="418" y="90" width="16" height="16" rx="2"/><rect x="400" y="54" width="16" height="16" rx="2"/><rect x="400" y="72" width="16" height="16" rx="2"/><rect x="400" y="90" width="16" height="16" rx="2"/><rect x="544" y="54" width="16" height="16" rx="2"/><rect x="544" y="72" width="16" height="16" rx="2"/></g><rect x="544" y="90" width="16" height="16" rx="2" class="C"/><g class="B"><rect x="526" y="54" width="16" height="16" rx="2"/><rect x="526" y="72" width="16" height="16" rx="2"/><rect x="526" y="90" width="16" height="16" rx="2"/><rect x="508" y="54" width="16" height="16" rx="2"/><rect x="508" y="72" width="16" height="16" rx="2"/><rect x="508" y="90" width="16" height="16" rx="2"/><rect x="436" width="16" height="16" rx="2"/><rect x="436" y="18" width="16" height="16" rx="2"/><rect x="436" y="36" width="16" height="16" rx="2"/><rect x="418" width="16" height="16" rx="2"/><rect x="418" y="18" width="16" height="16" rx="2"/><rect x="418" y="36" width="16" height="16" rx="2"/><rect x="400" width="16" height="16" rx="2"/></g><rect x="400" y="18" width="16" height="16" rx="2" class="C"/><g class="B"><rect x="400" y="36" width="16" height="16" rx="2"/><rect x="544" width="16" height="16" rx="2"/><rect x="544" y="18" width="16" height="16" rx="2"/><rect x="544" y="36" width="16" height="16" rx="2"/><rect x="526" width="16" height="16" rx="2"/></g><rect x="526" y="18" width="16" height="16" rx="2" class="C"/><g class="B"><rect x="526" y="36" width="16" height="16" rx="2"/><rect x="508" width="16" height="16" rx="2"/><rect x="508" y="18" width="16" height="16" rx="2"/><rect x="508" y="36" width="16" height="16" rx="2"/><rect x="436" y="108" width="16" height="16" rx="2"/><rect x="436" y="126" width="16" height="16" rx="2"/><rect x="436" y="144" width="16" height="16" rx="2"/><rect x="418" y="108" width="16" height="16" rx="2"/></g><rect x="418" y="126" width="16" height="16" rx="2" class="C"/><g class="B"><rect x="418" y="144" width="16" height="16" rx="2"/><rect x="400" y="108" width="16" height="16" rx="2"/><rect x="400" y="126" width="16" height="16" rx="2"/><rect x="400" y="144" width="16" height="16" rx="2"/><rect x="490" y="108" width="16" height="16" rx="2"/><rect x="490" y="126" width="16" height="16" rx="2"/><rect x="490" y="144" width="16" height="16" rx="2"/><rect x="472" y="108" width="16" height="16" rx="2"/><rect x="472" y="126" width="16" height="16" rx="2"/><rect x="472" y="144" width="16" height="16" rx="2"/><rect x="454" y="108" width="16" height="16" rx="2"/><rect x="454" y="126" width="16" height="16" rx="2"/><rect x="454" y="144" width="16" height="16" rx="2"/><rect x="544" y="108" width="16" height="16" rx="2"/><rect x="544" y="126" width="16" height="16" rx="2"/><rect x="544" y="144" width="16" height="16" rx="2"/><rect x="526" y="108" width="16" height="16" rx="2"/><rect x="526" y="126" width="16" height="16" rx="2"/><rect x="526" y="144" width="16" height="16" rx="2"/><rect x="508" y="108" width="16" height="16" rx="2"/><rect x="508" y="126" width="16" height="16" rx="2"/></g><rect x="508" y="144" width="16" height="16" rx="2" class="C"/><g class="B"><rect x="544" y="162" width="16" height="16" rx="2"/><rect x="544" y="180" width="16" height="16" rx="2"/><rect x="544" y="198" width="16" height="16" rx="2"/><rect x="526" y="162" width="16" height="16" rx="2"/></g><rect x="526" y="180" width="16" height="16" rx="2" class="C"/><g class="B"><rect x="526" y="198" width="16" height="16" rx="2"/><rect x="508" y="162" width="16" height="16" rx="2"/><rect x="508" y="180" width="16" height="16" rx="2"/><rect x="508" y="198" width="16" height="16" rx="2"/><rect x="544" y="216" width="16" height="16" rx="2"/><rect x="544" y="234" width="16" height="16" rx="2"/></g><rect x="544" y="252" width="16" height="16" rx="2" class="C"/><g class="B"><rect x="526" y="216" width="16" height="16" rx="2"/><rect x="526" y="234" width="16" height="16" rx="2"/><rect x="526" y="252" width="16" height="16" rx="2"/><rect x="508" y="216" width="16" height="16" rx="2"/><rect x="508" y="234" width="16" height="16" rx="2"/><rect x="508" y="252" width="16" height="16" rx="2"/><rect width="16" height="16" rx="2" transform="matrix(-1 0 0 1 324 54)"/><rect width="16" height="16" rx="2" transform="matrix(-1 0 0 1 324 72)"/></g><rect width="16" height="16" rx="2" transform="matrix(-1 0 0 1 324 90)" class="C"/><g class="B"><rect width="16" height="16" rx="2" transform="matrix(-1 0 0 1 342 54)"/><rect width="16" height="16" rx="2" transform="matrix(-1 0 0 1 342 72)"/><rect width="16" height="16" rx="2" transform="matrix(-1 0 0 1 342 90)"/><rect width="16" height="16" rx="2" transform="matrix(-1 0 0 1 360 54)"/><rect width="16" height="16" rx="2" transform="matrix(-1 0 0 1 360 72)"/><rect width="16" height="16" rx="2" transform="matrix(-1 0 0 1 360 90)"/><rect width="16" height="16" rx="2" transform="matrix(-1 0 0 1 216 54)"/><rect width="16" height="16" rx="2" transform="matrix(-1 0 0 1 216 72)"/><rect width="16" height="16" rx="2" transform="matrix(-1 0 0 1 216 90)"/><rect width="16" height="16" rx="2" transform="matrix(-1 0 0 1 234 54)"/></g><rect width="16" height="16" rx="2" transform="matrix(-1 0 0 1 234 72)" class="C"/><g class="B"><rect width="16" height="16" rx="2" transform="matrix(-1 0 0 1 234 90)"/><rect width="16" height="16" rx="2" transform="matrix(-1 0 0 1 252 54)"/><rect width="16" height="16" rx="2" transform="matrix(-1 0 0 1 252 72)"/><rect width="16" height="16" rx="2" transform="matrix(-1 0 0 1 252 90)"/><rect width="16" height="16" rx="2" transform="matrix(-1 0 0 1 324 0)"/><rect width="16" height="16" rx="2" transform="matrix(-1 0 0 1 324 18)"/><rect width="16" height="16" rx="2" transform="matrix(-1 0 0 1 324 36)"/><rect width="16" height="16" rx="2" transform="matrix(-1 0 0 1 342 0)"/><rect width="16" height="16" rx="2" transform="matrix(-1 0 0 1 342 18)"/><rect width="16" height="16" rx="2" transform="matrix(-1 0 0 1 342 36)"/></g><rect width="16" height="16" rx="2" transform="matrix(-1 0 0 1 360 0)" class="C"/><g class="B"><rect width="16" height="16" rx="2" transform="matrix(-1 0 0 1 360 18)"/><rect width="16" height="16" rx="2" transform="matrix(-1 0 0 1 360 36)"/><rect width="16" height="16" rx="2" transform="matrix(-1 0 0 1 216 0)"/><rect width="16" height="16" rx="2" transform="matrix(-1 0 0 1 216 18)"/><rect width="16" height="16" rx="2" transform="matrix(-1 0 0 1 216 36)"/><rect width="16" height="16" rx="2" transform="matrix(-1 0 0 1 234 0)"/><rect width="16" height="16" rx="2" transform="matrix(-1 0 0 1 234 18)"/><rect width="16" height="16" rx="2" transform="matrix(-1 0 0 1 234 36)"/><rect width="16" height="16" rx="2" transform="matrix(-1 0 0 1 252 0)"/></g><rect width="16" height="16" rx="2" transform="matrix(-1 0 0 1 252 18)" class="C"/><g class="B"><rect width="16" height="16" rx="2" transform="matrix(-1 0 0 1 252 36)"/><rect width="16" height="16" rx="2" transform="matrix(-1 0 0 1 324 108)"/><rect width="16" height="16" rx="2" transform="matrix(-1 0 0 1 324 126)"/><rect width="16" height="16" rx="2" transform="matrix(-1 0 0 1 324 144)"/><rect width="16" height="16" rx="2" transform="matrix(-1 0 0 1 342 108)"/><rect width="16" height="16" rx="2" transform="matrix(-1 0 0 1 342 126)"/><rect width="16" height="16" rx="2" transform="matrix(-1 0 0 1 342 144)"/><rect width="16" height="16" rx="2" transform="matrix(-1 0 0 1 360 108)"/></g><rect width="16" height="16" rx="2" transform="matrix(-1 0 0 1 360 126)" class="C"/><g class="B"><rect width="16" height="16" rx="2" transform="matrix(-1 0 0 1 360 144)"/><rect width="16" height="16" rx="2" transform="matrix(-1 0 0 1 324 162)"/><rect width="16" height="16" rx="2" transform="matrix(-1 0 0 1 324 180)"/><rect width="16" height="16" rx="2" transform="matrix(-1 0 0 1 324 198)"/><rect width="16" height="16" rx="2" transform="matrix(-1 0 0 1 342 162)"/></g><rect width="16" height="16" rx="2" transform="matrix(-1 0 0 1 342 180)" class="C"/><g class="B"><rect width="16" height="16" rx="2" transform="matrix(-1 0 0 1 342 198)"/><rect width="16" height="16" rx="2" transform="matrix(-1 0 0 1 360 162)"/><rect width="16" height="16" rx="2" transform="matrix(-1 0 0 1 360 180)"/><rect width="16" height="16" rx="2" transform="matrix(-1 0 0 1 360 198)"/><rect width="16" height="16" rx="2" transform="matrix(-1 0 0 1 324 216)"/><rect width="16" height="16" rx="2" transform="matrix(-1 0 0 1 324 234)"/></g><rect width="16" height="16" rx="2" transform="matrix(-1 0 0 1 324 252)" class="C"/><g class="B"><rect width="16" height="16" rx="2" transform="matrix(-1 0 0 1 342 216)"/><rect width="16" height="16" rx="2" transform="matrix(-1 0 0 1 342 234)"/><rect width="16" height="16" rx="2" transform="matrix(-1 0 0 1 342 252)"/><rect width="16" height="16" rx="2" transform="matrix(-1 0 0 1 360 216)"/><rect width="16" height="16" rx="2" transform="matrix(-1 0 0 1 360 234)"/><rect width="16" height="16" rx="2" transform="matrix(-1 0 0 1 360 252)"/><rect width="16" height="16" rx="2" transform="matrix(-1 0 0 1 270 216)"/><rect width="16" height="16" rx="2" transform="matrix(-1 0 0 1 270 234)"/><rect width="16" height="16" rx="2" transform="matrix(-1 0 0 1 270 252)"/><rect width="16" height="16" rx="2" transform="matrix(-1 0 0 1 288 216)"/></g><rect width="16" height="16" rx="2" transform="matrix(-1 0 0 1 288 234)" class="C"/><g class="B"><rect width="16" height="16" rx="2" transform="matrix(-1 0 0 1 288 252)"/><rect width="16" height="16" rx="2" transform="matrix(-1 0 0 1 306 216)"/><rect width="16" height="16" rx="2" transform="matrix(-1 0 0 1 306 234)"/><rect width="16" height="16" rx="2" transform="matrix(-1 0 0 1 306 252)"/><rect width="16" height="16" rx="2" transform="matrix(-1 0 0 1 270 0)"/><rect width="16" height="16" rx="2" transform="matrix(-1 0 0 1 270 18)"/><rect width="16" height="16" rx="2" transform="matrix(-1 0 0 1 270 36)"/><rect width="16" height="16" rx="2" transform="matrix(-1 0 0 1 288 0)"/><rect width="16" height="16" rx="2" transform="matrix(-1 0 0 1 288 18)"/></g><rect width="16" height="16" rx="2" transform="matrix(-1 0 0 1 288 36)" class="C"/><g class="B"><rect width="16" height="16" rx="2" transform="matrix(-1 0 0 1 306 0)"/><rect width="16" height="16" rx="2" transform="matrix(-1 0 0 1 306 18)"/><rect width="16" height="16" rx="2" transform="matrix(-1 0 0 1 306 36)"/><rect width="16" height="16" rx="2" transform="matrix(-1 0 0 1 216 108)"/></g><rect width="16" height="16" rx="2" transform="matrix(-1 0 0 1 216 126)" class="C"/><g class="B"><rect width="16" height="16" rx="2" transform="matrix(-1 0 0 1 216 144)"/><rect width="16" height="16" rx="2" transform="matrix(-1 0 0 1 234 108)"/><rect width="16" height="16" rx="2" transform="matrix(-1 0 0 1 234 126)"/><rect width="16" height="16" rx="2" transform="matrix(-1 0 0 1 234 144)"/><rect width="16" height="16" rx="2" transform="matrix(-1 0 0 1 252 108)"/><rect width="16" height="16" rx="2" transform="matrix(-1 0 0 1 252 126)"/><rect width="16" height="16" rx="2" transform="matrix(-1 0 0 1 252 144)"/><rect width="16" height="16" rx="2" transform="matrix(-1 0 0 1 216 162)"/><rect width="16" height="16" rx="2" transform="matrix(-1 0 0 1 216 180)"/><rect width="16" height="16" rx="2" transform="matrix(-1 0 0 1 216 198)"/><rect width="16" height="16" rx="2" transform="matrix(-1 0 0 1 234 162)"/><rect width="16" height="16" rx="2" transform="matrix(-1 0 0 1 234 180)"/><rect width="16" height="16" rx="2" transform="matrix(-1 0 0 1 234 198)"/><rect width="16" height="16" rx="2" transform="matrix(-1 0 0 1 252 162)"/></g><rect width="16" height="16" rx="2" transform="matrix(-1 0 0 1 252 180)" class="C"/><g class="B"><rect width="16" height="16" rx="2" transform="matrix(-1 0 0 1 252 198)"/><rect width="16" height="16" rx="2" transform="matrix(-1 0 0 1 216 216)"/><rect width="16" height="16" rx="2" transform="matrix(-1 0 0 1 216 234)"/><rect width="16" height="16" rx="2" transform="matrix(-1 0 0 1 216 252)"/><rect width="16" height="16" rx="2" transform="matrix(-1 0 0 1 234 216)"/><rect width="16" height="16" rx="2" transform="matrix(-1 0 0 1 234 234)"/></g><rect width="16" height="16" rx="2" transform="matrix(-1 0 0 1 234 252)" class="C"/><g class="B"><rect width="16" height="16" rx="2" transform="matrix(-1 0 0 1 252 216)"/><rect width="16" height="16" rx="2" transform="matrix(-1 0 0 1 252 234)"/><rect width="16" height="16" rx="2" transform="matrix(-1 0 0 1 252 252)"/><rect x="36" y="54" width="16" height="16" rx="2"/><rect x="36" y="72" width="16" height="16" rx="2"/></g><rect x="36" y="90" width="16" height="16" rx="2" class="C"/><g class="B"><rect x="18" y="54" width="16" height="16" rx="2"/><rect x="18" y="72" width="16" height="16" rx="2"/><rect x="18" y="90" width="16" height="16" rx="2"/><rect y="54" width="16" height="16" rx="2"/><rect y="72" width="16" height="16" rx="2"/><rect y="90" width="16" height="16" rx="2"/><rect x="144" y="54" width="16" height="16" rx="2"/><rect x="144" y="72" width="16" height="16" rx="2"/></g><rect x="144" y="90" width="16" height="16" rx="2" class="C"/><g class="B"><rect x="126" y="54" width="16" height="16" rx="2"/><rect x="126" y="72" width="16" height="16" rx="2"/><rect x="126" y="90" width="16" height="16" rx="2"/><rect x="108" y="54" width="16" height="16" rx="2"/><rect x="108" y="72" width="16" height="16" rx="2"/><rect x="108" y="90" width="16" height="16" rx="2"/><rect x="36" width="16" height="16" rx="2"/><rect x="36" y="18" width="16" height="16" rx="2"/><rect x="36" y="36" width="16" height="16" rx="2"/><rect x="18" width="16" height="16" rx="2"/></g><rect x="18" y="18" width="16" height="16" rx="2" class="C"/><g class="B"><rect x="18" y="36" width="16" height="16" rx="2"/><rect width="16" height="16" rx="2"/><rect y="18" width="16" height="16" rx="2"/><rect y="36" width="16" height="16" rx="2"/><rect x="144" width="16" height="16" rx="2"/><rect x="144" y="18" width="16" height="16" rx="2"/><rect x="144" y="36" width="16" height="16" rx="2"/><rect x="126" width="16" height="16" rx="2"/><rect x="126" y="18" width="16" height="16" rx="2"/><rect x="126" y="36" width="16" height="16" rx="2"/><rect x="108" width="16" height="16" rx="2"/><rect x="108" y="18" width="16" height="16" rx="2"/></g><rect x="108" y="36" width="16" height="16" rx="2" class="C"/><g class="B"><rect x="36" y="108" width="16" height="16" rx="2"/><rect x="36" y="126" width="16" height="16" rx="2"/><rect x="36" y="144" width="16" height="16" rx="2"/><rect x="18" y="108" width="16" height="16" rx="2"/><rect x="18" y="126" width="16" height="16" rx="2"/><rect x="18" y="144" width="16" height="16" rx="2"/><rect y="108" width="16" height="16" rx="2"/><rect y="126" width="16" height="16" rx="2"/></g><rect y="144" width="16" height="16" rx="2" class="C"/><g class="B"><rect x="90" y="108" width="16" height="16" rx="2"/><rect x="90" y="126" width="16" height="16" rx="2"/><rect x="90" y="144" width="16" height="16" rx="2"/><rect x="72" y="108" width="16" height="16" rx="2"/></g><rect x="72" y="126" width="16" height="16" rx="2" class="C"/><g class="B"><rect x="72" y="144" width="16" height="16" rx="2"/><rect x="54" y="108" width="16" height="16" rx="2"/><rect x="54" y="126" width="16" height="16" rx="2"/><rect x="54" y="144" width="16" height="16" rx="2"/><rect x="144" y="108" width="16" height="16" rx="2"/><rect x="144" y="126" width="16" height="16" rx="2"/><rect x="144" y="144" width="16" height="16" rx="2"/><rect x="126" y="108" width="16" height="16" rx="2"/><rect x="126" y="126" width="16" height="16" rx="2"/><rect x="126" y="144" width="16" height="16" rx="2"/><rect x="108" y="108" width="16" height="16" rx="2"/><rect x="108" y="126" width="16" height="16" rx="2"/><rect x="108" y="144" width="16" height="16" rx="2"/><rect x="144" y="162" width="16" height="16" rx="2"/><rect x="144" y="180" width="16" height="16" rx="2"/><rect x="144" y="198" width="16" height="16" rx="2"/><rect x="126" y="162" width="16" height="16" rx="2"/><rect x="126" y="180" width="16" height="16" rx="2"/><rect x="126" y="198" width="16" height="16" rx="2"/><rect x="108" y="162" width="16" height="16" rx="2"/></g><rect x="108" y="180" width="16" height="16" rx="2" class="C"/><g class="B"><rect x="108" y="198" width="16" height="16" rx="2"/><rect x="144" y="216" width="16" height="16" rx="2"/><rect x="144" y="234" width="16" height="16" rx="2"/><rect x="144" y="252" width="16" height="16" rx="2"/><rect x="126" y="216" width="16" height="16" rx="2"/></g><rect x="126" y="234" width="16" height="16" rx="2" class="C"/><g class="B"><rect x="126" y="252" width="16" height="16" rx="2"/><rect x="108" y="216" width="16" height="16" rx="2"/><rect x="108" y="234" width="16" height="16" rx="2"/><rect x="108" y="252" width="16" height="16" rx="2"/></g></svg>