<svg xmlns="http://www.w3.org/2000/svg" width="32" height="32" viewBox="0 0 24 24"  xmlns:v="https://vecta.io/nano"><path d="M6.406 24C2.211 24 0 21.746 0 17.426V6.574C0 2.254 2.211 0 6.406 0h11.188C21.695 0 24 2.254 24 6.574v10.848c0 4.32-2.305 6.574-6.406 6.574zm10.863-3.758c1.523 0 2.398-.937 2.398-2.441V6.199c0-1.645-.785-2.441-2.398-2.441H6.73c-1.613 0-2.398.801-2.398 2.441v11.602c0 1.645.785 2.441 2.398 2.441zm0 0" fill="rgb(100%,83.137255%,0%)"/><path d="M10.137 10.137h3.727v3.727h-3.727zm0 0" fill="rgb(100%,100%,100%)"/></svg>