<?xml version="1.0" encoding="UTF-8"?>
<svg xmlns="http://www.w3.org/2000/svg" xmlns:xlink="http://www.w3.org/1999/xlink" width="24pt" height="24pt" viewBox="0 0 24 24" version="1.1">
<g id="surface1">
<path style=" stroke:none;fill-rule:nonzero;fill:rgb(100%,83.137255%,0%);fill-opacity:1;" d="M 6.40625 24 C 2.210938 24 0 21.746094 0 17.425781 L 0 6.574219 C 0 2.253906 2.210938 0 6.40625 0 L 17.59375 0 C 21.695312 0 24 2.253906 24 6.574219 L 24 17.421875 C 24 21.742188 21.695312 23.996094 17.59375 23.996094 Z M 17.269531 20.242188 C 18.792969 20.242188 19.667969 19.304688 19.667969 17.800781 L 19.667969 6.199219 C 19.667969 4.554688 18.882812 3.757812 17.269531 3.757812 L 6.730469 3.757812 C 5.117188 3.757812 4.332031 4.558594 4.332031 6.199219 L 4.332031 17.800781 C 4.332031 19.445312 5.117188 20.242188 6.730469 20.242188 Z M 17.269531 20.242188 "/>
<path style=" stroke:none;fill-rule:nonzero;fill:rgb(100%,100%,100%);fill-opacity:1;" d="M 10.136719 10.136719 L 13.863281 10.136719 L 13.863281 13.863281 L 10.136719 13.863281 Z M 10.136719 10.136719 "/>
</g>
</svg>