<svg xmlns="http://www.w3.org/2000/svg" width="43.9" height="44.1" xmlns:v="https://vecta.io/nano"><path d="M-311.1 39.8V60h-8.1V.3h7.3l.4 4.2 4-2.7c1.8-1.2 3.9-1.8 6.4-1.8h6c7 0 10.8 3.9 10.8 10.8v22.5c0 6.9-3.8 10.8-10.8 10.8h-6c-2.2 0-4.3-.6-6.4-1.9zm14.4-2.9c2.8 0 4.3-1.5 4.3-4.3V11.4c0-2.8-1.5-4.3-4.3-4.3h-4.5c-1.5 0-3 .4-4.5 1.4l-5.4 3.5v20l5.4 3.5c1.5.9 2.9 1.4 4.5 1.4zm42.9 4.9c-2.2 1.5-4.5 2.2-6.8 2.2h-5.1c-6.6 0-10.7-3.4-10.7-9.6V29c0-5.9 3.6-9.2 10.8-10l15-1.7v-6.4c0-2.8-1.5-4.3-4.5-4.3h-8.1c-3 0-4.5 1.5-4.5 4.3v2.8h-7.8v-2.4c0-7.3 4.2-11.3 11.8-11.3h9.8c7.3 0 11.4 4 11.4 11.1v32.5h-7.2l-.5-4.3zm-6.1-4.4c1.4 0 2.8-.4 4.3-1.4l5.1-3.3v-9l-13.7 1.7c-3 .3-4.2 1.3-4.2 4v4.4c0 2.7 1.1 3.6 4 3.6zm27.6 22.6v-7h5.3c1.8 0 3.1-1 4-3.2l2.2-5.1-13-28.1c-.8-1.5-1.1-3.1-1.1-4.8V.3h8.1v10.6c0 1.4.3 2.7.8 4l9 20.4 8.4-20.4c.5-1.3.8-2.6.8-4V.3h7.8v11.5c0 1.2-.3 2.8-1.1 4.8l-14.3 34.1c-2.8 6.6-5 9.2-10.2 9.2h-6.7zm51.7-16c-7.8 0-12-4.1-12-12.1V12.1c0-7.9 4.1-12.1 12-12.1h9.7c7.6 0 11.8 4.1 11.8 12.1v2.8h-7.9v-3.4c0-3-1.5-4.5-4.5-4.5h-8.5c-3 0-4.5 1.5-4.5 4.5v20.9c0 3 1.5 4.5 4.5 4.5h8.5c3 0 4.5-1.5 4.5-4.5v-4.3h7.9v3.8c0 7.9-4.2 12.1-11.8 12.1zm41.4 0c-7.7 0-11.7-4.1-11.7-12.1V12.1c-.1-7.9 4-12.1 11.7-12.1h20.5c7.5 0 11.7 4.1 11.7 12.1V32c0 7.9-4.2 12.1-11.7 12.1h-20.5zm19.9-6.9c2.8 0 4.4-1.7 4.4-4.5V11.4c0-3-1.4-4.5-4.4-4.5h-19.3c-3 0-4.4 1.5-4.4 4.5v21.3c0 3 1.4 4.5 4.4 4.5h19.3zm29.9 6.5h-8.1V.3h7.3l.5 5.3 4.6-3.8c1.6-1.3 3.7-1.9 6.4-1.9h6.2V7h-5.9c-1.6 0-3.2.4-4.5 1.4l-6.5 5.5zm54.8-11.3c0 7.7-4.2 11.7-11.9 11.7h-10c-7.8 0-12-4.1-12-12.1V12.1c0-7.9 4.1-12.1 12-12.1h10c7.7 0 11.9 4.1 11.9 12.1v12.1h-25.8V33c0 3 1.5 4.5 4.5 4.5h9c3 0 4.5-1.5 4.5-4.5v-3h7.9v2.3zm-25.8-14.6h18V11c0-3-1.5-4.5-4.5-4.5h-9c-3 0-4.5 1.5-4.5 4.5z" fill="#0006ff"/><path d="M-17.8 43.6V.3h8.1v43.3zm29.5.4C4 44 0 39.9 0 31.9V12.1C0 4.2 4.1 0 11.7 0h20.5c7.5 0 11.7 4.1 11.7 12.1V32c0 7.9-4.2 12.1-11.7 12.1H11.7zm19.9-6.9c2.8 0 4.4-1.7 4.4-4.5V11.4c0-3-1.4-4.5-4.4-4.5H12.3c-3 0-4.4 1.5-4.4 4.5v21.3c0 3 1.4 4.5 4.4 4.5h19.3zm-164-18.5h6.8v6.8h-6.8z" fill="#ffd400"/><path d="M18.6 18.6h6.7v6.8h-6.7z" fill="#0006ff"/></svg>