<svg xmlns="http://www.w3.org/2000/svg" width="21.95" height="22.162" viewBox="0 0 89 89" xmlns:v="https://vecta.io/nano"><path d="M23.73 89.073C8.112 89.073 0 80.734 0 64.462V24.19C0 8.123 8.315-.42 23.73-.42h41.576c15.21 0 23.73 8.34 23.73 24.6v40.475c0 16.068-8.518 24.6-23.73 24.6H23.73zm40.36-14.034c5.68 0 8.924-3.458 8.924-9.153v-43.12c0-6.102-2.84-9.153-8.924-9.153H24.946c-6.084 0-8.924 3.05-8.924 9.153V66.1c0 6.102 2.84 9.153 8.924 9.153h39.143zM23.73 89.276l-.507.447.507-.02v-.63z" fill="#ffd400"/><path d="M37.723 37.412H51.31v13.83H37.723z" fill="#0006ff"/></svg>